<svg width="1440" height="1024" viewBox="0 0 1440 1024" fill="none" xmlns="http://www.w3.org/2000/svg">
<g clip-path="url(#clip0_750_2)">
<rect width="1440" height="1024" fill="#11172D"/>
<path opacity="0.15" d="M1378.71 747.907C1387.34 739.829 1397.14 733.096 1407.77 727.935C1407.89 727.867 1408.03 727.832 1408.17 727.832C1408.31 727.832 1408.45 727.867 1408.57 727.935L1413.14 719C1395.47 724.798 1379.79 735.448 1367.89 749.733L1378.46 748.626C1378.45 748.495 1378.46 748.363 1378.5 748.239C1378.55 748.114 1378.62 748.001 1378.71 747.907ZM1443.06 733.274C1431.87 730.855 1420.5 729.366 1409.07 728.82C1409.07 728.982 1409.02 729.139 1408.93 729.275C1408.84 729.411 1408.72 729.521 1408.57 729.595C1398.13 734.667 1388.49 741.257 1379.98 749.152C1379.91 749.243 1379.81 749.315 1379.7 749.363C1379.59 749.41 1379.47 749.433 1379.35 749.429C1379.22 749.457 1379.09 749.457 1378.96 749.429C1375 757.976 1371.9 777.616 1371.27 782.015L1403.37 791.365C1403.58 791.416 1403.75 791.545 1403.87 791.724L1443.09 764.753C1443.05 764.59 1443.05 764.419 1443.09 764.256V733.274H1443.06ZM1479.68 727.935C1490.37 733.563 1500.49 740.234 1509.87 747.852C1509.98 747.949 1510.06 748.069 1510.11 748.204C1510.17 748.338 1510.19 748.483 1510.18 748.626L1519.92 749.595C1508.06 735.386 1492.45 724.786 1474.86 719L1478.87 727.935C1479 727.874 1479.14 727.842 1479.27 727.842C1479.41 727.842 1479.55 727.874 1479.68 727.935ZM1361.77 852.83C1357.16 841.402 1354.1 829.411 1352.67 817.174C1352.66 817.064 1352.67 816.954 1352.7 816.849C1352.73 816.744 1352.79 816.648 1352.86 816.565L1345 810.258C1345 811.199 1345 812.139 1345 813.024C1344.96 831.13 1349.93 848.895 1359.34 864.365L1362.41 853.301C1362.27 853.277 1362.15 853.222 1362.04 853.14C1361.92 853.059 1361.83 852.953 1361.77 852.83ZM1444.8 764.67L1483.72 791.558C1483.77 791.466 1483.84 791.387 1483.93 791.325C1484.01 791.263 1484.11 791.22 1484.21 791.199L1516.37 782.208H1516.57C1516.24 772.61 1510.78 753.633 1509.57 749.401C1509.48 749.424 1509.38 749.424 1509.29 749.401C1509.08 749.395 1508.87 749.317 1508.71 749.18C1499.41 741.685 1489.4 735.125 1478.82 729.595C1478.67 729.504 1478.55 729.378 1478.47 729.228C1478.39 729.077 1478.35 728.908 1478.35 728.737C1468.72 728.543 1449.2 732.389 1444.83 733.274C1444.84 733.328 1444.84 733.385 1444.83 733.44V764.173C1444.84 764.345 1444.8 764.517 1444.72 764.67H1444.8ZM1543 810.535L1535.39 816.454C1535.55 816.669 1535.62 816.937 1535.58 817.201C1535.36 818.308 1530.27 844.587 1525.31 852.858C1525.26 852.958 1525.2 853.046 1525.11 853.118C1525.02 853.189 1524.92 853.242 1524.82 853.273L1528.47 864.531C1537.97 849.01 1542.98 831.163 1542.94 812.969C1542.94 812.222 1542.94 811.364 1542.92 810.535H1543ZM1468.63 840.106C1468.52 839.962 1468.47 839.787 1468.47 839.608H1419.23C1419.23 839.795 1419.17 839.978 1419.06 840.133L1397.36 869.76L1397.14 869.981C1402.87 878.556 1420.09 894.628 1423.69 897.948C1423.77 897.847 1423.89 897.769 1424.01 897.721C1424.14 897.673 1424.27 897.655 1424.4 897.671C1424.74 897.671 1456.98 899.303 1462.82 897.671C1463.01 897.616 1463.21 897.624 1463.4 897.694C1463.58 897.764 1463.74 897.892 1463.84 898.058C1469.38 894.324 1486.51 874.601 1489.92 870.7L1489.75 870.534L1468.63 840.106ZM1418.04 838.75L1403.51 792.997C1403.42 793.023 1403.32 793.023 1403.23 792.997H1402.9L1370.79 783.674C1370.66 783.628 1370.54 783.553 1370.44 783.453C1364.07 790.59 1355.55 811.807 1353.83 816.261C1353.99 816.317 1354.13 816.418 1354.23 816.55C1354.33 816.682 1354.39 816.841 1354.41 817.008C1355.84 829.064 1358.86 840.878 1363.41 852.139C1363.48 852.274 1363.52 852.426 1363.52 852.581C1363.52 852.736 1363.48 852.889 1363.41 853.024C1373.26 860.714 1391.66 867.436 1395.79 869.013C1395.78 868.939 1395.78 868.865 1395.79 868.791L1417.46 839.165C1417.59 838.96 1417.8 838.812 1418.04 838.75ZM1523.76 852.028C1528.55 844.034 1533.76 817.201 1533.81 816.925C1533.84 816.77 1533.91 816.625 1534.01 816.505C1534.11 816.384 1534.25 816.29 1534.39 816.233C1531.07 806.219 1519.59 787.824 1517.07 783.868H1516.82L1484.71 792.941H1484.46C1484.37 792.967 1484.28 792.967 1484.19 792.941L1469.66 838.75C1469.85 838.805 1470.01 838.922 1470.13 839.082L1491.24 869.511C1491.26 869.584 1491.26 869.659 1491.24 869.732C1500.88 866.385 1519.67 855.32 1523.65 852.913C1523.59 852.771 1523.56 852.611 1523.58 852.455C1523.6 852.298 1523.66 852.15 1523.76 852.028ZM1463.29 899.441C1458.96 900.118 1454.58 900.378 1450.2 900.216C1439.13 900.216 1425.29 899.524 1424.32 899.469C1424.19 899.473 1424.05 899.442 1423.93 899.379C1423.81 899.316 1423.71 899.223 1423.63 899.109L1412.89 907.021C1433.07 913.66 1454.85 913.66 1475.03 907.021L1463.79 899.109C1463.67 899.28 1463.49 899.399 1463.29 899.441Z" fill="url(#paint0_linear_750_2)"/>
<path opacity="0.2" d="M1293.73 815.327C1294.54 823.036 1296.13 830.645 1298.46 838.038C1300.72 845.449 1303.23 852.774 1306.18 859.708C1311.95 874.098 1319 887.938 1327.27 901.056C1343.46 927.479 1365.11 950.146 1390.78 967.542C1403.58 976.182 1417.41 983.199 1431.94 988.432C1446.52 993.612 1461.6 997.258 1476.93 999.311C1480.75 999.875 1484.61 1000.05 1488.42 1000.44L1494.24 1000.96C1496.15 1000.96 1498.1 1000.96 1500.01 1000.96L1511.63 1001.22L1523.26 1000.74L1529.07 1000.74C1531.02 1000.74 1532.93 1000.39 1534.84 1000.22L1546.42 999.051L1549.33 998.748L1552.19 998.271L1557.92 997.317L1569.41 995.454L1557.96 997.578L1552.24 998.661L1549.37 999.224L1546.51 999.571L1534.93 1001.04C1533.02 1001.04 1531.11 1001.61 1529.16 1001.69L1523.35 1002.04C1519.44 1002.04 1515.58 1002.56 1511.68 1002.69L1500.01 1002.69C1498.1 1002.69 1496.15 1002.69 1494.19 1002.69L1488.38 1002.26C1484.48 1001.91 1480.62 1001.78 1476.75 1001.26L1465.17 999.528C1463.25 999.272 1461.33 998.91 1459.45 998.444L1453.76 997.144L1448.04 995.844L1442.44 994.154L1436.85 992.073L1434.07 991.25L1431.34 990.166C1416.6 984.98 1402.58 977.962 1389.6 969.276C1363.7 951.736 1341.9 928.803 1325.71 902.053C1317.58 888.792 1310.66 874.822 1305.06 860.315C1302.24 853.077 1299.89 845.666 1297.81 838.211C1295.7 830.736 1294.33 823.071 1293.73 815.327ZM1329.44 858.668C1327.71 850.05 1323.84 842.008 1318.16 835.292C1312.49 828.577 1305.2 823.408 1296.99 820.268C1298.12 849.567 1329.44 858.625 1329.44 858.625L1329.44 858.668ZM1341.97 889.657C1339.84 881.135 1335.59 873.291 1329.6 866.857C1323.62 860.422 1316.1 855.607 1307.75 852.861C1310.26 882.116 1341.97 889.614 1341.97 889.614L1341.97 889.657ZM1362.62 920.43C1359.48 912.241 1354.32 904.978 1347.61 899.318C1340.91 893.657 1332.88 889.782 1324.27 888.054C1330.04 916.702 1362.62 920.386 1362.62 920.386L1362.62 920.43ZM1389.99 946.435C1385.35 938.979 1378.89 932.82 1371.23 928.53C1363.56 924.241 1354.93 921.961 1346.14 921.903C1357.5 949.078 1389.99 946.521 1389.99 946.521L1389.99 946.435ZM1421.14 965.245C1414.91 959.037 1407.2 954.508 1398.75 952.083C1390.29 949.657 1381.35 949.414 1372.77 951.376C1389.91 975.17 1421.14 965.245 1421.14 965.245ZM1454.8 977.034C1447.46 972.197 1439.01 969.298 1430.24 968.608C1421.47 967.918 1412.67 969.46 1404.66 973.09C1426.17 992.94 1454.63 977.034 1454.63 977.034L1454.8 977.034ZM1491.11 985.225C1483.19 981.429 1474.43 979.701 1465.65 980.201C1456.87 980.701 1448.37 983.414 1440.92 988.086C1464.91 1004.82 1490.94 985.225 1490.94 985.225L1491.11 985.225ZM1529.03 983.405C1520.53 981.169 1511.59 981.121 1503.07 983.266C1494.54 985.411 1486.7 989.678 1480.27 995.67C1507.16 1007.68 1529.03 983.405 1529.03 983.405ZM1564.08 979.504C1555.38 978.217 1546.5 979.152 1538.26 982.221C1530.02 985.291 1522.7 990.395 1516.97 997.057C1545.04 1006.03 1564.08 979.634 1564.08 979.634L1564.08 979.504ZM1598.78 986.179C1590.24 984.068 1581.31 984.154 1572.81 986.428C1564.32 988.702 1556.54 993.089 1550.2 999.181C1577.31 1010.75 1599 986.309 1599 986.309L1598.78 986.179ZM1579.96 1018.08C1573.66 1011.95 1565.92 1007.51 1557.45 1005.17C1548.97 1002.84 1540.05 1002.69 1531.5 1004.73C1549.03 1028.31 1579.96 1018.08 1579.96 1018.08ZM1546.94 1025.79C1541.59 1018.83 1534.56 1013.33 1526.5 1009.81C1518.44 1006.3 1509.63 1004.88 1500.87 1005.68C1515.06 1031.51 1546.94 1025.79 1546.94 1025.79ZM1514.19 1028.87C1510.01 1021.15 1503.93 1014.61 1496.54 1009.87C1489.14 1005.12 1480.67 1002.33 1471.9 1001.74C1481.87 1029.48 1514.37 1028.87 1514.37 1028.87L1514.19 1028.87ZM1481.96 1028.87C1478.71 1020.72 1473.46 1013.51 1466.68 1007.94C1459.89 1002.36 1451.81 998.587 1443.18 996.971C1449.73 1025.75 1482.13 1029 1482.13 1029L1481.96 1028.87ZM1448.21 1027.22C1446.66 1018.58 1442.94 1010.47 1437.4 1003.65C1431.86 996.826 1424.69 991.517 1416.54 988.216C1417.28 1017.77 1448.38 1027.35 1448.38 1027.35L1448.21 1027.22ZM1416.11 1021.68C1416.78 1012.92 1415.22 1004.15 1411.58 996.159C1407.94 988.171 1402.33 981.234 1395.29 975.993C1388.61 1004.69 1416.28 1021.81 1416.28 1021.81L1416.11 1021.68ZM1390.78 1008.07C1392.25 999.415 1391.52 990.531 1388.64 982.24C1385.75 973.949 1380.82 966.522 1374.29 960.651C1364.75 988.476 1390.78 1008.07 1390.78 1008.07ZM1367.52 992.073C1369.68 983.558 1369.64 974.636 1367.41 966.14C1365.18 957.644 1360.83 949.851 1354.77 943.487C1343.06 970.402 1367.52 992.073 1367.52 992.073ZM1346.14 974.39C1349.3 966.2 1350.34 957.342 1349.16 948.642C1347.98 939.942 1344.61 931.683 1339.37 924.634C1324.58 950.032 1346.14 974.39 1346.14 974.39ZM1324.45 957.053C1328.95 949.514 1331.48 940.958 1331.78 932.182C1332.08 923.406 1330.16 914.696 1326.18 906.864C1307.36 929.228 1324.49 956.88 1324.49 956.88L1324.45 957.053ZM1308.61 932.522C1313.41 925.162 1316.27 916.706 1316.91 907.945C1317.56 899.184 1315.97 890.402 1312.3 882.419C1292.61 904.047 1308.66 932.349 1308.66 932.349L1308.61 932.522ZM1294.78 907.341C1299.94 900.241 1303.22 891.951 1304.31 883.244C1305.4 874.536 1304.27 865.695 1301.02 857.541C1280.24 878.085 1294.82 907.167 1294.82 907.167L1294.78 907.341ZM1286.1 874.661C1291.26 867.561 1294.54 859.272 1295.63 850.564C1296.72 841.857 1295.59 833.015 1292.35 824.862C1271.35 845.406 1285.93 874.488 1285.93 874.488L1286.1 874.661ZM1293.73 815.674C1294.55 807.965 1296.13 800.357 1298.46 792.963C1300.72 785.551 1303.23 778.227 1306.18 771.075C1311.95 756.729 1319.01 742.934 1327.27 729.858C1343.48 703.469 1365.13 680.834 1390.78 663.459C1403.59 654.815 1417.44 647.798 1431.99 642.568C1446.57 637.41 1461.64 633.765 1476.97 631.689C1480.79 631.126 1484.65 630.953 1488.47 630.563L1494.28 630.042C1496.19 630.042 1498.14 630.042 1500.05 630.042L1511.68 630.042L1523.26 630.519L1529.07 630.519C1531.02 630.519 1532.93 630.866 1534.84 631.039L1546.42 632.253L1549.33 632.34L1552.19 632.773L1557.92 633.726L1569.41 635.633L1557.96 633.466L1552.24 632.34L1549.37 631.819L1546.51 631.429L1534.93 629.999C1533.02 629.782 1531.11 629.436 1529.16 629.306L1523.35 628.959C1519.44 628.959 1515.58 628.482 1511.68 628.309L1500.01 628.309C1498.1 628.309 1496.15 628.309 1494.19 628.309L1488.38 628.786C1484.48 629.132 1480.62 629.262 1476.75 629.782L1465.17 631.473C1463.24 631.723 1461.33 632.099 1459.45 632.6L1453.76 633.856L1448.04 635.157L1442.44 636.847L1436.85 638.537L1434.07 639.404L1431.34 640.444C1416.61 645.663 1402.59 652.695 1389.6 661.378C1363.66 679.018 1341.86 702.072 1325.71 728.947C1317.58 742.209 1310.66 756.178 1305.06 770.685C1302.32 777.902 1299.95 785.25 1297.94 792.703C1295.78 800.2 1294.37 807.896 1293.73 815.674ZM1296.99 810.776C1305.2 807.639 1312.48 802.477 1318.15 795.77C1323.83 789.063 1327.71 781.029 1329.44 772.419C1329.44 772.419 1298.12 781.434 1296.99 810.776ZM1307.75 778.183C1316.1 775.437 1323.62 770.622 1329.6 764.187C1335.59 757.753 1339.84 749.909 1341.97 741.386C1341.97 741.386 1310.26 748.928 1307.75 778.183ZM1324.27 743.077C1332.89 741.34 1340.92 737.452 1347.63 731.776C1354.33 726.1 1359.49 718.819 1362.62 710.614C1362.62 710.614 1330.04 714.341 1324.27 743.077ZM1345.96 709.01C1354.79 708.968 1363.47 706.683 1371.17 702.369C1378.87 698.055 1385.35 691.854 1389.99 684.349C1389.99 684.349 1357.5 681.922 1346.14 709.01L1345.96 709.01ZM1372.43 679.625C1381.05 681.654 1390.05 681.449 1398.58 679.03C1407.1 676.61 1414.87 672.056 1421.14 665.799C1421.14 665.799 1389.91 655.874 1372.6 679.625L1372.43 679.625ZM1404.31 657.954C1412.34 661.615 1421.18 663.173 1429.98 662.483C1438.78 661.794 1447.27 658.878 1454.63 654.01C1454.63 654.01 1426.17 638.104 1404.48 657.911L1404.31 657.954ZM1440.75 642.958C1448.19 647.63 1456.7 650.343 1465.48 650.843C1474.25 651.343 1483.01 649.615 1490.94 645.819C1490.94 645.819 1464.91 626.228 1440.75 642.958ZM1480.27 635.243C1486.7 641.236 1494.54 645.503 1503.07 647.648C1511.59 649.793 1520.53 649.745 1529.03 647.509C1529.03 647.509 1507.16 623.368 1480.27 635.243ZM1516.97 633.813C1522.7 640.476 1530.02 645.58 1538.26 648.649C1546.5 651.719 1555.38 652.654 1564.08 651.366C1564.08 651.366 1545.04 624.971 1516.97 633.813ZM1550.41 631.819C1556.77 637.889 1564.55 642.252 1573.05 644.503C1581.54 646.754 1590.47 646.819 1599 644.692C1599 644.692 1577.31 620.291 1550.41 631.819ZM1531.5 626.272C1540.05 628.314 1548.97 628.162 1557.45 625.827C1565.92 623.493 1573.66 619.054 1579.96 612.923C1579.96 612.923 1549.03 602.694 1531.5 626.272ZM1501.13 625.318C1509.85 626.08 1518.61 624.637 1526.62 621.123C1534.62 617.608 1541.61 612.134 1546.94 605.208C1546.94 605.208 1515.06 599.487 1501.05 625.318L1501.13 625.318ZM1472.16 629.262C1480.92 628.647 1489.39 625.825 1496.77 621.058C1504.15 616.291 1510.21 609.735 1514.37 602.001C1514.37 602.001 1481.87 601.524 1472.07 629.262L1472.16 629.262ZM1443.44 633.943C1452.06 632.309 1460.13 628.524 1466.89 622.939C1473.66 617.355 1478.9 610.152 1482.13 602.001C1482.13 602.001 1449.73 605.251 1443.35 633.943L1443.44 633.943ZM1416.8 642.611C1424.95 639.31 1432.12 634.001 1437.66 627.18C1443.2 620.359 1446.92 612.249 1448.47 603.604C1448.47 603.604 1417.28 613.226 1416.8 642.611ZM1395.55 654.92C1402.6 649.676 1408.21 642.732 1411.85 634.736C1415.49 626.74 1417.05 617.954 1416.37 609.195C1416.37 609.195 1388.61 626.358 1395.46 654.92L1395.55 654.92ZM1374.38 670.393C1380.89 664.512 1385.81 657.081 1388.68 648.791C1391.54 640.501 1392.27 631.621 1390.78 622.978C1390.78 622.978 1364.75 642.568 1374.29 670.393L1374.38 670.393ZM1354.86 687.73C1360.91 681.371 1365.25 673.585 1367.48 665.097C1369.71 656.61 1369.76 647.697 1367.61 639.187C1367.61 639.187 1343.06 660.555 1354.77 687.513L1354.86 687.73ZM1339.46 706.583C1344.72 699.503 1348.09 691.202 1349.26 682.46C1350.43 673.718 1349.36 664.823 1346.14 656.611C1346.14 656.611 1324.58 681.012 1339.37 706.367L1339.46 706.583ZM1326.44 724.527C1330.42 716.695 1332.34 707.985 1332.04 699.209C1331.74 690.433 1329.21 681.876 1324.71 674.337C1324.71 674.337 1307.36 701.686 1326.23 724.31L1326.44 724.527ZM1312.56 748.971C1316.22 740.994 1317.81 732.221 1317.16 723.468C1316.52 714.715 1313.67 706.267 1308.87 698.912C1308.87 698.912 1292.61 726.997 1312.34 748.755L1312.56 748.971ZM1301.28 773.893C1304.54 765.733 1305.67 756.883 1304.58 748.168C1303.49 739.452 1300.2 731.155 1295.04 724.05C1295.04 724.05 1280.24 752.915 1301.07 773.676L1301.28 773.893ZM1292.61 806.572C1295.86 798.413 1297 789.563 1295.9 780.847C1294.81 772.132 1291.53 763.834 1286.36 756.729C1286.36 756.729 1271.35 785.638 1292.17 806.355L1292.61 806.572Z" fill="#4070B4"/>
</g>
<defs>
<linearGradient id="paint0_linear_750_2" x1="1344.97" y1="815.486" x2="1519.75" y2="815.486" gradientUnits="userSpaceOnUse">
<stop stop-color="#D6B557"/>
<stop offset="0.01" stop-color="#1F436F"/>
<stop offset="0.05" stop-color="#2B496C"/>
<stop offset="0.13" stop-color="#495A63"/>
<stop offset="0.23" stop-color="#7B7555"/>
<stop offset="0.35" stop-color="#C09A41"/>
<stop offset="0.4" stop-color="#E1AC38"/>
<stop offset="0.42" stop-color="#E4B344"/>
<stop offset="0.49" stop-color="#ECCB69"/>
<stop offset="0.55" stop-color="#F3DD87"/>
<stop offset="0.62" stop-color="#F7EA9C"/>
<stop offset="0.68" stop-color="#FAF2A9"/>
<stop offset="0.74" stop-color="#FBF5AD"/>
<stop offset="0.77" stop-color="#FAF1A6"/>
<stop offset="0.82" stop-color="#F6E693"/>
<stop offset="0.88" stop-color="#EFD374"/>
<stop offset="0.93" stop-color="#E9C155"/>
</linearGradient>
<clipPath id="clip0_750_2">
<rect width="1440" height="1024" fill="white"/>
</clipPath>
</defs>
</svg>
