<svg width="64" height="64" viewBox="0 0 64 64" fill="none" xmlns="http://www.w3.org/2000/svg">
<g id="Group 166">
<g id="Ellipse 24">
<circle cx="32" cy="32" r="32" fill="#1A2449"/>
</g>
<g id="Group 162">
<g id="Group">
<g id="Group_2">
<path id="Vector" d="M26.1555 19.4409C25.0768 18.8447 23.8103 18.8585 22.7385 19.4496L35.3002 31.0377L39.5202 26.8177L26.1555 19.4409Z" fill="white"/>
</g>
</g>
<g id="Group_3">
<g id="Group_4">
<path id="Vector_2" d="M21.4825 20.6348C21.1758 21.1362 21 21.71 21 22.3183V43.2475C21 43.8368 21.1603 44.3986 21.4497 44.8897L34.0821 32.2573L21.4825 20.6348Z" fill="white"/>
</g>
</g>
<g id="Group_5">
<g id="Group_6">
<path id="Vector_3" d="M45.1151 29.9047L41.0899 27.6836L36.5667 32.2051L42.11 37.3177L45.1169 35.6583C46.199 35.0586 46.8469 33.9834 46.8469 32.7806C46.8452 31.5779 46.199 30.5027 45.1151 29.9047Z" fill="white"/>
</g>
</g>
<g id="Group_7">
<g id="Group_8">
<path id="Vector_4" d="M35.3484 33.4258L22.6816 46.0926C23.2313 46.4062 23.8344 46.5716 24.441 46.5716C25.0268 46.5716 25.6161 46.4234 26.1555 46.1253L40.5213 38.1972L35.3484 33.4258Z" fill="white"/>
</g>
</g>
</g>
</g>
</svg>
