<svg width="22" height="26" viewBox="0 0 22 26" fill="none" xmlns="http://www.w3.org/2000/svg">
<g id="Group 158">
<g id="Group">
<g id="Group_2">
<path id="Vector" d="M15.465 0C15.525 0 15.585 0 15.6484 0C15.7955 1.81757 15.1017 3.17565 14.2586 4.15913C13.4313 5.13582 12.2984 6.08308 10.4662 5.93935C10.3439 4.14781 11.0388 2.89045 11.8808 1.90924C12.6617 0.994795 14.0934 0.181078 15.465 0Z" fill="#30343D"/>
<path id="Vector_2" d="M21.0118 18.918C21.0118 18.9361 21.0118 18.952 21.0118 18.9689C20.4969 20.5285 19.7624 21.8651 18.866 23.1054C18.0478 24.2315 17.0451 25.7469 15.2547 25.7469C13.7076 25.7469 12.68 24.7521 11.0944 24.7249C9.41717 24.6978 8.49481 25.5568 6.9613 25.7729C6.78589 25.7729 6.61047 25.7729 6.43844 25.7729C5.31237 25.61 4.40358 24.7182 3.74152 23.9146C1.78927 21.5402 0.28067 18.4732 0 14.5484C0 14.1636 0 13.7799 0 13.3951C0.118832 10.5862 1.48371 8.30233 3.29788 7.1955C4.25533 6.60699 5.57153 6.10563 7.03713 6.32972C7.66524 6.42705 8.30694 6.64208 8.86941 6.85484C9.40246 7.05969 10.069 7.42297 10.7006 7.40373C11.1284 7.39129 11.5539 7.16833 11.9851 7.01102C13.2481 6.55493 14.4862 6.03207 16.1182 6.27766C18.0795 6.57417 19.4715 7.44561 20.3316 8.79011C18.6725 9.84602 17.3608 11.4372 17.5849 14.1545C17.7841 16.6229 19.2191 18.0669 21.0118 18.918Z" fill="#30343D"/>
</g>
</g>
</g>
</svg>
