<svg width="142" height="142" viewBox="0 0 142 142" fill="none" xmlns="http://www.w3.org/2000/svg">
<g filter="url(#filter0_d_2930_2)">
<circle cx="71" cy="67" r="67" fill="white"/>
</g>
<g filter="url(#filter1_d_2930_2)">
<path d="M71.0022 6C37.3151 6 10 33.3098 10 66.9995C10 100.689 37.3125 127.999 71.0022 127.999C104.695 127.999 132.004 100.689 132.004 66.9995C132.004 33.3098 104.695 6 71.0022 6ZM71.0022 24.2396C82.149 24.2396 91.1817 33.2749 91.1817 44.4164C91.1817 55.5606 82.149 64.5933 71.0022 64.5933C59.8607 64.5933 50.828 55.5606 50.828 44.4164C50.828 33.2749 59.8607 24.2396 71.0022 24.2396ZM70.9888 112.05C59.8714 112.05 49.6892 108.002 41.8355 101.3C39.9223 99.6684 38.8184 97.2755 38.8184 94.7648C38.8184 83.4652 47.9636 74.4218 59.2659 74.4218H82.7439C94.0488 74.4218 103.159 83.4652 103.159 94.7648C103.159 97.2782 102.061 99.6657 100.145 101.298C92.2937 108.002 82.1088 112.05 70.9888 112.05Z" fill="#0E1931"/>
</g>
<defs>
<filter id="filter0_d_2930_2" x="0" y="0" width="142" height="142" filterUnits="userSpaceOnUse" color-interpolation-filters="sRGB">
<feFlood flood-opacity="0" result="BackgroundImageFix"/>
<feColorMatrix in="SourceAlpha" type="matrix" values="0 0 0 0 0 0 0 0 0 0 0 0 0 0 0 0 0 0 127 0" result="hardAlpha"/>
<feOffset dy="4"/>
<feGaussianBlur stdDeviation="2"/>
<feComposite in2="hardAlpha" operator="out"/>
<feColorMatrix type="matrix" values="0 0 0 0 0 0 0 0 0 0 0 0 0 0 0 0 0 0 0.25 0"/>
<feBlend mode="normal" in2="BackgroundImageFix" result="effect1_dropShadow_2930_2"/>
<feBlend mode="normal" in="SourceGraphic" in2="effect1_dropShadow_2930_2" result="shape"/>
</filter>
<filter id="filter1_d_2930_2" x="6" y="6" width="130.004" height="129.999" filterUnits="userSpaceOnUse" color-interpolation-filters="sRGB">
<feFlood flood-opacity="0" result="BackgroundImageFix"/>
<feColorMatrix in="SourceAlpha" type="matrix" values="0 0 0 0 0 0 0 0 0 0 0 0 0 0 0 0 0 0 127 0" result="hardAlpha"/>
<feOffset dy="4"/>
<feGaussianBlur stdDeviation="2"/>
<feComposite in2="hardAlpha" operator="out"/>
<feColorMatrix type="matrix" values="0 0 0 0 0 0 0 0 0 0 0 0 0 0 0 0 0 0 0.25 0"/>
<feBlend mode="normal" in2="BackgroundImageFix" result="effect1_dropShadow_2930_2"/>
<feBlend mode="normal" in="SourceGraphic" in2="effect1_dropShadow_2930_2" result="shape"/>
</filter>
</defs>
</svg>
