<svg width="17" height="12" viewBox="0 0 17 12" fill="none" xmlns="http://www.w3.org/2000/svg">
<path d="M16 6.8C16.4418 6.8 16.8 6.44183 16.8 6C16.8 5.55817 16.4418 5.2 16 5.2L16 6.8ZM0.434314 5.43432C0.121894 5.74674 0.121894 6.25327 0.434314 6.56569L5.52548 11.6569C5.8379 11.9693 6.34443 11.9693 6.65685 11.6569C6.96927 11.3444 6.96927 10.8379 6.65685 10.5255L2.13137 6L6.65685 1.47452C6.96927 1.1621 6.96927 0.655566 6.65685 0.343147C6.34443 0.0307273 5.8379 0.0307273 5.52548 0.343147L0.434314 5.43432ZM16 5.2L0.999999 5.2L0.999999 6.8L16 6.8L16 5.2Z" fill="#0A7F3F"/>
</svg>
