<svg width="83" height="90" viewBox="0 0 83 90" fill="none"
    xmlns="http://www.w3.org/2000/svg">
    <path d="M32.7532 57.9913C32.7086 57.4104 32.1929 56.9778 31.6217 57.019C29.219 57.2071 27.4349 54.7428 28.3705 52.49C28.5936 51.9531 28.3382 51.3351 27.8006 51.1126C27.2582 50.8874 26.6457 51.1428 26.4218 51.6825C24.981 55.1541 27.4914 59.1365 31.4013 59.1365C32.3847 59.1365 32.8008 58.6202 32.7532 57.9913Z" fill="#F0DED1"/>
    <path d="M24.3027 38.6157C24.6206 38.1282 24.4826 37.4745 23.9944 37.1559C23.5069 36.8401 22.8526 36.976 22.5354 37.4649C20.9802 39.8544 21.5116 43.26 23.7198 45.0576C24.17 45.4239 24.8355 45.357 25.2036 44.9052C25.5716 44.4534 25.503 43.7887 25.0519 43.4207C23.7013 42.3221 23.3518 40.0768 24.3027 38.6157Z" fill="#F0DED1"/>
    <path d="M28.5522 31.8824C29.0871 31.6517 29.3329 31.031 29.1022 30.4955C28.5254 29.1637 29.8184 27.7513 31.1827 28.2186C31.7347 28.4054 32.3335 28.1115 32.5209 27.5608C32.7084 27.0088 32.4138 26.41 31.8624 26.2219C28.7684 25.1696 25.8635 28.3161 27.1659 31.3331C27.4009 31.8763 28.0288 32.1097 28.5522 31.8824Z" fill="#F0DED1"/>
    <path d="M22.997 29.1611C23.3843 28.7257 23.3458 28.0583 22.9105 27.6711C22.1976 27.037 22.265 25.6116 23.0362 25.0468C23.5065 24.7035 23.6095 24.0429 23.2655 23.5733C22.9215 23.1023 22.261 22.9993 21.792 23.344C19.9332 24.7035 19.7893 27.7171 21.5084 29.2476C21.9429 29.6341 22.6102 29.595 22.997 29.1611Z" fill="#F0DED1"/>
    <path d="M35.2074 38.202C35.7526 37.996 36.0279 37.3891 35.8233 36.8439C35.6173 36.2973 35.0083 36.024 34.4645 36.2273C31.5784 37.3132 31.0251 41.1991 33.4991 43.0496C33.9648 43.397 34.6268 43.3047 34.9753 42.8367C35.3241 42.3698 35.2287 41.7093 34.7624 41.3605C33.6265 40.5118 33.8782 38.7022 35.2074 38.202Z" fill="#F0DED1"/>
    <path d="M35.6248 59.5387C35.0858 59.7598 34.8277 60.3764 35.0487 60.9147C35.241 61.3844 35.1174 62.0106 34.761 62.3704C34.4006 62.7343 33.7963 62.8593 33.3239 62.667C32.7856 62.45 32.1697 62.7082 31.9507 63.2479C31.7317 63.789 31.9919 64.4028 32.5316 64.6225C35.3578 65.7623 38.1473 62.9142 37.0001 60.1155C36.7804 59.5785 36.1652 59.3176 35.6248 59.5387Z" fill="#F0DED1"/>
    <path d="M32.1204 21.181C33.6158 20.4759 35.3951 21.4715 35.5666 23.1448C35.627 23.7349 36.1591 24.1497 36.7236 24.0868C37.3024 24.0278 37.724 23.5101 37.6649 22.9305C37.3468 19.8229 34.0424 17.9432 31.2237 19.2722C30.6964 19.5194 30.4698 20.1483 30.7177 20.6757C30.9649 21.203 31.5931 21.431 32.1204 21.181Z" fill="#F0DED1"/>
    <path d="M31.1343 48.6553C29.6567 51.784 32.9439 55.0605 36.0498 53.5771C36.5758 53.3272 36.7989 52.6968 36.5483 52.1723C36.2977 51.6449 35.6681 51.4238 35.1421 51.6738C33.8121 52.302 32.4131 50.8893 33.0417 49.5562C33.2903 49.0289 33.0651 48.3999 32.5384 48.1514C32.0125 47.9042 31.3835 48.1308 31.1343 48.6553Z" fill="#F0DED1"/>
    <path d="M56.5154 66.4789C63.2388 65.2811 67.9745 58.9357 67.1124 52.0206C71.4042 49.7829 74.1532 45.3473 74.1532 40.4459C74.1532 35.5392 71.3921 31.0902 67.0844 28.845C67.0863 28.8281 67.0902 28.8117 67.092 28.7952C67.9879 21.2914 62.4481 14.7097 55.0668 14.2061C54.8747 14.0612 52.7313 11.3223 48.7275 11.3223C45.5354 11.3223 42.7651 13.0941 41.3309 15.7098C39.8824 13.0941 37.1122 11.3223 33.9201 11.3223C29.8628 11.3223 27.7362 14.099 27.5955 14.2051C24.4556 14.4165 21.5151 15.7411 19.274 17.9918C16.4334 20.844 15.0801 24.7825 15.5586 28.7842C15.5609 28.8044 15.5654 28.824 15.5677 28.8443C11.2597 31.0895 8.49805 35.5389 8.49805 40.4458C8.49805 45.3473 11.247 49.7829 15.5389 52.0206C15.0526 55.9217 16.3386 59.9371 19.2733 62.8848C21.149 64.7689 23.5709 66.024 26.1473 66.4806C26.6394 67.6592 27.3832 68.6974 28.3234 69.5114C27.7469 70.1019 27.3812 70.9035 27.3812 71.8033V74.2783C27.3812 75.7408 28.3656 76.9922 29.7015 77.3719C29.5468 77.7516 29.4625 78.1594 29.4625 78.5954V81.0704C29.4625 82.8422 30.9108 84.2907 32.6686 84.2907H34.0607V85.6828C34.0607 88.0592 35.9873 89.9996 38.3497 89.9996H44.298C46.6604 89.9996 48.5869 88.0592 48.5869 85.6828V84.2907H49.9931C51.7509 84.2907 53.1993 82.8422 53.1993 81.0704V78.5954C53.1993 78.1594 53.1149 77.7516 52.9602 77.3719C54.2961 76.9784 55.2805 75.7408 55.2805 74.2783V71.8033C55.2805 70.9035 54.9148 70.1019 54.3383 69.5114C55.279 68.683 56.0233 67.6441 56.5154 66.4789ZM41.3309 67.2754C41.5699 67.7396 41.8652 68.1752 42.1886 68.5694H40.445C40.7824 68.1752 41.0778 67.7396 41.3309 67.2754ZM27.5781 63.1694C27.5781 62.593 27.1 62.1147 26.5234 62.1147C25.9329 62.1147 25.4688 62.593 25.4688 63.1694C25.4688 63.5051 25.4832 63.8406 25.5387 64.1763C23.7568 63.6806 22.0983 62.7323 20.768 61.3962C17.1399 57.7529 16.5041 52.1624 19.2225 47.801C19.5301 47.3066 19.379 46.6571 18.8846 46.3481C18.393 46.0391 17.7414 46.1902 17.4317 46.6859C16.7977 47.7031 16.3221 48.7774 15.9911 49.8784C12.6896 47.9239 10.6074 44.3586 10.6074 40.4458C10.6074 36.5334 12.6948 32.9613 16.0025 30.9972C16.192 31.6454 16.4289 32.2801 16.7204 32.8943C16.9706 33.4213 17.5986 33.6441 18.1252 33.3956C18.6519 33.1456 18.8757 32.5167 18.6265 31.9907C16.7407 28.0128 17.3333 22.9307 20.7687 19.4804C22.2615 17.9805 24.1229 16.966 26.1438 16.5238C25.7078 17.5366 25.4688 18.6489 25.4688 19.8158C25.4688 20.4067 25.9329 20.8705 26.5235 20.8705C27.1 20.8705 27.5781 20.4067 27.5781 19.8158C27.5781 16.2852 30.4414 13.4316 33.9201 13.4316C37.317 13.4316 40.2622 16.176 40.2622 19.8158V63.1694C40.2622 63.2254 40.2622 63.2679 40.2762 63.3239C40.2199 65.5458 39.0388 67.4721 37.281 68.5694H30.5874C30.5733 68.5694 30.5734 68.5694 30.5593 68.5694C28.7391 67.4426 27.5781 65.4246 27.5781 63.1694ZM46.4776 85.6828C46.4776 86.906 45.4932 87.8903 44.298 87.8903H38.3497C37.1544 87.8903 36.17 86.906 36.17 85.6828V84.2907H46.4776V85.6828ZM51.09 81.0704C51.09 81.675 50.5978 82.1814 49.9931 82.1814C48.0557 82.1313 32.8115 82.181 32.6686 82.1814C32.0639 82.1814 31.5718 81.675 31.5718 81.0704V78.5955C31.5718 78.0469 31.9514 77.5971 32.4436 77.4986H50.2181C50.7103 77.5971 51.09 78.0469 51.09 78.5955V81.0704ZM53.1711 74.2783C53.1711 74.8829 52.679 75.3893 52.0603 75.3893C38.0252 75.369 32.826 75.2956 31.1268 75.2506C31.2735 75.2777 31.2239 75.322 30.5874 75.3893C29.9828 75.3893 29.4905 74.8829 29.4905 74.2783V71.8034C29.4905 71.3392 29.7718 70.9317 30.1656 70.7628C30.2921 70.7065 30.4327 70.6787 30.5874 70.6787C37.812 70.6787 44.0665 70.6787 52.0603 70.6787C52.2149 70.6787 52.3555 70.7065 52.4962 70.7628C52.8899 70.9317 53.1711 71.3255 53.1711 71.8034V74.2783ZM52.0883 68.5694C52.0743 68.5694 52.0743 68.5694 52.0603 68.5694H45.3667C43.6089 67.4866 42.4277 65.5458 42.3715 63.3239C42.3855 63.2679 42.3855 63.2254 42.3855 63.1694V19.8158C42.3855 16.1736 45.3329 13.4316 48.7276 13.4316C52.2325 13.4316 55.0836 16.3164 55.0836 19.8158C55.0836 20.4067 55.5476 20.8705 56.1382 20.8705C56.7148 20.8705 57.1929 20.4067 57.1929 19.8158C57.1929 18.6493 56.954 17.5386 56.5182 16.5259C63.3872 18.0354 67.0399 25.6305 64.0248 31.9907C63.7756 32.5167 63.9994 33.1456 64.5261 33.3956C65.0519 33.6434 65.6804 33.422 65.9309 32.8943C66.2223 32.2798 66.4594 31.6447 66.6489 30.9972C69.9565 32.9616 72.0439 36.5334 72.0439 40.4458C72.0439 44.3586 69.9617 47.9239 66.6602 49.8784C66.3292 48.7774 65.8536 47.7031 65.2196 46.6859C64.9099 46.1902 64.2583 46.0391 63.7667 46.3481C63.2723 46.6571 63.1212 47.3066 63.4288 47.801C67.359 54.1066 64.0434 62.2332 57.1373 64.1712C57.1785 63.8371 57.1929 63.5034 57.1929 63.1694C57.1929 62.593 56.7148 62.1147 56.1382 62.1147C55.5477 62.1147 55.0836 62.593 55.0836 63.1694C55.0836 65.3151 54.0025 67.3983 52.0883 68.5694Z" fill="#F0DED1"/>
    <path d="M31.127 75.2508C29.6468 75.2114 30.8203 75.1938 31.127 75.2508V75.2508Z" fill="#F0DED1"/>
    <path d="M56.2278 51.6809C56.0054 51.144 55.3881 50.8885 54.8491 51.1124C54.3115 51.3362 54.0567 51.9528 54.2806 52.4911C55.2182 54.7457 53.4244 57.21 51.0287 57.0187C50.4561 56.9748 49.9418 57.4101 49.8971 57.991C49.8512 58.598 50.2431 59.1363 51.2491 59.1363C55.1468 59.1363 57.6768 55.1679 56.2278 51.6809Z" fill="#F0DED1"/>
    <path d="M58.9326 45.0576C61.1407 43.26 61.6722 39.8544 60.117 37.4649C59.7991 36.976 59.1454 36.8401 58.6579 37.1559C58.1697 37.4745 58.0317 38.1282 58.3496 38.6157C59.3006 40.0768 58.9511 42.3221 57.6005 43.4207C57.1494 43.7887 57.0807 44.4534 57.4488 44.9052C57.8168 45.357 58.4823 45.4243 58.9326 45.0576Z" fill="#F0DED1"/>
    <path d="M50.7911 26.2221C50.2397 26.4103 49.9452 27.009 50.1326 27.5611C50.3208 28.1117 50.9195 28.407 51.4709 28.2188C52.8361 27.7519 54.1282 29.1636 53.5513 30.4957C53.3206 31.0313 53.5664 31.652 54.1013 31.8827C54.625 32.1099 55.2527 31.8762 55.4876 31.3334C56.7851 28.328 53.8966 25.164 50.7911 26.2221Z" fill="#F0DED1"/>
    <path d="M59.7403 27.6711C59.305 28.0584 59.2665 28.7258 59.6538 29.1611C60.0416 29.5964 60.709 29.6335 61.1424 29.2476C62.8602 27.7185 62.7187 24.7042 60.8602 23.344C60.3892 22.9993 59.73 23.1023 59.386 23.5733C59.042 24.043 59.145 24.7035 59.6147 25.0468C60.3892 25.614 60.4504 27.0394 59.7403 27.6711Z" fill="#F0DED1"/>
    <path d="M47.8882 41.3606C47.422 41.7094 47.3266 42.3699 47.6754 42.8368C48.0231 43.302 48.6832 43.3992 49.1516 43.0497C51.6207 41.2026 51.0778 37.3153 48.1862 36.2274C47.6417 36.0227 47.0327 36.2974 46.8274 36.844C46.6228 37.3891 46.8981 37.9961 47.4433 38.2021C48.7705 38.7016 49.0261 40.5105 47.8882 41.3606Z" fill="#F0DED1"/>
    <path d="M49.3281 62.6672C48.2413 63.1083 47.1633 61.9915 47.604 60.9149C47.8244 60.3752 47.5656 59.76 47.0266 59.5389C46.4869 59.3178 45.871 59.5773 45.6512 60.1157C44.5052 62.9222 47.2997 65.7604 50.1205 64.6227C50.6602 64.403 50.9204 63.7891 50.7014 63.2481C50.4816 62.7097 49.8685 62.4488 49.3281 62.6672Z" fill="#F0DED1"/>
    <path d="M47.0856 23.1447C47.256 21.4834 49.0227 20.4737 50.5318 21.1809C51.0571 21.4295 51.6874 21.2015 51.9346 20.6755C52.1825 20.1482 51.9559 19.5193 51.4285 19.2721C48.6136 17.9472 45.306 19.8179 44.9873 22.9304C44.846 24.3181 46.9421 24.5481 47.0856 23.1447Z" fill="#F0DED1"/>
    <path d="M46.1023 52.1713C45.851 52.6972 46.0741 53.3276 46.6001 53.5775C49.6739 55.0455 53.0012 51.8063 51.5157 48.6571C51.2685 48.1298 50.6402 47.9018 50.1122 48.1518C49.5855 48.4003 49.3596 49.0293 49.6082 49.5552C50.2348 50.8873 48.8404 52.3038 47.5078 51.6742C46.9826 51.4229 46.3529 51.6453 46.1023 52.1713Z" fill="#F0DED1"/>
    <path d="M42.3798 5.08653V1.05466C42.3798 0.472402 41.9074 0 41.3252 0C40.7429 0 40.2705 0.472402 40.2705 1.05466V5.08653C40.2705 5.66878 40.7429 6.14119 41.3252 6.14119C41.9074 6.14119 42.3798 5.66878 42.3798 5.08653Z" fill="#F0DED1"/>
    <path d="M23.7238 10.8788C24.2291 10.589 24.4028 9.94359 24.1131 9.43824L22.1061 5.94605C21.8163 5.44207 21.1702 5.26903 20.6662 5.55742C20.1609 5.84717 19.9872 6.49261 20.2769 6.99796L22.2839 10.4901C22.5745 10.9955 23.219 11.1678 23.7238 10.8788Z" fill="#F0DED1"/>
    <path d="M10.8398 23.8203C11.1316 23.3163 10.96 22.6709 10.456 22.3797L6.97893 20.3638C6.47837 20.0699 5.83088 20.2416 5.5377 20.7469C5.24589 21.2509 5.41754 21.8963 5.92153 22.1875L9.39861 24.2034C9.89375 24.4938 10.5449 24.3294 10.8398 23.8203Z" fill="#F0DED1"/>
    <path d="M0 41.498C0 42.0803 0.472402 42.5527 1.05466 42.5527H5.06936C5.65161 42.5527 6.12402 42.0803 6.12402 41.498C6.12402 40.9158 5.65161 40.4434 5.06936 40.4434H1.05466C0.472388 40.4434 0 40.9157 0 41.498Z" fill="#F0DED1"/>
    <path d="M9.39861 58.7917L5.92153 60.8076C5.41754 61.0987 5.24589 61.7442 5.5377 62.2481C5.83253 62.7569 6.48362 62.9217 6.97893 62.6313L10.456 60.6153C10.96 60.3242 11.1316 59.6788 10.8398 59.1748C10.5473 58.6694 9.90053 58.4964 9.39861 58.7917Z" fill="#F0DED1"/>
    <path d="M71.8131 59.1748C71.5213 59.6788 71.6929 60.3242 72.1969 60.6153L75.674 62.6313C75.8402 62.7288 76.0221 62.7741 76.202 62.7741C76.5652 62.7741 76.9195 62.5859 77.1152 62.2481C77.407 61.7441 77.2354 61.0987 76.7314 60.8076L73.2543 58.7917C72.7524 58.4964 72.1056 58.6694 71.8131 59.1748Z" fill="#F0DED1"/>
    <path d="M81.5967 40.4434H77.582C76.9997 40.4434 76.5273 40.9158 76.5273 41.498C76.5273 42.0803 76.9997 42.5527 77.582 42.5527H81.5967C82.179 42.5527 82.6514 42.0803 82.6514 41.498C82.6514 40.9158 82.179 40.4434 81.5967 40.4434Z" fill="#F0DED1"/>
    <path d="M73.2543 24.2034L76.7314 22.1875C77.2354 21.8964 77.407 21.2509 77.1152 20.7469C76.8234 20.2416 76.1745 20.0699 75.674 20.3638L72.1969 22.3797C71.6929 22.6709 71.5213 23.3163 71.8131 23.8203C72.1078 24.3291 72.759 24.4938 73.2543 24.2034Z" fill="#F0DED1"/>
    <path d="M60.3688 10.4899L62.3758 6.99777C62.6655 6.4924 62.4918 5.84698 61.9865 5.55723C61.4839 5.26885 60.8371 5.4405 60.5466 5.94586L58.5396 9.43805C58.2498 9.94341 58.4236 10.5888 58.9289 10.8786C59.4334 11.1677 60.0783 10.9953 60.3688 10.4899Z" fill="#F0DED1"/>
    <path d="M15.9162 35.7281C14.3191 36.7196 13.4601 38.7726 13.8721 40.61C13.9826 41.1002 14.4179 41.4339 14.9007 41.4339C15.5723 41.4339 16.0793 40.8108 15.9306 40.1486C15.7116 39.1749 16.184 38.0448 17.0285 37.5188C17.5236 37.2126 17.6753 36.5616 17.3684 36.0673C17.0608 35.5729 16.4091 35.4177 15.9162 35.7281Z" fill="#F0DED1"/>
    <path d="M65.6238 37.5188C66.4684 38.0447 66.9408 39.1749 66.7218 40.1486C66.5728 40.8119 67.0809 41.4339 67.7517 41.4339C68.2344 41.4339 68.6697 41.1002 68.7803 40.61C69.1922 38.7726 68.3333 36.7196 66.7376 35.7281C66.2432 35.4177 65.593 35.5729 65.2847 36.0673C64.9777 36.5616 65.1295 37.2112 65.6238 37.5188Z" fill="#F0DED1"/>
</svg>
