<svg width="18" height="19" viewBox="0 0 18 19" fill="none" xmlns="http://www.w3.org/2000/svg">
<path fill-rule="evenodd" clip-rule="evenodd" d="M8.19189 0.771718V0.730769C8.19189 0.327385 8.51928 0 8.92266 0C9.32605 0 9.65343 0.327385 9.65343 0.730769V0.768477C13.199 1.1393 16.0222 4.22275 16.0307 7.82297L16.0309 7.83941V9.6393C16.0309 9.64752 16.0307 9.6557 16.0305 9.66386C16.0371 10.6446 16.4442 11.5927 17.1506 12.2723C17.158 12.2787 17.1653 12.2854 17.1726 12.2922C17.8193 12.9046 18.0202 13.8447 17.6848 14.6869C17.3487 15.5313 16.5558 16.0769 15.6653 16.0769C15.6616 16.0769 15.6579 16.0768 15.6542 16.0768H12.4994C12.1499 17.7213 10.6534 18.9998 8.9224 18.9998C7.19138 18.9998 5.69486 17.7213 5.34543 16.0768H2.19436C2.18931 16.0769 2.18425 16.0769 2.17918 16.0769C1.28873 16.0769 0.496581 15.5325 0.160793 14.6899C-0.175361 13.8463 0.0252349 12.9054 0.671966 12.293L0.681194 12.2844C1.39834 11.6012 1.81066 10.643 1.81407 9.65185L1.81396 9.6393V7.83941V7.83938V7.83935C1.81396 7.61135 1.82456 7.38335 1.84575 7.16193C2.16355 3.80374 4.91175 1.12871 8.19189 0.771718ZM2.16836 14.6153C2.17207 14.6153 2.17578 14.6152 2.1795 14.6152H5.99932H11.8455H15.6655C15.6682 14.6152 15.6708 14.6152 15.6735 14.6153C16.1085 14.6109 16.2835 14.2558 16.3271 14.1465C16.3699 14.0388 16.4846 13.6675 16.1809 13.3667L16.1674 13.3543C15.1516 12.3926 14.5688 11.0385 14.5688 9.63946C14.5688 9.63044 14.569 9.62146 14.5693 9.61252V7.85484L14.5692 7.83935C14.5692 4.86951 12.1576 2.33885 9.19364 2.19855C6.22598 2.06153 3.58023 4.34701 3.30071 7.29968C3.28391 7.47616 3.2755 7.65739 3.2755 7.83935L3.2755 7.83941V9.62572L3.27563 9.63946C3.27563 11.0344 2.69687 12.384 1.68762 13.3443L1.67714 13.3544C1.35706 13.6577 1.47472 14.0395 1.51856 14.1492C1.56169 14.2571 1.73563 14.6095 2.16836 14.6153ZM10.9843 16.0768H6.86047C7.16909 16.9186 7.98892 17.5383 8.9224 17.5383C9.85588 17.5383 10.6757 16.9186 10.9843 16.0768Z" fill="url(#paint0_linear_571_475)"/>
<defs>
<linearGradient id="paint0_linear_571_475" x1="8.9225" y1="0" x2="8.9225" y2="18.9999" gradientUnits="userSpaceOnUse">
<stop stop-color="#0B8140"/>
<stop offset="1" stop-color="#0A5129"/>
</linearGradient>
</defs>
</svg>
