<svg width="21" height="19" viewBox="0 0 21 19" fill="none"
  xmlns="http://www.w3.org/2000/svg">
  <path d="M18.0768 0.00584173L18.0752 0.0060664L13.7878 0.00584173C12.5386 0.00561705 11.395 0.476775 10.5598 1.2562C10.3947 1.40965 10.2518 1.58536 10.112 1.76308C9.97116 1.58356 9.82669 1.40673 9.65997 1.2517C8.82483 0.472281 7.68165 0 6.43332 0H2.14459L2.14144 0.000449331C0.958493 0.0020221 0.000449364 0.960515 0 2.14436L0.00179743 2.15335V14.5533L0 14.5621C0.000449364 15.7405 0.950629 16.6943 2.12729 16.7044L2.14639 16.7082L7.66075 16.708C8.10225 16.708 8.4914 16.8747 8.76529 17.1295C9.03671 17.3852 9.18702 17.7085 9.19061 18.0725V18.075C9.19061 18.2024 9.2169 18.3237 9.26364 18.434C9.40204 18.7661 9.72895 19 10.1114 19C10.6189 19 11.0305 18.5884 11.0305 18.0808C11.0319 17.7092 11.1833 17.3848 11.4543 17.1286C11.7257 16.8752 12.1124 16.7082 12.5624 16.708H18.0768L18.0934 16.7047C19.2618 16.6936 20.2045 15.752 20.2171 14.5841L20.2214 14.5639V2.15043C20.2209 0.965458 19.2613 0.0062911 18.0768 0.00584173ZM7.66075 14.8701H2.152L2.14459 14.8685C1.9772 14.8679 1.84217 14.7322 1.8397 14.5655L1.84014 14.5637V2.15043L1.8388 2.14347C1.83992 1.97473 1.97608 1.8388 2.14436 1.8379H2.14481L6.43377 1.83767C7.21566 1.83767 7.9106 2.13335 8.40625 2.59553C8.90167 3.06084 9.19016 3.67265 9.19106 4.34984V15.2348C8.72665 15.0085 8.21033 14.8701 7.66075 14.8701ZM11.029 15.2341V4.3649L11.0308 4.35591C11.0319 3.6749 11.3199 3.06399 11.814 2.60002C12.3085 2.13875 13.0028 1.84396 13.7881 1.84374H18.0757L18.0772 1.84396V1.84374C18.2462 1.84441 18.3832 1.98102 18.3837 2.15043V14.5533L18.3819 14.5621C18.3815 14.7306 18.2442 14.8679 18.0754 14.8685L18.0651 14.8706L12.5629 14.8703C12.011 14.8699 11.4936 15.0079 11.029 15.2341Z" fill="#003FBC"/>
</svg>
  