<svg width="19" height="18" viewBox="0 0 19 18" fill="none" xmlns="http://www.w3.org/2000/svg">
<path fill-rule="evenodd" clip-rule="evenodd" d="M5.27778 0C5.60165 0 5.8642 0.275989 5.8642 0.616438V1.23288H13.1358V0.616438C13.1358 0.275989 13.3984 0 13.7222 0C14.0461 0 14.3086 0.275989 14.3086 0.616438V1.23288H16.3025C17.7923 1.23288 19 2.50242 19 4.06849V15.1644C19 16.7305 17.7923 18 16.3025 18H2.69753C1.20772 18 0 16.7305 0 15.1644V4.06849C0 2.50242 1.20772 1.23288 2.69753 1.23288H4.69136V0.616438C4.69136 0.275989 4.95391 0 5.27778 0ZM13.1358 2.46575V3.08219C13.1358 3.42264 13.3984 3.69863 13.7222 3.69863C14.0461 3.69863 14.3086 3.42264 14.3086 3.08219V2.46575H16.3025C17.1445 2.46575 17.8272 3.18334 17.8272 4.06849V4.93151H1.17284V4.06849C1.17284 3.18331 1.85546 2.46575 2.69753 2.46575H4.69136V3.08219C4.69136 3.42264 4.95391 3.69863 5.27778 3.69863C5.60165 3.69863 5.8642 3.42264 5.8642 3.08219V2.46575H13.1358ZM1.17284 6.16438V15.1644C1.17284 16.0495 1.85548 16.7671 2.69753 16.7671H16.3025C17.1445 16.7671 17.8272 16.0496 17.8272 15.1644V6.16438H1.17284Z" fill="#6E81B6"/>
</svg>
