<svg width="19" height="16" viewBox="0 0 19 16" fill="none" xmlns="http://www.w3.org/2000/svg">
<path d="M12.5509 9.00775C12.5509 10.6957 11.1778 12.0687 9.48993 12.0687C7.80203 12.0687 6.42946 10.6957 6.42946 9.00775C6.42946 7.31985 7.80203 5.94675 9.48993 5.94675C11.1778 5.94675 12.5509 7.32037 12.5509 9.00775ZM18.9799 4.66128V13.3553C18.9799 14.5143 18.0402 15.454 16.8811 15.454H2.09873C0.939706 15.454 0 14.5143 0 13.3553V4.66128C0 3.50226 0.939706 2.56255 2.09873 2.56255H4.68017V1.83639C4.68017 0.822178 5.50182 0 6.51656 0H12.4633C13.478 0 14.2997 0.822178 14.2997 1.83639V2.56202H16.8811C18.0402 2.56255 18.9799 3.50226 18.9799 4.66128ZM14.125 9.00775C14.125 6.45202 12.0457 4.3727 9.48993 4.3727C6.93473 4.3727 4.85541 6.45202 4.85541 9.00775C4.85541 11.5635 6.93473 13.6428 9.48993 13.6428C12.0457 13.6428 14.125 11.5635 14.125 9.00775Z" fill="white"/>
</svg>
