<svg width="56" height="53" viewBox="0 0 56 53" fill="none" xmlns="http://www.w3.org/2000/svg">
<path fill-rule="evenodd" clip-rule="evenodd" d="M47.3216 17.6035C47.4919 17.6035 47.6621 17.6374 47.8194 17.7026C47.9767 17.7677 48.121 17.8642 48.2415 17.9846C48.3619 18.105 48.4583 18.2493 48.5235 18.4066C48.5887 18.564 48.6226 18.7342 48.6226 18.9044V25.998C48.6226 26.1683 48.5887 26.3385 48.5235 26.4958C48.4583 26.6532 48.3619 26.7974 48.2415 26.9179C48.121 27.0383 47.9767 27.1347 47.8194 27.1999C47.6621 27.265 47.4919 27.2989 47.3216 27.299H30.1672C29.9969 27.299 29.8267 27.2652 29.6694 27.1999C29.5121 27.1347 29.3678 27.0383 29.2473 26.9179C29.1269 26.7974 29.0305 26.6532 28.9653 26.4958C28.9001 26.3385 28.8662 26.1683 28.8662 25.998V18.9044C28.8662 18.7342 28.9001 18.564 28.9653 18.4066C29.0305 18.2493 29.1269 18.105 29.2473 17.9846C29.3678 17.8642 29.5121 17.7677 29.6694 17.7026C29.8267 17.6374 29.9969 17.6035 30.1672 17.6035H47.3216ZM46.0204 20.2054H31.4684V24.697H46.0204V20.2054Z" fill="black"/>
<path fill-rule="evenodd" clip-rule="evenodd" d="M47.4983 29.4924C47.6705 29.4924 47.8433 29.521 48.0033 29.5846C48.1633 29.6484 48.3105 29.7444 48.4334 29.8651C48.5563 29.9858 48.6549 30.1312 48.7215 30.29C48.7881 30.4489 48.8228 30.6211 48.8228 30.7934C48.8228 30.9656 48.7881 31.1378 48.7215 31.2967C48.6549 31.4556 48.5563 31.6009 48.4334 31.7217C48.3105 31.8424 48.1633 31.9383 48.0033 32.0021C47.8433 32.0658 47.6705 32.0975 47.4983 32.0943H29.9885C29.8163 32.0943 29.6435 32.0657 29.4835 32.0021C29.3235 31.9383 29.1763 31.8424 29.0534 31.7217C28.9305 31.6009 28.832 31.4556 28.7654 31.2967C28.6987 31.1378 28.6641 30.9656 28.6641 30.7934C28.6641 30.6211 28.6987 30.4489 28.7654 30.29C28.832 30.1312 28.9305 29.9858 29.0534 29.8651C29.1763 29.7444 29.3235 29.6484 29.4835 29.5846C29.6435 29.5209 29.8163 29.4893 29.9885 29.4924H47.4983Z" fill="black"/>
<path fill-rule="evenodd" clip-rule="evenodd" d="M47.4993 34.9024C47.671 34.9024 47.843 34.9324 48.0022 34.9967C48.1615 35.0611 48.3078 35.157 48.4299 35.2776C48.5521 35.3983 48.6501 35.5434 48.7163 35.7018C48.7825 35.8603 48.8169 36.0319 48.8169 36.2036C48.8169 36.3753 48.7825 36.5469 48.7163 36.7054C48.6501 36.8638 48.5521 37.0089 48.4299 37.1295C48.3078 37.2501 48.1615 37.3462 48.0022 37.4104C47.843 37.4748 47.671 37.5069 47.4993 37.5047H29.9895C29.8178 37.5047 29.6458 37.4747 29.4866 37.4104C29.3273 37.346 29.181 37.2501 29.0589 37.1295C28.9367 37.0089 28.8387 36.8638 28.7725 36.7054C28.7063 36.5469 28.6719 36.3753 28.6719 36.2036C28.6719 36.0319 28.7063 35.8603 28.7725 35.7018C28.8387 35.5434 28.9367 35.3983 29.0589 35.2776C29.181 35.157 29.3273 35.0609 29.4866 34.9967C29.6458 34.9323 29.8178 34.9003 29.9895 34.9024H47.4993Z" fill="black"/>
<path fill-rule="evenodd" clip-rule="evenodd" d="M40.7984 0C40.9687 0 41.1389 0.0338848 41.2963 0.0990745C41.4536 0.164199 41.598 0.260624 41.7184 0.38105C41.8388 0.501475 41.9353 0.645779 42.0005 0.803159C42.0657 0.960473 42.0996 1.13073 42.0996 1.30099V5.89956H46.0699C46.2402 5.89956 46.4104 5.93344 46.5678 5.99863C46.7251 6.06382 46.8694 6.16022 46.9898 6.28065C47.1102 6.40114 47.2066 6.54546 47.2718 6.70284C47.337 6.86015 47.3709 7.03042 47.3709 7.20075V11.9263H54.6502C54.8205 11.9263 54.9908 11.9602 55.1481 12.0253C55.3054 12.0905 55.4497 12.187 55.5701 12.3074C55.6905 12.4278 55.787 12.5721 55.8522 12.7294C55.9173 12.8867 55.9512 13.0569 55.9512 13.2273V50.8352C55.9512 51.0055 55.9174 51.1757 55.8522 51.3331C55.787 51.4904 55.6906 51.6348 55.5702 51.7552C55.4498 51.8756 55.3055 51.9721 55.1481 52.0373C54.9908 52.1025 54.8206 52.1364 54.6502 52.1364H22.8375C22.5592 52.1364 22.2817 52.0437 22.0588 51.8769C21.8359 51.7101 21.6691 51.4698 21.5904 51.2028H9.94494C9.77462 51.2028 9.60442 51.1689 9.44704 51.1037C9.28973 51.0385 9.14536 50.9421 9.02493 50.8217C8.90451 50.7013 8.80803 50.557 8.74284 50.3997C8.67765 50.2423 8.64375 50.0721 8.64375 49.9018V49.2912H1.301C1.13074 49.2912 0.960475 49.2575 0.803161 49.1922C0.645846 49.127 0.501544 49.0306 0.381119 48.9102C0.260694 48.7898 0.164275 48.6454 0.0990857 48.4881C0.033896 48.3308 0 48.1606 0 47.9903V1.30099C0 1.13073 0.033896 0.960473 0.0990857 0.803159C0.164275 0.645845 0.260694 0.501554 0.381119 0.381129C0.501544 0.260704 0.645846 0.164264 0.803161 0.0990745C0.960475 0.0339499 1.13074 6.50596e-05 1.301 0H40.7984ZM39.4975 2.60199H2.60219V46.6893H8.64375V7.20071C8.64375 7.03038 8.67765 6.86014 8.74277 6.70276C8.80796 6.54538 8.90445 6.40106 9.02487 6.28057C9.1453 6.16014 9.28966 6.06374 9.44698 5.99855C9.60436 5.93336 9.77462 5.89952 9.94494 5.89952H39.4975V2.60199ZM44.7689 8.50166H11.2459V48.6006H21.5365V13.2273C21.5365 13.0569 21.5704 12.8867 21.6356 12.7294C21.7008 12.5721 21.7972 12.4278 21.9177 12.3074C22.0381 12.187 22.1824 12.0905 22.3397 12.0253C22.497 11.9602 22.6673 11.9263 22.8375 11.9263H44.7689V8.50166ZM53.3491 14.5285H24.1387V49.5342H53.3491V14.5285Z" fill="black"/>
</svg>
