<svg width="7" height="13" viewBox="0 0 7 13" fill="none" xmlns="http://www.w3.org/2000/svg">
<path d="M6.89194 6.12849C6.88703 5.91833 6.80432 5.71747 6.65983 5.56478L1.56648 0.259225C1.40976 0.0973135 1.19524 0.00414293 0.969938 0.000134605C0.744638 -0.00387372 0.526946 0.0816072 0.364566 0.237841C0.202186 0.394075 0.108362 0.608316 0.103679 0.833603C0.0989961 1.05889 0.183832 1.27684 0.33958 1.43969L4.8692 6.15502L0.339579 10.8703C0.183832 11.0332 0.0989957 11.2511 0.103679 11.4764C0.108361 11.7017 0.202186 11.916 0.364565 12.0722C0.526945 12.2284 0.744638 12.3139 0.969938 12.3099C1.19524 12.3059 1.40976 12.2127 1.56648 12.0508L6.65983 6.74525C6.73767 6.66311 6.79831 6.56623 6.83818 6.46031C6.87804 6.35439 6.89631 6.24157 6.89194 6.12849Z" fill="#6E81B6"/>
</svg>
