<svg width="18" height="18" viewBox="0 0 18 18" fill="none" xmlns="http://www.w3.org/2000/svg">
<path d="M9.00002 0C4.03916 0 0 4.03916 0 9.00004C0 13.9609 4.03913 18.0001 9.00002 18.0001C13.9609 18.0001 18 13.9609 18 9.00004C18 4.03916 13.9609 0 9.00002 0ZM9.00002 1.63637C13.0765 1.63637 16.3637 4.92353 16.3637 9.00004C16.3637 13.0765 13.0765 16.3637 9.00002 16.3637C4.9235 16.3637 1.63637 13.0765 1.63637 9.00004C1.63637 4.92353 4.9235 1.63637 9.00002 1.63637ZM9.00002 3.00001C8.54817 3.00001 8.18184 3.36634 8.18184 3.81819V9.00004C8.18184 9.22597 8.27241 9.43153 8.42048 9.57957L11.7017 12.8608C12.0212 13.1804 12.5413 13.1804 12.8608 12.8608C13.1803 12.5413 13.1803 12.0212 12.8608 11.7017L9.81821 8.65913V3.81819C9.81821 3.36634 9.45191 3.00001 9.00002 3.00001Z" fill="#6E81B6"/>
</svg>
