<svg width="19" height="19" viewBox="0 0 19 19" fill="none" xmlns="http://www.w3.org/2000/svg">
<mask id="mask0_1680_46" style="mask-type:luminance" maskUnits="userSpaceOnUse" x="0" y="0" width="19" height="19">
<path d="M18.6218 0.99707H0.876465V18.7424H18.6218V0.99707Z" fill="white"/>
<path d="M10.6153 9.86888C10.6153 10.3474 10.2273 10.7354 9.74879 10.7354C9.27026 10.7354 8.88232 10.3474 8.88232 9.86888C8.88232 9.39035 9.27026 9.00241 9.74879 9.00241C10.2273 9.00241 10.6153 9.39035 10.6153 9.86888Z" fill="white"/>
<path d="M14.0811 9.86888C14.0811 10.3474 13.6931 10.7354 13.2146 10.7354C12.7361 10.7354 12.3481 10.3474 12.3481 9.86888C12.3481 9.39035 12.7361 9.00241 13.2146 9.00241C13.6931 9.00241 14.0811 9.39035 14.0811 9.86888Z" fill="white"/>
<path d="M7.14944 9.86888C7.14944 10.3474 6.76151 10.7354 6.28297 10.7354C5.80444 10.7354 5.4165 10.3474 5.4165 9.86888C5.4165 9.39035 5.80444 9.00241 6.28297 9.00241C6.76151 9.00241 7.14944 9.39035 7.14944 9.86888Z" fill="white"/>
</mask>
<g mask="url(#mask0_1680_46)">
<mask id="mask1_1680_46" style="mask-type:luminance" maskUnits="userSpaceOnUse" x="0" y="0" width="19" height="19">
<path d="M0.876465 0.996885H18.6218V18.7422H0.876465V0.996885Z" fill="white"/>
</mask>
<g mask="url(#mask1_1680_46)">
<path d="M9.7493 1.69085C5.23191 1.69085 1.56982 5.35294 1.56982 9.87033C1.56982 11.4606 2.02417 12.9446 2.80943 14.2005L1.56982 18.0498L5.41913 16.8102C6.675 17.5955 8.15898 18.0498 9.7493 18.0498C14.2667 18.0498 17.9288 14.3877 17.9288 9.87033C17.9288 5.35294 14.2667 1.69085 9.7493 1.69085Z" stroke="#4272B8" stroke-width="1.3" stroke-miterlimit="10" stroke-linecap="round" stroke-linejoin="round"/>
<path d="M10.6153 9.86986C10.6153 10.3484 10.2273 10.7363 9.74879 10.7363C9.27026 10.7363 8.88232 10.3484 8.88232 9.86986C8.88232 9.39132 9.27026 9.00339 9.74879 9.00339C10.2273 9.00339 10.6153 9.39132 10.6153 9.86986Z" fill="#4272B8"/>
<path d="M14.0816 9.86986C14.0816 10.3484 13.6936 10.7363 13.2151 10.7363C12.7366 10.7363 12.3486 10.3484 12.3486 9.86986C12.3486 9.39132 12.7366 9.00339 13.2151 9.00339C13.6936 9.00339 14.0816 9.39132 14.0816 9.86986Z" fill="#4272B8"/>
<path d="M7.14944 9.86986C7.14944 10.3484 6.76151 10.7363 6.28297 10.7363C5.80444 10.7363 5.4165 10.3484 5.4165 9.86986C5.4165 9.39132 5.80444 9.00339 6.28297 9.00339C6.76151 9.00339 7.14944 9.39132 7.14944 9.86986Z" fill="#4272B8"/>
</g>
</g>
</svg>
