<svg width="41" height="39" viewBox="0 0 41 39" fill="none" xmlns="http://www.w3.org/2000/svg">
<path d="M31.2775 4.29159C31.2775 3.01235 30.2349 1.96338 28.9493 1.96338C27.6701 1.96338 26.6211 3.00596 26.6211 4.29159C26.6211 5.57083 27.6637 6.6198 28.9493 6.6198C30.2349 6.6198 31.2775 5.57722 31.2775 4.29159ZM27.8684 4.29159C27.8684 3.69035 28.3545 3.20424 28.9557 3.20424C29.5569 3.20424 30.0431 3.69035 30.0431 4.29159C30.0431 4.89283 29.5569 5.37894 28.9557 5.37894C28.3545 5.37894 27.8684 4.89283 27.8684 4.29159Z" fill="#020842"/>
<path d="M36.8228 16.9947C36.1704 14.5065 34.9424 12.1655 33.241 10.2147C32.6141 9.48554 31.917 8.81394 31.175 8.2127C32.1344 6.95905 33.1194 5.39838 33.1194 4.21509C33.1194 1.89327 31.2518 0 28.9555 0C26.6593 0 24.7916 1.89327 24.7916 4.21509C24.7916 4.45814 24.8364 4.71399 24.9131 4.98263C23.5444 4.61165 22.1308 4.41337 20.7045 4.39418C20.6213 4.39418 20.5445 4.38778 20.4678 4.38778C20.4358 4.38778 20.4038 4.39418 20.3718 4.39418C15.5044 4.41976 10.8863 6.5433 7.69461 10.2211C5.96764 12.1975 4.72678 14.5705 4.08716 17.1034C1.82931 17.1354 0 19.0095 0 21.3057C0 23.4804 3.33881 26.9727 3.72258 27.3629C3.83771 27.4844 3.99762 27.5484 4.16392 27.5484C4.33022 27.5484 4.49012 27.478 4.61165 27.3629C4.61805 27.3565 4.63723 27.3373 4.65003 27.3245C5.36 29.1858 6.377 30.8936 7.69461 32.4031C10.9055 36.1065 15.5619 38.23 20.4678 38.23C25.3737 38.23 30.0301 36.1065 33.2346 32.4031C34.5778 30.868 35.6076 29.141 36.3111 27.2541C36.3111 27.2541 36.3175 27.2605 36.3239 27.2669C36.4391 27.3885 36.599 27.4524 36.7717 27.4524C36.938 27.4524 37.0979 27.3821 37.2194 27.2669C37.6032 26.8768 40.942 23.3845 40.942 21.2097C40.9356 18.9007 39.0999 17.0266 36.8228 16.9947ZM17.0906 5.99962C15.741 7.36841 14.6153 9.5495 13.8413 12.2679C12.2295 11.8202 10.6624 11.2061 9.17213 10.445C11.3276 8.19991 14.0908 6.65843 17.0906 5.99962ZM8.32783 11.4044C9.98445 12.2807 11.7242 12.9715 13.5279 13.4704C13.0162 15.6323 12.7156 18.0756 12.6708 20.6917H8.27666C8.04 19.0542 6.86311 17.7174 5.32163 17.2633C5.89089 15.127 6.92067 13.125 8.32783 11.4044ZM4.16392 26.0261C2.88468 24.6189 1.24086 22.4314 1.24086 21.3057C1.24086 19.6683 2.55208 18.3315 4.16392 18.3315C5.77576 18.3315 7.08697 19.6683 7.08697 21.3057C7.09337 22.4314 5.44315 24.6189 4.16392 26.0261ZM5.59666 26.2819C6.56249 25.1498 7.91208 23.3781 8.24468 21.9325H12.6708C12.7156 24.5486 13.0162 26.9919 13.5215 29.1538C11.7178 29.6527 9.97165 30.3435 8.31504 31.2198C7.11256 29.7423 6.1979 28.0856 5.59666 26.2819ZM9.17213 32.1728C10.6624 31.4053 12.2295 30.7976 13.8413 30.3499C14.6217 33.0747 15.7474 35.2558 17.097 36.6246C14.0908 35.9657 11.3276 34.4243 9.17213 32.1728ZM19.8474 36.9124C17.8837 36.4455 16.1376 33.8102 15.0566 30.0429C16.6237 29.6911 18.2291 29.4928 19.8474 29.4544V36.9124ZM19.8474 28.2136C18.1268 28.2519 16.419 28.4694 14.7432 28.8468C14.2507 26.768 13.9565 24.4142 13.9117 21.9325H19.8474V28.2136ZM19.8474 20.6917H13.9117C13.9565 18.2099 14.2507 15.8497 14.7432 13.771C16.4126 14.1484 18.1268 14.3594 19.8474 14.4042V20.6917ZM19.8474 13.1633C18.2291 13.125 16.6301 12.9203 15.0566 12.5749C16.1376 8.81394 17.8837 6.17232 19.8474 5.7054V13.1633ZM32.6077 11.4044C33.9957 13.0994 35.0127 15.0694 35.5884 17.1738C34.0213 17.6407 32.8444 19.0159 32.6397 20.6981H28.2647C28.2264 18.082 27.9193 15.6387 27.4077 13.4768C29.2114 12.9715 30.9511 12.2807 32.6077 11.4044ZM28.9555 1.24086C30.5674 1.24086 31.8786 2.57766 31.8786 4.21509C31.8786 5.09136 30.8872 6.60086 29.8446 7.89289C29.8318 7.90568 29.8126 7.91848 29.7998 7.93127C29.7934 7.94406 29.787 7.95685 29.7806 7.96965C29.4992 8.31504 29.2178 8.64125 28.9491 8.93547C27.6699 7.52831 26.0261 5.34081 26.0261 4.21509C26.0325 2.57766 27.3437 1.24086 28.9555 1.24086ZM25.5656 6.48573C26.5762 8.25747 28.252 10.01 28.5142 10.2787C28.6293 10.4002 28.7892 10.4642 28.9619 10.4642C29.1282 10.4642 29.2881 10.3938 29.4033 10.2787C29.5184 10.1571 29.915 9.74779 30.4011 9.17852C30.8808 9.56869 31.3413 9.99084 31.7698 10.4386C30.2795 11.2061 28.7125 11.8202 27.1006 12.2679C26.3267 9.5623 25.2074 7.38759 23.8642 6.01241C24.4334 6.14034 25.0027 6.29385 25.5656 6.48573ZM21.0882 5.699C23.0519 6.16592 24.798 8.80115 25.879 12.5685C24.3119 12.9203 22.7065 13.1186 21.0882 13.157V5.699ZM21.0882 14.4042C22.8088 14.3658 24.5166 14.1484 26.1924 13.771C26.6849 15.8497 26.9791 18.2099 27.0239 20.6917H21.0882V14.4042ZM21.0882 21.9325H27.0239C26.9791 24.4142 26.6849 26.768 26.1924 28.8468C24.523 28.4694 22.8088 28.2583 21.0882 28.2136V21.9325ZM21.0882 36.9124V29.4544C22.7065 29.4928 24.3055 29.6975 25.879 30.0429C24.798 33.8102 23.0519 36.4519 21.0882 36.9124ZM23.8386 36.6246C25.1882 35.2558 26.3203 33.0683 27.0942 30.3499C28.7061 30.7976 30.2731 31.4117 31.7698 32.1792C29.6079 34.4243 26.8448 35.9657 23.8386 36.6246ZM32.6142 31.2198C30.9575 30.3435 29.2114 29.6527 27.4077 29.1538C27.9193 26.9919 28.22 24.5486 28.2647 21.9325H32.7165C33.0939 23.3717 34.4179 25.1114 35.3709 26.2116C34.7633 28.0409 33.8422 29.7231 32.6142 31.2198ZM36.7717 25.9301C35.4924 24.523 33.8486 22.3355 33.8486 21.2097C33.8486 19.5723 35.1598 18.2355 36.7717 18.2355C38.3835 18.2355 39.6947 19.5723 39.6947 21.2097C39.6947 22.3355 38.0509 24.523 36.7717 25.9301Z" fill="#020842"/>
<path d="M36.7716 18.9585C35.4923 18.9585 34.4434 20.0011 34.4434 21.2867C34.4434 22.5659 35.4859 23.6149 36.7716 23.6149C38.0508 23.6149 39.0998 22.5723 39.0998 21.2867C39.0934 20.0011 38.0508 18.9585 36.7716 18.9585ZM36.7716 22.3677C36.1703 22.3677 35.6842 21.8816 35.6842 21.2803C35.6842 20.6791 36.1703 20.193 36.7716 20.193C37.3728 20.193 37.8589 20.6791 37.8589 21.2803C37.8525 21.8816 37.3664 22.3677 36.7716 22.3677Z" fill="#020842"/>
<path d="M4.16317 19.0605C2.88394 19.0605 1.83496 20.1031 1.83496 21.3888C1.83496 22.668 2.87754 23.717 4.16317 23.717C5.44241 23.717 6.49138 22.6744 6.49138 21.3888C6.49138 20.1031 5.44881 19.0605 4.16317 19.0605ZM4.16317 22.4697C3.56193 22.4697 3.07582 21.9836 3.07582 21.3824C3.07582 20.7811 3.56193 20.295 4.16317 20.295C4.76441 20.295 5.25052 20.7811 5.25052 21.3824C5.25052 21.9836 4.76441 22.4697 4.16317 22.4697Z" fill="#020842"/>
</svg>
