<svg width="35" height="33" viewBox="0 0 35 33" fill="none" xmlns="http://www.w3.org/2000/svg">
<path fill-rule="evenodd" clip-rule="evenodd" d="M29.1687 10.8511C29.2736 10.8511 29.3786 10.872 29.4756 10.9121C29.5725 10.9523 29.6615 11.0118 29.7357 11.0859C29.8099 11.1602 29.8694 11.2491 29.9095 11.3461C29.9497 11.4431 29.9706 11.548 29.9706 11.6529V16.0254C29.9706 16.1303 29.9497 16.2353 29.9095 16.3322C29.8694 16.4292 29.8099 16.5181 29.7357 16.5924C29.6615 16.6666 29.5725 16.726 29.4756 16.7662C29.3786 16.8064 29.2736 16.8272 29.1687 16.8273H18.5949C18.4899 16.8273 18.385 16.8064 18.288 16.7662C18.1911 16.726 18.1021 16.6666 18.0279 16.5924C17.9537 16.5181 17.8942 16.4292 17.854 16.3322C17.8139 16.2353 17.793 16.1303 17.793 16.0254V11.6529C17.793 11.548 17.8139 11.4431 17.854 11.3461C17.8942 11.2491 17.9537 11.1602 18.0279 11.0859C18.1021 11.0118 18.1911 10.9523 18.288 10.9121C18.385 10.872 18.4899 10.8511 18.5949 10.8511H29.1687ZM28.3667 12.4549H19.3969V15.2234H28.3667V12.4549Z" fill="#020842"/>
<path fill-rule="evenodd" clip-rule="evenodd" d="M29.2772 18.1784C29.3834 18.1784 29.4899 18.196 29.5885 18.2352C29.6871 18.2745 29.7778 18.3337 29.8536 18.4081C29.9294 18.4825 29.9901 18.5721 30.0312 18.67C30.0722 18.7679 30.0936 18.8741 30.0936 18.9803C30.0936 19.0864 30.0722 19.1926 30.0312 19.2905C29.9901 19.3884 29.9294 19.478 29.8536 19.5525C29.7778 19.6268 29.6871 19.686 29.5885 19.7253C29.4899 19.7646 29.3834 19.7841 29.2772 19.7822H18.4844C18.3782 19.7822 18.2717 19.7645 18.1731 19.7253C18.0744 19.686 17.9837 19.6268 17.908 19.5525C17.8322 19.478 17.7715 19.3884 17.7304 19.2905C17.6893 19.1926 17.668 19.0864 17.668 18.9803C17.668 18.8741 17.6893 18.7679 17.7304 18.67C17.7715 18.5721 17.8322 18.4825 17.908 18.4081C17.9837 18.3337 18.0744 18.2745 18.1731 18.2352C18.2717 18.1959 18.3782 18.1764 18.4844 18.1784H29.2772Z" fill="#020842"/>
<path fill-rule="evenodd" clip-rule="evenodd" d="M29.2779 21.5137C29.3837 21.5137 29.4897 21.5322 29.5879 21.5718C29.6861 21.6115 29.7763 21.6706 29.8515 21.745C29.9269 21.8194 29.9873 21.9088 30.028 22.0065C30.0689 22.1041 30.0901 22.2099 30.0901 22.3158C30.0901 22.4216 30.0689 22.5274 30.028 22.625C29.9873 22.7227 29.9269 22.8121 29.8515 22.8865C29.7763 22.9608 29.6861 23.02 29.5879 23.0596C29.4897 23.0993 29.3837 23.1191 29.2779 23.1177H18.485C18.3792 23.1177 18.2732 23.0993 18.175 23.0596C18.0768 23.0199 17.9867 22.9608 17.9114 22.8865C17.8361 22.8121 17.7757 22.7227 17.7349 22.625C17.6941 22.5274 17.6729 22.4216 17.6729 22.3158C17.6729 22.2099 17.6941 22.1041 17.7349 22.0065C17.7757 21.9088 17.8361 21.8194 17.9114 21.745C17.9867 21.6706 18.0768 21.6114 18.175 21.5718C18.2732 21.5321 18.3792 21.5124 18.485 21.5137H29.2779Z" fill="#020842"/>
<path fill-rule="evenodd" clip-rule="evenodd" d="M25.1478 0C25.2528 0 25.3577 0.0208863 25.4547 0.0610686C25.5516 0.101211 25.6406 0.160646 25.7149 0.234876C25.7891 0.309105 25.8486 0.398053 25.8887 0.49506C25.9289 0.592027 25.9498 0.696973 25.9498 0.80192V3.63643H28.397C28.502 3.63643 28.6069 3.65732 28.7039 3.6975C28.8009 3.73769 28.8899 3.7971 28.9641 3.87133C29.0383 3.9456 29.0978 4.03456 29.1379 4.13157C29.1781 4.22853 29.199 4.33349 29.199 4.43848V7.35124H33.6859C33.7909 7.35124 33.8958 7.37213 33.9928 7.41231C34.0897 7.45249 34.1787 7.51194 34.2529 7.58617C34.3271 7.6604 34.3866 7.74934 34.4268 7.8463C34.4669 7.94327 34.4878 8.04818 34.4878 8.15316V31.3344C34.4878 31.4394 34.467 31.5442 34.4268 31.6413C34.3866 31.7382 34.3272 31.8272 34.253 31.9014C34.1787 31.9757 34.0898 32.0351 33.9928 32.0753C33.8958 32.1155 33.7909 32.1364 33.6859 32.1364H14.0769C13.9053 32.1364 13.7342 32.0793 13.5969 31.9764C13.4595 31.8736 13.3566 31.7255 13.3081 31.5609H6.12997C6.02499 31.5609 5.92008 31.5401 5.82307 31.4999C5.7261 31.4597 5.63712 31.4003 5.56289 31.326C5.48866 31.2518 5.42919 31.1629 5.38901 31.0659C5.34882 30.9689 5.32793 30.864 5.32793 30.759V30.3827H0.801923C0.696975 30.3827 0.592028 30.3619 0.495061 30.3216C0.398094 30.2815 0.309147 30.222 0.234918 30.1478C0.160689 30.0736 0.101258 29.9846 0.0610755 29.8876C0.0208932 29.7907 0 29.6857 0 29.5808V0.80192C0 0.696973 0.0208932 0.592027 0.0610755 0.49506C0.101258 0.398093 0.160689 0.309154 0.234918 0.234924C0.309147 0.160695 0.398094 0.101251 0.495061 0.0610686C0.592028 0.0209264 0.696975 4.01021e-05 0.801923 0H25.1478ZM24.3459 1.60384H1.60397V28.7788H5.32793V4.43845C5.32793 4.33347 5.34882 4.22853 5.38897 4.13152C5.42915 4.03451 5.48862 3.94555 5.56285 3.87129C5.63708 3.79706 5.72606 3.73764 5.82303 3.69745C5.92004 3.65727 6.02499 3.63641 6.12997 3.63641H24.3459V1.60384ZM27.5951 5.24035H6.9319V29.957H13.2749V8.15316C13.2749 8.04818 13.2958 7.94327 13.336 7.8463C13.3762 7.74934 13.4356 7.6604 13.5098 7.58617C13.5841 7.51194 13.673 7.45249 13.77 7.41231C13.867 7.37213 13.9719 7.35124 14.0769 7.35124H27.5951V5.24035ZM32.8839 8.95521H14.8789V30.5324H32.8839V8.95521Z" fill="#020842"/>
</svg>
