<svg width="51" height="51" viewBox="0 0 51 51" fill="none" xmlns="http://www.w3.org/2000/svg">
<path d="M47.6412 2.38122C43.4555 -1.80634 34.8154 -0.395452 25.0048 6.01977C15.1975 -0.393932 6.56081 -1.80304 2.37654 2.3822C-1.80205 6.57086 -0.395565 15.2108 6.00648 25.0184C-0.395565 34.8256 -1.80199 43.4656 2.37751 47.6551C7.78407 53.0617 18.5785 48.2161 25.0059 44.0135C31.4464 48.2245 42.2355 53.0624 47.6422 47.6542C51.8207 43.4655 50.4142 34.8256 44.0122 25.0184C50.4143 15.2108 51.8207 6.57079 47.6412 2.38122ZM46.2261 3.79431C49.3381 6.91424 48.2227 14.0259 43.5523 21.9653C42.2503 14.0377 35.99 7.77716 28.0626 6.47467C36.003 1.79705 43.1124 0.680168 46.2261 3.79431ZM3.79158 3.79528C6.90718 0.681878 14.012 1.79888 21.9486 6.47564C14.0245 7.78039 7.76753 14.0389 6.46522 21.9634C1.79579 14.0247 0.680735 6.91406 3.79158 3.79528ZM3.79255 46.2421C0.680785 43.1224 1.79542 36.0115 6.46528 28.0731C7.76783 35.9976 14.0244 42.2558 21.9481 43.5607C14.0114 48.2365 6.90547 49.3536 3.79255 46.2421ZM24.9836 41.8311C15.7238 41.8172 8.1944 34.2809 8.1944 25.0179C8.1944 15.7526 15.7275 8.2149 24.9905 8.20489C24.9985 8.20507 25.0063 8.20837 25.0142 8.20837C25.02 8.20837 25.0248 8.2052 25.0305 8.20507C34.2919 8.21691 41.8228 15.7538 41.8228 25.0179C41.8228 34.1973 34.3923 41.8227 24.9836 41.8311ZM46.2271 46.2411C43.1112 49.357 36.0024 48.2395 28.0624 43.5617C35.9899 42.2593 42.25 35.9989 43.5522 28.0711C48.223 36.0102 49.3383 43.122 46.2271 46.2411Z" fill="#020842"/>
<path d="M25.0049 12.0186C18.6514 12.0186 13.6748 14.8164 13.6748 18.3882V31.6484C13.6748 40.1989 36.335 39.977 36.335 31.6484C36.335 31.5441 36.334 18.3291 36.334 18.6637C36.6059 14.075 29.8328 12.0186 25.0049 12.0186ZM34.335 31.6484C34.335 37.1995 15.6748 37.6002 15.6748 31.6484V28.6699C20.113 32.2908 29.8785 32.3016 34.335 28.6769V31.6484ZM34.335 25.0662C34.2775 27.1213 30.4667 29.3896 25.0098 29.3896C19.5107 29.3896 15.6787 27.0864 15.6787 25.019C15.6787 25.0122 15.6749 25.0065 15.6748 24.9997V22.0537C20.1533 25.7039 29.9394 25.6266 34.335 22.0718V25.0662ZM25.0049 22.7686C19.5063 22.7686 15.6748 20.46 15.6748 18.3882C15.6748 16.3213 19.5063 14.0186 25.0049 14.0186C30.5088 14.0186 34.3447 16.3213 34.3447 18.3882C34.3447 21.472 28.1297 22.7686 25.0049 22.7686Z" fill="#020842"/>
<path d="M44.999 10.797C46.5881 9.20888 46.5946 6.62782 44.9961 5.03041C43.4098 3.45613 40.8285 3.42891 39.2251 5.03334C37.634 6.62349 37.6326 9.20558 39.2251 10.797C40.8065 12.3794 43.3862 12.3976 44.999 10.797ZM40.6392 6.4474C41.4521 5.63447 42.7713 5.64076 43.585 6.4474C44.386 7.24849 44.4014 8.56654 43.5879 9.38002C42.7949 10.1671 41.4238 10.1671 40.6392 9.38295C39.8296 8.57344 39.8288 7.25776 40.6392 6.4474Z" fill="#020842"/>
<path d="M5.01905 39.2387C3.42792 40.8288 3.42658 43.4114 5.01905 45.0028C6.60041 46.5852 9.18017 46.6034 10.793 45.0028C12.3821 43.4147 12.3885 40.8332 10.79 39.2357C9.18731 37.6471 6.61084 37.6479 5.01905 39.2387ZM9.38184 43.5858C8.58838 44.3715 7.21728 44.373 6.4331 43.5888C5.622 42.7776 5.62433 41.4615 6.4331 40.6527C8.34852 38.7397 11.3493 41.6184 9.38184 43.5858Z" fill="#020842"/>
<path d="M39.2251 39.2396C37.634 40.8298 37.6326 43.4119 39.2251 45.0033C40.8065 46.5857 43.3862 46.6039 44.999 45.0033C46.5881 43.4152 46.5946 40.8341 44.9961 39.2367C43.4478 37.7001 40.7617 37.701 39.2251 39.2396ZM43.585 40.6537C44.3861 41.4548 44.4014 42.7728 43.5879 43.5863C42.7949 44.3719 41.4229 44.3734 40.6392 43.5892C39.8297 42.7797 39.8288 41.4641 40.6392 40.6537C41.4521 39.8408 42.7713 39.847 43.585 40.6537Z" fill="#020842"/>
<path d="M10.7922 10.7975C12.3811 9.2081 12.3811 6.62217 10.7893 5.03037C9.20294 3.45603 6.62109 3.42905 5.01782 5.0333C3.42895 6.62217 3.42895 9.20811 5.01782 10.7975C6.58587 12.3645 9.16339 12.412 10.7922 10.7975ZM6.43188 6.44736C7.24475 5.63443 8.56439 5.6406 9.37817 6.44736C10.1873 7.25693 10.1873 8.57383 9.3811 9.38047C8.58911 10.1666 7.21606 10.1666 6.43188 9.3834C5.6228 8.57382 5.6228 7.25693 6.43188 6.44736Z" fill="#020842"/>
</svg>
