<svg width="15" height="19" viewBox="0 0 15 19" fill="none" xmlns="http://www.w3.org/2000/svg">
<path fill-rule="evenodd" clip-rule="evenodd" d="M13.8212 4.96907C13.8212 4.62228 13.5398 4.34082 13.193 4.34082H1.46565C1.11886 4.34082 0.837402 4.62228 0.837402 4.96907V16.2776C0.837402 16.9996 1.12388 17.6924 1.63486 18.2025C2.145 18.7135 2.83775 19 3.55982 19H11.0988C11.8209 19 12.5136 18.7135 13.0238 18.2025C13.5348 17.6924 13.8212 16.9996 13.8212 16.2776C13.8212 12.5081 13.8212 4.96907 13.8212 4.96907ZM12.5647 5.59732V16.2776C12.5647 16.6662 12.4106 17.039 12.135 17.3138C11.8603 17.5894 11.4875 17.7435 11.0988 17.7435C8.96947 17.7435 5.68917 17.7435 3.55982 17.7435C3.17114 17.7435 2.79838 17.5894 2.52363 17.3138C2.24803 17.039 2.0939 16.6662 2.0939 16.2776V5.59732H12.5647Z" fill="#FC2525"/>
<path fill-rule="evenodd" clip-rule="evenodd" d="M11.0994 5.5974C11.4462 5.5974 11.7276 5.31594 11.7276 4.96915C11.7276 4.96915 11.7276 4.13148 11.7276 3.29382C11.7276 2.68316 11.4847 2.09679 11.0533 1.66456C10.6211 1.23316 10.0347 0.990234 9.42404 0.990234C8.1776 0.990234 6.48216 0.990234 5.23571 0.990234C4.62505 0.990234 4.03869 1.23316 3.60645 1.66456C3.17505 2.09679 2.93213 2.68316 2.93213 3.29382V4.96915C2.93213 5.31594 3.21358 5.5974 3.56038 5.5974H11.0994ZM10.4711 4.3409H4.18863V3.29382C4.18863 3.01571 4.2992 2.75017 4.49521 2.55332C4.69207 2.35731 4.95761 2.24673 5.23571 2.24673H9.42404C9.70215 2.24673 9.96769 2.35731 10.1645 2.55332C10.3606 2.75017 10.4711 3.01571 10.4711 3.29382V4.3409Z" fill="#FC2525"/>
<path fill-rule="evenodd" clip-rule="evenodd" d="M14.0309 4.34082H0.62825C0.281456 4.34082 0 4.62228 0 4.96907C0 5.31586 0.281456 5.59732 0.62825 5.59732H14.0309C14.3777 5.59732 14.6592 5.31586 14.6592 4.96907C14.6592 4.62228 14.3777 4.34082 14.0309 4.34082Z" fill="#FC2525"/>
<path fill-rule="evenodd" clip-rule="evenodd" d="M4.60742 8.7386V14.6023C4.60742 14.9491 4.88888 15.2305 5.23567 15.2305C5.58247 15.2305 5.86392 14.9491 5.86392 14.6023V8.7386C5.86392 8.39181 5.58247 8.11035 5.23567 8.11035C4.88888 8.11035 4.60742 8.39181 4.60742 8.7386Z" fill="#FC2525"/>
<path fill-rule="evenodd" clip-rule="evenodd" d="M8.79541 8.7386V14.6023C8.79541 14.9491 9.07687 15.2305 9.42366 15.2305C9.77045 15.2305 10.0519 14.9491 10.0519 14.6023V8.7386C10.0519 8.39181 9.77045 8.11035 9.42366 8.11035C9.07687 8.11035 8.79541 8.39181 8.79541 8.7386Z" fill="#FC2525"/>
</svg>
