<svg width="17" height="18" viewBox="0 0 17 18" fill="none" xmlns="http://www.w3.org/2000/svg">
<path d="M1.18867 17.7435C1.01937 17.7431 0.852089 17.7066 0.697988 17.6365C0.543887 17.5663 0.4065 17.4642 0.294982 17.3368C0.183464 17.2094 0.100376 17.0597 0.0512534 16.8977C0.00213078 16.7357 -0.0118979 16.565 0.010102 16.3972L0.435779 13.1442C0.474676 12.8498 0.609347 12.5764 0.819022 12.3661L12.0342 1.15101C12.2791 0.906716 12.611 0.769531 12.957 0.769531C13.3029 0.769531 13.6348 0.906716 13.8798 1.15101L16.5923 3.86354C16.8366 4.10852 16.9738 4.44037 16.9738 4.78634C16.9738 5.13231 16.8366 5.46416 16.5923 5.70914L5.37715 16.9243C5.16692 17.134 4.89348 17.2687 4.59906 17.3075L1.34615 17.7332C1.29394 17.7401 1.24133 17.7435 1.18867 17.7435ZM2.06555 13.4638L1.73237 16.0109L4.27947 15.6777L15.1707 4.7865L12.9568 2.57258L2.06555 13.4638Z" fill="#0A7F3F"/>
<path d="M13.4877 8.47017C13.379 8.47049 13.2712 8.44934 13.1706 8.40792C13.07 8.36651 12.9786 8.30564 12.9016 8.22882L9.51408 4.84131C9.35862 4.68568 9.27136 4.47467 9.27148 4.2547C9.27161 4.03473 9.35911 3.82383 9.51474 3.66837C9.67037 3.51292 9.88137 3.42566 10.1013 3.42578C10.3213 3.42591 10.5322 3.51341 10.6877 3.66904L14.0739 7.05523C14.1898 7.17114 14.2688 7.31883 14.3008 7.47963C14.3328 7.64042 14.3163 7.80709 14.2536 7.95855C14.1909 8.11002 14.0846 8.23947 13.9483 8.33054C13.8119 8.42161 13.6517 8.4702 13.4877 8.47017Z" fill="#0A7F3F"/>
</svg>
