<svg width="19" height="14" viewBox="0 0 19 14" fill="none"
    xmlns="http://www.w3.org/2000/svg">
    <path d="M16.4286 0H1.97143C1.44857 0 0.947133 0.207704 0.577418 0.577418C0.207704 0.947133 0 1.44857 0 1.97143V11.1714C0 11.6943 0.207704 12.1957 0.577418 12.5654C0.947133 12.9352 1.44857 13.1429 1.97143 13.1429H16.4286C16.9514 13.1429 17.4529 12.9352 17.8226 12.5654C18.1923 12.1957 18.4 11.6943 18.4 11.1714V1.97143C18.4 1.44857 18.1923 0.947133 17.8226 0.577418C17.4529 0.207704 16.9514 0 16.4286 0ZM16.146 1.31429L9.48257 6.624C9.292 6.80143 9.108 6.80143 8.878 6.624L2.254 1.31429H16.146ZM16.4286 11.8286H1.97143C1.79714 11.8286 1.63 11.7593 1.50676 11.6361C1.38352 11.5129 1.31429 11.3457 1.31429 11.1714V2.24743L8.02371 7.59C8.34258 7.89952 8.76877 8.07376 9.21314 8.07629C9.63194 8.07452 10.0341 7.91224 10.3369 7.62286L17.0857 2.24743V11.1714C17.0857 11.3457 17.0165 11.5129 16.8932 11.6361C16.77 11.7593 16.6029 11.8286 16.4286 11.8286Z" fill="#FEBB24"/>
</svg>
    