<svg width="20" height="15" viewBox="0 0 20 15" fill="none" xmlns="http://www.w3.org/2000/svg">
<g id="Group 8">
<path id="Vector" d="M10.2248 13.6367C9.72354 13.6356 9.22339 13.5848 8.73058 13.4849C8.5777 13.4583 8.43853 13.3733 8.33799 13.2452C8.23745 13.117 8.18211 12.9541 8.18188 12.7856C8.18351 12.6817 8.20577 12.5794 8.24714 12.4857C8.2885 12.3921 8.348 12.3092 8.42154 12.2429C8.49508 12.1766 8.58092 12.1285 8.67318 12.1017C8.76545 12.0749 8.86194 12.0701 8.95605 12.0877C9.37441 12.1734 9.79912 12.2171 10.2248 12.2182C14.0852 12.2182 17.438 8.53934 18.4924 7.25348C17.7898 6.39752 17.0177 5.61227 16.1855 4.90728C16.1178 4.85023 16.0611 4.77923 16.0186 4.69833C15.9762 4.61743 15.9487 4.52822 15.9379 4.43579C15.9161 4.24911 15.9633 4.06064 16.0692 3.91185C16.175 3.76306 16.3309 3.66613 16.5024 3.64239C16.5873 3.63063 16.6736 3.6372 16.7561 3.66171C16.8387 3.68622 16.9161 3.7282 16.9838 3.78525C18.0447 4.67493 19.0101 5.69204 19.8615 6.81729C19.9513 6.94209 20.0001 7.09603 20.0001 7.25454C20.0001 7.41305 19.9513 7.56699 19.8615 7.69179C19.6862 7.93365 15.5189 13.6367 10.2248 13.6367Z" fill="white"/>
<path id="Vector_2" d="M17.0782 0.193472C16.9536 0.0695919 16.7847 0 16.6085 0C16.4324 0 16.2634 0.0695919 16.1388 0.193472L14.0262 2.2948C13.2263 1.91142 12.38 1.63246 11.5083 1.46484C10.9994 1.36967 10.4828 1.32167 9.96502 1.32145C4.56784 1.32145 0.319317 6.63489 0.141271 6.86089C0.0497363 6.97716 0 7.12059 0 7.26827C0 7.41595 0.0497363 7.55937 0.141271 7.67565C1.00841 8.72311 1.99168 9.66986 3.07238 10.4979C3.58361 10.8964 4.11922 11.263 4.67613 11.5955L2.85182 13.4094C2.78837 13.4703 2.73776 13.5432 2.70294 13.6238C2.66812 13.7045 2.64979 13.7912 2.64903 13.8789C2.64826 13.9667 2.66507 14.0537 2.69847 14.1349C2.73188 14.2161 2.78121 14.2899 2.84359 14.3519C2.90596 14.414 2.98014 14.463 3.06178 14.4962C3.14343 14.5295 3.23091 14.5462 3.31912 14.5454C3.40734 14.5447 3.49451 14.5264 3.57557 14.4918C3.65662 14.4572 3.72993 14.4068 3.79121 14.3437L17.0782 1.12783C17.2028 1.00392 17.2727 0.835872 17.2727 0.660653C17.2727 0.485434 17.2028 0.317389 17.0782 0.193472ZM3.88821 9.45516C3.03977 8.79813 2.25265 8.0663 1.53641 7.2686C2.61132 6.07124 6.02941 2.64304 9.96502 2.64304C10.4021 2.64338 10.8383 2.68409 11.2678 2.76462C11.8692 2.87843 12.4567 3.05564 13.0204 3.29326L11.7966 4.51044C11.1579 4.09066 10.393 3.90321 9.63132 3.9798C8.86963 4.05639 8.15792 4.39231 7.61659 4.93075C7.07525 5.46919 6.73751 6.17709 6.66051 6.9347C6.58351 7.69231 6.77197 8.45311 7.19401 9.08842L5.64674 10.6301C5.03146 10.2833 4.44358 9.89058 3.88821 9.45516ZM8.17127 8.11706C8.0418 7.85265 7.97369 7.56269 7.97197 7.2686C7.9721 6.74437 8.18029 6.24139 8.55128 5.86903C8.84704 5.58927 9.22018 5.40391 9.62271 5.33679C10.0252 5.26967 10.4388 5.32386 10.8101 5.49238L8.17127 8.11706Z" fill="white"/>
</g>
</svg>
