<svg width="20" height="20" viewBox="0 0 20 20" fill="none" xmlns="http://www.w3.org/2000/svg">
<path d="M10 14C11.3118 14 12.4269 14.842 12.8345 16.015L12.8834 16.0067L13 16H19C19.5523 16 20 16.4477 20 17C20 17.5128 19.614 17.9355 19.1166 17.9933L19 18H13C12.9434 18 12.888 17.9953 12.834 17.9863C12.4269 19.158 11.3118 20 10 20C8.6882 20 7.57305 19.158 7.16547 17.985L7.11664 17.9933L7 18H1C0.447715 18 0 17.5523 0 17C0 16.4872 0.386023 16.0645 0.883362 16.0067L1 16H7C7.05655 16 7.11202 16.0047 7.16602 16.0137C7.57306 14.842 8.6882 14 10 14ZM10 16C9.44771 16 9 16.4477 9 17C9 17.5523 9.44771 18 10 18C10.5523 18 11 17.5523 11 17C11 16.4477 10.5523 16 10 16ZM3 7C4.3118 7 5.42695 7.84196 5.83453 9.01495L5.88336 9.00673L6 9H19C19.5523 9 20 9.44771 20 10C20 10.5128 19.614 10.9355 19.1166 10.9933L19 11H6C5.94345 11 5.88798 10.9953 5.83398 10.9863C5.42694 12.158 4.3118 13 3 13C1.34315 13 0 11.6569 0 10C0 8.34315 1.34315 7 3 7ZM3 9C2.44772 9 2 9.44771 2 10C2 10.5523 2.44772 11 3 11C3.55228 11 4 10.5523 4 10C4 9.44771 3.55228 9 3 9ZM14 0C15.3118 0 16.4269 0.841957 16.8345 2.01495L16.8834 2.00673L17 2H19C19.5523 2 20 2.44772 20 3C20 3.51284 19.614 3.93551 19.1166 3.99327L19 4H17C16.9434 4 16.888 3.9953 16.834 3.98628C16.4269 5.15804 15.3118 6 14 6C12.6882 6 11.5731 5.15804 11.1655 3.98505L11.1166 3.99327L11 4H1C0.447715 4 0 3.55228 0 3C0 2.48716 0.386023 2.06449 0.883362 2.00673L1 2H11C11.0566 2 11.112 2.0047 11.166 2.01372C11.5731 0.841958 12.6882 0 14 0ZM14 2C13.4477 2 13 2.44772 13 3C13 3.55228 13.4477 4 14 4C14.5523 4 15 3.55228 15 3C15 2.44772 14.5523 2 14 2Z" fill="black"/>
</svg>
