<svg width="25" height="25" viewBox="0 0 25 25" fill="none" xmlns="http://www.w3.org/2000/svg">
<g id="Group 156">
<path id="Vector" d="M5.54053 15.1084L4.67031 18.357L1.4897 18.4243C0.53916 16.6613 0 14.6441 0 12.5006C0 10.4278 0.504101 8.4731 1.39766 6.75195H1.39834L4.22998 7.27109L5.47041 10.0857C5.21079 10.8426 5.06929 11.6551 5.06929 12.5006C5.06938 13.4182 5.23559 14.2973 5.54053 15.1084Z" fill="#FBBB00"/>
<path id="Vector_2" d="M24.7817 10.165C24.9252 10.9212 25.0001 11.7021 25.0001 12.5002C25.0001 13.3951 24.906 14.2681 24.7268 15.1101C24.1183 17.9755 22.5283 20.4775 20.3257 22.2481L20.325 22.2475L16.7584 22.0655L16.2536 18.9144C17.7151 18.0572 18.8573 16.7159 19.459 15.1101H12.7749V10.165H19.5565H24.7817Z" fill="#518EF8"/>
<path id="Vector_3" d="M20.3249 22.2468L20.3256 22.2475C18.1834 23.9693 15.4623 24.9996 12.5 24.9996C7.73974 24.9996 3.60102 22.3389 1.48975 18.4233L5.54057 15.1074C6.59619 17.9247 9.31391 19.9302 12.5 19.9302C13.8695 19.9302 15.1525 19.56 16.2535 18.9137L20.3249 22.2468Z" fill="#28B446"/>
<path id="Vector_4" d="M20.4788 2.87773L16.4293 6.19297C15.2899 5.48076 13.943 5.06933 12.5 5.06933C9.24179 5.06933 6.47324 7.16684 5.47051 10.0852L1.39839 6.75136H1.39771C3.47808 2.74038 7.66899 0 12.5 0C15.533 0 18.3139 1.08037 20.4788 2.87773Z" fill="#F14336"/>
</g>
</svg>
