<svg width="59" height="51" viewBox="0 0 59 51" fill="none" xmlns="http://www.w3.org/2000/svg">
<path fill-rule="evenodd" clip-rule="evenodd" d="M57.9237 15.6295C57.6606 15.411 57.3793 15.215 57.0826 15.0437L32.4199 0.804005C31.5093 0.27732 30.4759 0 29.424 0C28.372 0 27.3387 0.27732 26.4281 0.804005L1.75727 15.0518C1.4824 15.2119 1.22043 15.3927 0.973545 15.5924C0.780921 15.676 0.606334 15.7963 0.459595 15.9467C0.306765 16.1034 0.187324 16.2895 0.108507 16.4936C0.0302562 16.6963 -0.00633584 16.9127 0.000896352 17.1299C-0.00633583 17.347 0.0302562 17.5634 0.108507 17.7661C0.187324 17.9703 0.306765 18.1563 0.459595 18.313C0.604341 18.4614 0.776186 18.5805 0.965709 18.6639C1.21419 18.8661 1.47888 19.0481 1.75727 19.208L10.8779 24.474V29.7645C10.538 29.8546 10.2043 29.9729 9.88035 30.1192C8.54607 30.7219 7.4582 31.763 6.79753 33.0695C6.13686 34.376 5.94318 35.8693 6.24867 37.3011C6.55417 38.7329 7.34045 40.0171 8.47683 40.9402C9.16905 41.5025 9.96579 41.9102 10.8138 42.1443C10.6712 42.9564 10.3674 43.7365 9.9156 44.4368C7.96925 47.3484 3.96364 47.2021 3.75413 47.1945L3.74588 47.1942C3.31696 47.1674 2.89496 47.3121 2.57272 47.5964C2.25048 47.8807 2.05438 48.2814 2.02757 48.7103C2.00077 49.1393 2.14544 49.5613 2.42978 49.8835C2.71411 50.2057 3.11481 50.4018 3.54372 50.4286H3.89951C5.28224 50.4286 10.0126 50.1295 12.584 46.24C13.3811 45.0155 13.8792 43.6287 14.0478 42.1907C14.4282 42.0973 14.8003 41.9691 15.1593 41.807C15.5722 41.6205 15.9629 41.3913 16.3255 41.124L26.3707 46.9269C27.2982 47.4595 28.3496 47.7384 29.4192 47.7355C30.4864 47.7446 31.5374 47.4742 32.4676 46.9511L44.9203 39.7707C45.8471 39.228 46.6155 38.452 47.149 37.5198C47.5268 36.8597 47.7774 36.1376 47.8909 35.3909C47.937 35.2395 47.961 35.0809 47.961 34.9198V24.4809L57.0826 19.216C57.4736 18.9818 57.8397 18.7084 58.1752 18.4001C58.2537 18.3382 58.3261 18.2694 58.3915 18.1945C58.5051 18.0743 58.5999 17.9371 58.6721 17.7876C58.767 17.5913 58.8213 17.3779 58.8316 17.1601C58.8419 16.9423 58.808 16.7247 58.7321 16.5204C58.6562 16.316 58.5397 16.1291 58.3897 15.9709C58.256 15.8299 58.0981 15.7143 57.9237 15.6295ZM44.7266 26.3478L32.4118 33.4557C31.5023 33.9812 30.4703 34.2574 29.4199 34.2563C28.366 34.2571 27.3307 33.9781 26.42 33.4476L14.1124 26.3415V29.7517L14.132 29.7568C15.549 30.1248 16.7974 30.9668 17.6697 32.1426C18.542 33.3184 18.9857 34.7573 18.927 36.2202C18.8941 37.0389 18.705 37.8376 18.3759 38.5753L27.9879 44.121C28.4233 44.3714 28.9168 44.5033 29.4192 44.5033C29.9215 44.5033 30.415 44.3714 30.8504 44.121L43.303 36.9405C43.7339 36.6843 44.0914 36.3211 44.3407 35.8862C44.59 35.4513 44.7228 34.9594 44.7262 34.4581V33.6495C44.7262 33.6381 44.7263 33.6268 44.7266 33.6156V26.3478ZM15.8898 23.6322L28.0453 30.6498C28.462 30.8904 28.9347 31.0171 29.4159 31.0171C29.8971 31.0171 30.3698 30.8904 30.7865 30.6498L54.2154 17.1314L30.7946 3.60989C30.3784 3.36771 29.9055 3.24012 29.424 3.24012C28.9425 3.24012 28.4696 3.36771 28.0534 3.60989L4.63109 17.1322L12.6546 21.7644L28.6108 12.5457C28.9829 12.3312 29.4249 12.2733 29.8397 12.3848C30.2544 12.4963 30.6079 12.7679 30.8224 13.14C31.0368 13.5121 31.0947 13.9541 30.9832 14.3689C30.8718 14.7836 30.6001 15.1371 30.2281 15.3516L15.8898 23.6322ZM12.4952 32.7934L12.4827 32.7933C11.8583 32.7958 11.2482 32.9822 10.729 33.3294C10.2062 33.679 9.79888 34.1757 9.55859 34.7569C9.31831 35.338 9.25585 35.9774 9.37913 36.5941C9.5024 37.2107 9.80587 37.777 10.2511 38.2211C10.6963 38.6652 11.2633 38.9672 11.8803 39.0889C12.0394 39.1203 12.2 39.1393 12.3607 39.1461C12.3865 39.1436 12.4124 39.1417 12.4385 39.1404C12.503 39.1384 12.5675 39.1403 12.6315 39.1461C13.0028 39.1301 13.3704 39.0491 13.717 38.9048C14.0377 38.7712 14.3325 38.5868 14.5909 38.3601C14.6045 38.3332 14.6189 38.3066 14.6341 38.2803C14.7432 38.0915 14.8895 37.9267 15.0639 37.7958C15.0852 37.7799 15.1069 37.7644 15.1289 37.7496L15.1415 37.7308C15.4897 37.2071 15.6748 36.5919 15.6732 35.963C15.671 35.1216 15.3353 34.3154 14.7395 33.7212C14.1467 33.1299 13.3446 32.7966 12.5077 32.7933L12.4952 32.7934Z" fill="black"/>
</svg>
