<svg width="44" height="46" viewBox="0 0 44 46" fill="none" xmlns="http://www.w3.org/2000/svg">
<path d="M42.3125 31.7734C43.4599 30.6056 44.0424 29.1324 43.9976 27.5138L43.5615 11.8356C43.5207 10.3742 42.0892 9.06544 40.5444 9.06544C40.5298 9.06544 40.5147 9.06544 40.5001 9.06595C39.7436 9.07825 37.2773 9.50032 37.2959 14.4115L37.3276 22.9283C37.3286 23.2715 37.2924 23.5978 37.217 23.9123C37.1033 23.7305 36.9654 23.5563 36.804 23.3919C35.7617 22.3306 34.0525 22.3188 32.9127 23.3653C32.8885 23.3878 32.8654 23.4119 32.8442 23.437C31.4861 25.0725 29.8221 26.5001 28.4851 27.6475C28.0193 28.047 27.5792 28.425 27.2195 28.7554C25.7482 30.1056 25.5525 31.9819 25.5551 33.6395L25.5641 39.8763L24.8634 39.8702C24.8579 39.8702 24.8528 39.8702 24.8478 39.8702C23.8664 39.8702 23.0641 40.679 23.0556 41.6799L23.0355 44.0525C23.0269 45.059 23.8242 45.8847 24.8126 45.894L36.9157 46C36.9212 46 36.9262 46 36.9312 46C37.4031 46 37.8482 45.8141 38.1868 45.4755C38.5288 45.1328 38.7195 44.6764 38.7235 44.1903L38.7436 41.8177C38.7476 41.3311 38.565 40.8716 38.2285 40.5233C37.892 40.175 37.4438 39.9808 36.9665 39.9767L35.563 39.9644V38.648L42.3125 31.7734ZM37.1878 41.5631C37.2245 41.601 37.2859 41.683 37.2849 41.8049L37.2647 44.1775C37.2637 44.2989 37.2009 44.3798 37.1636 44.4172C37.1264 44.4546 37.0459 44.5166 36.9262 44.5161L24.8232 44.41C24.704 44.409 24.6245 44.345 24.5878 44.3071C24.551 44.2692 24.4897 44.1872 24.4907 44.0653L24.5108 41.6927C24.5118 41.5713 24.5747 41.4904 24.6119 41.453C24.6491 41.4161 24.7281 41.3541 24.8458 41.3541C24.8468 41.3541 24.8478 41.3541 24.8488 41.3541L36.9519 41.4601C37.0721 41.4612 37.1516 41.5252 37.1878 41.5631ZM27.0203 39.8891L27.0113 33.6374C27.0093 32.2406 27.1511 30.8156 28.1944 29.8582C28.5364 29.5442 28.9474 29.1913 29.4237 28.7831C30.7914 27.6096 32.4906 26.1512 33.9212 24.4379C34.4921 23.9415 35.2809 23.94 35.7728 24.4414C36.3699 25.0494 36.1828 25.702 35.8719 26.1825C35.0842 27.104 34.2934 27.8856 33.465 28.7057C33.1068 29.0602 32.7361 29.4264 32.3533 29.8167C32.0686 30.1067 32.0686 30.5764 32.3533 30.8658C32.6375 31.1552 33.0993 31.1557 33.3835 30.8658C33.7587 30.4837 34.1254 30.121 34.4801 29.7701C35.2708 28.988 36.0283 28.2391 36.7914 27.3647C36.8457 27.3237 36.895 27.274 36.9378 27.2167C36.969 27.1747 36.9986 27.1327 37.0278 27.0902C37.1838 26.9068 37.3397 26.7173 37.4966 26.5206C38.3679 25.428 38.7894 24.2514 38.7844 22.9232L38.7527 14.4064C38.7436 12.0097 39.4056 10.5683 40.5233 10.5499C40.5303 10.5499 40.5374 10.5499 40.5444 10.5499C41.3024 10.5499 42.0866 11.2142 42.1048 11.8781L42.5409 27.5563C42.5746 28.7744 42.151 29.8403 41.2823 30.7249L34.3181 37.8157C34.1813 37.955 34.1048 38.1435 34.1048 38.3402V39.9511L27.0203 39.8891ZM25.298 42.6198C25.4459 42.2413 25.8669 42.0569 26.2382 42.207C26.6099 42.3576 26.791 42.7863 26.6436 43.1643C26.4957 43.5428 26.0747 43.7273 25.7034 43.5772C25.3317 43.4266 25.1501 42.9978 25.298 42.6198ZM19.1532 39.8707C19.1482 39.8707 19.1426 39.8707 19.1376 39.8707L18.4364 39.8768L18.4454 33.64C18.448 31.9824 18.2523 30.1061 16.781 28.7559C16.4208 28.4255 15.9812 28.048 15.5154 27.648C14.1784 26.5006 12.5149 25.0725 11.1563 23.4375C11.1351 23.4119 11.112 23.3878 11.0878 23.3658C9.94801 22.3193 8.23877 22.3311 7.19652 23.3924C7.03505 23.5568 6.89723 23.731 6.78354 23.9128C6.70759 23.5983 6.67137 23.2725 6.67288 22.9288L6.70457 14.4121C6.72268 9.50083 4.2564 9.07876 3.50037 9.06646C1.93951 9.04239 0.47976 10.3614 0.439016 11.8361L0.00239925 27.5138C-0.0423691 29.1324 0.540122 30.6056 1.687 31.7734L8.43746 38.6475V39.9639L7.03405 39.9762C6.55668 39.9803 6.108 40.1745 5.77198 40.5228C5.43546 40.8711 5.25287 41.3311 5.25689 41.8172L5.27701 44.1898C5.28104 44.6759 5.47168 45.1328 5.81373 45.475C6.15226 45.8135 6.59743 45.9995 7.06926 45.9995C7.07429 45.9995 7.07982 45.9995 7.08485 45.9995L19.1879 45.8935C20.1763 45.8847 20.9736 45.059 20.965 44.0525L20.9449 41.6799C20.9369 40.679 20.1346 39.8707 19.1532 39.8707ZM9.68141 37.8157L2.71717 30.7244C1.84846 29.8398 1.42493 28.7738 1.45863 27.5558L1.89474 11.8776C1.91335 11.2132 2.69705 10.5494 3.45509 10.5494C3.46214 10.5494 3.46918 10.5494 3.47622 10.5494C4.59392 10.5678 5.25589 12.0092 5.24683 14.4059L5.21514 22.9227C5.21011 24.2509 5.63164 25.4275 6.50286 26.52C6.6598 26.7167 6.81574 26.9063 6.97167 27.0896C7.00034 27.1322 7.03052 27.1742 7.06171 27.2162C7.10447 27.274 7.15376 27.3232 7.20809 27.3642C7.97116 28.2381 8.7282 28.9869 9.51944 29.7696C9.87407 30.1205 10.2408 30.4831 10.616 30.8653C10.9007 31.1552 11.362 31.1552 11.6462 30.8653C11.9309 30.5753 11.9309 30.1056 11.6462 29.8162C11.2634 29.4264 10.8927 29.0597 10.5345 28.7052C9.70606 27.8856 8.91532 27.1035 8.1276 26.182C7.81674 25.7015 7.62911 25.0489 8.22669 24.4409C8.71864 23.94 9.50787 23.941 10.0788 24.4373C11.5094 26.1502 13.2086 27.6085 14.5763 28.7826C15.0521 29.1913 15.4636 29.5437 15.8056 29.8577C16.8489 30.8151 16.9907 32.2401 16.9887 33.6374L16.9792 39.8891L9.89469 39.9511V38.3402C9.89469 38.1435 9.81823 37.955 9.68141 37.8157ZM19.4112 44.3071C19.3745 44.345 19.295 44.409 19.1758 44.41L7.07278 44.5161C6.95407 44.5166 6.87308 44.4546 6.83586 44.4172C6.79863 44.3798 6.73576 44.2989 6.73475 44.1775L6.71463 41.8049C6.71363 41.6835 6.77499 41.6015 6.81171 41.5636C6.84843 41.5257 6.92791 41.4617 7.04712 41.4607L19.1502 41.3546C19.2714 41.3536 19.3499 41.4161 19.3871 41.4535C19.4243 41.4909 19.4872 41.5718 19.4882 41.6932L19.5083 44.0658C19.5093 44.1867 19.448 44.2687 19.4112 44.3071ZM18.7015 42.6198C18.8494 42.9984 18.6678 43.4271 18.296 43.5772C17.9243 43.7278 17.5038 43.5428 17.3559 43.1643C17.208 42.7858 17.3896 42.357 17.7613 42.207C18.1331 42.0564 18.5541 42.2413 18.7015 42.6198ZM15.5219 18.4028H28.8282C29.0349 18.4028 29.2321 18.3132 29.3699 18.1569C29.5083 18.0002 29.5747 17.7912 29.5525 17.5822C29.2477 14.6799 27.3649 12.317 24.8252 11.3331C25.7185 10.5642 26.2869 9.41631 26.2869 8.13472C26.2869 5.82561 24.4424 3.94728 22.1748 3.94728C19.9072 3.94728 18.0627 5.82561 18.0627 8.13472C18.0627 9.4158 18.6311 10.5642 19.5244 11.3331C16.9847 12.3176 15.1019 14.6799 14.7971 17.5822C14.7749 17.7917 14.8413 18.0007 14.9797 18.1569C15.1185 18.3137 15.3152 18.4028 15.5219 18.4028ZM19.5204 8.13472C19.5204 6.64415 20.7115 5.4312 22.1753 5.4312C23.6391 5.4312 24.8302 6.64415 24.8302 8.13472C24.8302 9.62479 23.6401 10.8372 22.1773 10.8383C22.1773 10.8383 22.1763 10.8383 22.1753 10.8383C22.1753 10.8383 22.1743 10.8383 22.1733 10.8383C20.7105 10.8372 19.5204 9.62479 19.5204 8.13472ZM22.1733 12.3217H22.1753H22.1773C24.9545 12.3227 27.3126 14.2481 27.962 16.9189H16.3886C17.0375 14.2481 19.3961 12.3227 22.1733 12.3217ZM28.9258 22.0734C26.9937 23.4324 24.718 24.1689 22.3438 24.2033C22.286 24.2043 22.2281 24.2043 22.1703 24.2043C20.5415 24.2043 18.953 23.8724 17.4847 23.2321C17.4575 23.4595 17.3277 23.671 17.1165 23.7914C16.7654 23.9912 16.3212 23.8636 16.125 23.5056L15.203 21.825C15.0762 21.5935 15.0798 21.3107 15.2136 21.0833C15.3469 20.8553 15.5873 20.7176 15.8499 20.7217L17.7402 20.7488C18.1426 20.7544 18.4641 21.0915 18.4585 21.5013C18.456 21.677 18.3941 21.8373 18.292 21.9633C21.4872 23.2536 25.2221 22.8771 28.0988 20.8533C28.4298 20.6207 28.8835 20.7047 29.1124 21.0418C29.3397 21.3788 29.2567 21.8409 28.9258 22.0734ZM31.8538 16.0845C33.1566 12.8119 32.7849 9.04546 30.7678 6.07148C30.5389 5.73443 30.6224 5.27241 30.9534 5.03934C31.2844 4.80679 31.7381 4.8908 31.967 5.22836C33.2794 7.16303 34.0017 9.44192 34.0565 11.8187C34.0968 13.5659 33.7748 15.2767 33.1159 16.8533C33.3241 16.8871 33.5158 17.0126 33.6305 17.2124C33.8332 17.5663 33.7155 18.0207 33.3679 18.2271L31.7341 19.1962C31.6209 19.2633 31.4942 19.2972 31.3674 19.2972C31.2426 19.2972 31.1179 19.2644 31.0057 19.1993C30.7799 19.0677 30.64 18.8233 30.639 18.5585L30.6315 16.6331C30.63 16.2233 30.9549 15.8898 31.3573 15.8883C31.3583 15.8883 31.3593 15.8883 31.3604 15.8883C31.5505 15.8883 31.724 15.9626 31.8538 16.0845ZM15.2392 3.16357C15.0104 2.82653 15.0939 2.3645 15.4248 2.13144C17.3413 0.783771 19.5989 0.0471906 21.9535 0.00211472C23.6481 -0.0296433 25.3046 0.296645 26.8322 0.957416C26.8674 0.750989 26.9881 0.560441 27.1793 0.445702C27.5259 0.237226 27.9725 0.354526 28.1773 0.706938L29.139 2.3645C29.2713 2.59244 29.2744 2.8757 29.1466 3.1062C29.0188 3.33722 28.7794 3.48115 28.5193 3.48371L26.629 3.50318C26.6265 3.50318 26.624 3.50318 26.6214 3.50318C26.2226 3.50318 25.8971 3.17587 25.8931 2.76865C25.8911 2.5699 25.966 2.38858 26.0893 2.25437C22.8891 0.952294 19.1321 1.32724 16.2528 3.35207C15.9218 3.58565 15.4676 3.50113 15.2392 3.16357ZM11.2523 7.3085C11.0194 7.28545 10.8016 7.1492 10.6814 6.92433C10.4893 6.56424 10.62 6.11399 10.9732 5.91832L12.6341 4.99837C12.8625 4.87185 13.1401 4.87902 13.3625 5.01732C13.5843 5.15562 13.7171 5.40405 13.7106 5.66887L13.6623 7.5933C13.6522 7.99642 13.3283 8.31605 12.9344 8.31656C12.9279 8.31656 12.9218 8.31656 12.9158 8.31656C12.7538 8.31247 12.6054 8.25459 12.4867 8.16034C11.2252 11.4109 11.5964 15.207 13.5818 18.1339C13.8107 18.4709 13.7277 18.933 13.3967 19.166C13.2704 19.2551 13.1261 19.2977 12.9832 19.2977C12.7518 19.2977 12.5245 19.186 12.3831 18.9775C11.0471 17.008 10.3238 14.6881 10.2916 12.2679C10.2684 10.5427 10.5974 8.85952 11.2523 7.3085Z" fill="black"/>
</svg>
