<svg width="19" height="19" viewBox="0 0 19 19" fill="none" xmlns="http://www.w3.org/2000/svg">
<path d="M4.35221 18.3328H0.61784V6.30678H4.35221V18.3328ZM2.48302 4.66632C1.28889 4.66632 0.320312 3.67722 0.320312 2.48306C0.320313 1.90947 0.548168 1.35936 0.953754 0.953768C1.35934 0.548173 1.90943 0.320312 2.48302 0.320312C3.0566 0.320312 3.60669 0.548173 4.01228 0.953768C4.41786 1.35936 4.64572 1.90947 4.64572 2.48306C4.64572 3.67722 3.67674 4.66632 2.48302 4.66632ZM18.3288 18.3328H14.6024V12.4786C14.6024 11.0834 14.5743 9.29418 12.6609 9.29418C10.7193 9.29418 10.4218 10.81 10.4218 12.3781V18.3328H6.69142V6.30678H10.273V7.94724H10.3253C10.8238 7.00237 12.0417 6.00523 13.8586 6.00523C17.638 6.00523 18.3328 8.49406 18.3328 11.7267V18.3328H18.3288Z" fill="white"/>
</svg>
