<svg width="18" height="17" viewBox="0 0 18 17" fill="none" xmlns="http://www.w3.org/2000/svg">
<path d="M12.5715 0.179688H5.43856C4.2347 0.179688 3.08015 0.657917 2.2289 1.50917C1.37764 2.36043 0.899414 3.51498 0.899414 4.71883V11.8518C0.899414 13.0556 1.37764 14.2102 2.2289 15.0614C3.08015 15.9127 4.2347 16.3909 5.43856 16.3909H12.5715C13.7754 16.3909 14.9299 15.9127 15.7812 15.0614C16.6324 14.2102 17.1106 13.0556 17.1106 11.8518V4.71883C17.1106 3.51498 16.6324 2.36043 15.7812 1.50917C14.9299 0.657917 13.7754 0.179688 12.5715 0.179688ZM9.00503 12.176C8.23552 12.176 7.4833 11.9478 6.84347 11.5203C6.20365 11.0928 5.70497 10.4851 5.4105 9.77421C5.11602 9.06328 5.03897 8.28099 5.18909 7.52627C5.33922 6.77154 5.70977 6.07829 6.25389 5.53417C6.79802 4.99004 7.49127 4.61949 8.24599 4.46937C9.00071 4.31924 9.783 4.39629 10.4939 4.69077C11.2049 4.98525 11.8125 5.48393 12.24 6.12375C12.6675 6.76357 12.8957 7.5158 12.8957 8.2853C12.8957 9.31718 12.4858 10.3068 11.7562 11.0364C11.0265 11.7661 10.0369 12.176 9.00503 12.176ZM13.2199 5.04306C13.0276 5.04306 12.8395 4.98601 12.6796 4.87913C12.5196 4.77225 12.3949 4.62034 12.3213 4.44261C12.2477 4.26488 12.2284 4.0693 12.266 3.88062C12.3035 3.69194 12.3961 3.51863 12.5322 3.3826C12.6682 3.24657 12.8415 3.15393 13.0302 3.1164C13.2189 3.07887 13.4144 3.09813 13.5922 3.17175C13.7699 3.24537 13.9218 3.37004 14.0287 3.52999C14.1356 3.68995 14.1926 3.87801 14.1926 4.07038C14.1926 4.32835 14.0901 4.57576 13.9077 4.75817C13.7253 4.94058 13.4779 5.04306 13.2199 5.04306Z" fill="white"/>
</svg>
