<svg width="17" height="19" viewBox="0 0 17 19" fill="none" xmlns="http://www.w3.org/2000/svg">
<path fill-rule="evenodd" clip-rule="evenodd" d="M8.03846 0C3.60196 0 0 3.60196 0 8.03846C0 10.2476 1.0925 12.4918 2.50654 14.3479C4.37146 16.796 6.70261 18.5462 6.72307 18.5615C7.50281 19.1462 8.57412 19.1462 9.35385 18.5615C9.37431 18.5462 11.7055 16.796 13.5704 14.3479C14.9844 12.4918 16.0769 10.2476 16.0769 8.03846C16.0769 3.60196 12.475 0 8.03846 0ZM8.03846 1.46154C11.6682 1.46154 14.6154 4.40873 14.6154 8.03846C14.6154 9.94431 13.6274 11.8618 12.4077 13.4622C10.6612 15.7547 8.47692 17.3923 8.47692 17.3923C8.21677 17.5874 7.86015 17.5874 7.6 17.3923C7.6 17.3923 5.41573 15.7547 3.66919 13.4622C2.44954 11.8618 1.46154 9.94431 1.46154 8.03846C1.46154 4.40873 4.40873 1.46154 8.03846 1.46154Z" fill="#6E81B6"/>
<path fill-rule="evenodd" clip-rule="evenodd" d="M8.03861 4.38477C6.02169 4.38477 4.38477 6.02169 4.38477 8.03861C4.38477 10.0555 6.02169 11.6925 8.03861 11.6925C10.0555 11.6925 11.6925 10.0555 11.6925 8.03861C11.6925 6.02169 10.0555 4.38477 8.03861 4.38477ZM8.03861 5.8463C9.24877 5.8463 10.2309 6.82846 10.2309 8.03861C10.2309 9.24877 9.24877 10.2309 8.03861 10.2309C6.82846 10.2309 5.8463 9.24877 5.8463 8.03861C5.8463 6.82846 6.82846 5.8463 8.03861 5.8463Z" fill="#6E81B6"/>
</svg>
