<svg width="16" height="19" viewBox="0 0 16 19" fill="none" xmlns="http://www.w3.org/2000/svg">
<path fill-rule="evenodd" clip-rule="evenodd" d="M7.84616 0C3.51579 0 0 3.51579 0 7.84616C0 10.0024 1.06636 12.1929 2.44657 14.0047C4.26688 16.3942 6.54226 18.1025 6.56224 18.1175C7.32331 18.6881 8.369 18.6881 9.13007 18.1175C9.15005 18.1025 11.4254 16.3942 13.2457 14.0047C14.6259 12.1929 15.6923 10.0024 15.6923 7.84616C15.6923 3.51579 12.1765 0 7.84616 0ZM7.84616 1.42657C11.3891 1.42657 14.2657 4.30326 14.2657 7.84616C14.2657 9.70641 13.3014 11.5781 12.1109 13.1402C10.4061 15.3778 8.27413 16.9762 8.27413 16.9762C8.0202 17.1667 7.67211 17.1667 7.41818 16.9762C7.41818 16.9762 5.28617 15.3778 3.58142 13.1402C2.39094 11.5781 1.42657 9.70641 1.42657 7.84616C1.42657 4.30326 4.30326 1.42657 7.84616 1.42657Z" fill="#FEBB24"/>
<path fill-rule="evenodd" clip-rule="evenodd" d="M7.84573 4.2793C5.87706 4.2793 4.2793 5.87706 4.2793 7.84573C4.2793 9.8144 5.87706 11.4122 7.84573 11.4122C9.8144 11.4122 11.4122 9.8144 11.4122 7.84573C11.4122 5.87706 9.8144 4.2793 7.84573 4.2793ZM7.84573 5.70587C9.02693 5.70587 9.98559 6.66453 9.98559 7.84573C9.98559 9.02693 9.02693 9.98559 7.84573 9.98559C6.66453 9.98559 5.70587 9.02693 5.70587 7.84573C5.70587 6.66453 6.66453 5.70587 7.84573 5.70587Z" fill="#FEBB24"/>
</svg>
