<svg width="51" height="51" viewBox="0 0 51 51" fill="none" xmlns="http://www.w3.org/2000/svg">
<path fill-rule="evenodd" clip-rule="evenodd" d="M25.0048 6.01981C34.8154 -0.395414 43.4555 -1.8063 47.6412 2.38126C51.8207 6.57083 50.4143 15.2108 44.0122 25.0185C50.4143 34.8256 51.8208 43.4655 47.6422 47.6542C42.2355 53.0625 31.4464 48.2245 25.0059 44.0135C18.5785 48.2161 7.78407 53.0617 2.37751 47.6552C-1.80199 43.4656 -0.395557 34.8256 6.00648 25.0185C-0.395557 15.2108 -1.80205 6.5709 2.37654 2.38224C6.56081 -1.803 15.1975 -0.393895 25.0048 6.01981ZM43.5523 21.9654C48.2227 14.0259 49.3382 6.91428 46.2262 3.79435C43.1124 0.680205 36.003 1.79709 28.0626 6.47471C35.99 7.77719 42.2503 14.0378 43.5523 21.9654ZM21.9486 6.47568C14.012 1.79892 6.90718 0.681915 3.79158 3.79532C0.680743 6.91409 1.79579 14.0247 6.46522 21.9634C7.76753 14.0389 14.0246 7.78043 21.9486 6.47568ZM6.46528 28.0731C1.79542 36.0116 0.680793 43.1224 3.79255 46.2421C6.90547 49.3537 14.0114 48.2365 21.9481 43.5607C14.0244 42.2558 7.76783 35.9976 6.46528 28.0731ZM8.19441 25.018C8.19441 34.2809 15.7238 41.8172 24.9836 41.8311C34.3924 41.8228 41.8228 34.1973 41.8228 25.018C41.8228 15.7538 34.2919 8.21695 25.0305 8.20511C25.0292 8.20514 25.028 8.20532 25.0268 8.20559L25.0226 8.20675C25.0199 8.20758 25.0172 8.20841 25.0142 8.20841C25.0102 8.20841 25.0061 8.20753 25.0021 8.20666L25.002 8.20666L24.9988 8.20598C24.9968 8.20558 24.9948 8.20523 24.9928 8.20505C24.992 8.20499 24.9913 8.20494 24.9906 8.20493C15.7276 8.21494 8.19441 15.7527 8.19441 25.018ZM28.0625 43.5617C36.0025 48.2395 43.1112 49.357 46.2271 46.2411C49.3383 43.122 48.223 36.0103 43.5522 28.0711C42.25 35.9989 35.9899 42.2593 28.0625 43.5617ZM13.6758 18.3882C13.6758 14.8164 18.6523 12.0186 25.0059 12.0186C29.8338 12.0186 36.6069 14.075 36.335 18.6637C36.335 18.4339 36.3354 24.5973 36.3357 28.5131L36.3359 31.6485C36.3359 39.9771 13.6758 40.199 13.6758 31.6485V18.3882ZM15.6758 31.6485C15.6758 37.6003 34.3359 37.1995 34.3359 31.6485V28.6769C29.8795 32.3017 20.114 32.2909 15.6758 28.6699V31.6485ZM25.0107 29.3897C30.4677 29.3897 34.2785 27.1214 34.3359 25.0663V22.0718C29.9404 25.6266 20.1543 25.704 15.6758 22.0537V24.9997C15.6759 25.0031 15.6768 25.0062 15.6777 25.0092L15.6786 25.0123C15.6792 25.0145 15.6797 25.0167 15.6797 25.0191C15.6797 27.0865 19.5117 29.3897 25.0107 29.3897ZM15.6758 18.3882C15.6758 20.46 19.5073 22.7686 25.0059 22.7686C28.1307 22.7686 34.3457 21.4721 34.3457 18.3882C34.3457 16.3213 30.5098 14.0186 25.0059 14.0186C19.5073 14.0186 15.6758 16.3213 15.6758 18.3882ZM44.999 10.797C46.5881 9.20892 46.5946 6.62786 44.9961 5.03045C43.4098 3.45617 40.8285 3.42895 39.2251 5.03338C37.634 6.62353 37.6326 9.20562 39.2251 10.797C40.8065 12.3794 43.3862 12.3976 44.999 10.797ZM40.6392 6.44744C41.4521 5.63451 42.7713 5.6408 43.585 6.44744C44.3861 7.24853 44.4014 8.56658 43.5879 9.38006C42.7949 10.1672 41.4238 10.1672 40.6392 9.38299C39.8297 8.57348 39.8288 7.2578 40.6392 6.44744ZM5.01808 45.0029C3.42561 43.4114 3.42695 40.8288 5.01808 39.2387C6.60987 37.6479 9.18635 37.6472 10.7891 39.2358C12.3875 40.8332 12.3812 43.4147 10.792 45.0029C9.17921 46.6035 6.59944 46.5853 5.01808 45.0029ZM6.43214 43.5888C7.21632 44.373 8.58741 44.3715 9.38087 43.5859C11.3483 41.6184 8.34755 38.7398 6.43214 40.6528C5.62336 41.4615 5.62104 42.7777 6.43214 43.5888ZM39.2251 39.2397C37.634 40.8298 37.6326 43.4119 39.2251 45.0033C40.8065 46.5857 43.3862 46.6039 44.999 45.0033C46.5882 43.4152 46.5946 40.8341 44.9961 39.2367C43.4478 37.7001 40.7617 37.7011 39.2251 39.2397ZM43.585 40.6537C44.3861 41.4548 44.4014 42.7729 43.5879 43.5863C42.7949 44.372 41.4229 44.3735 40.6392 43.5893C39.8297 42.7798 39.8288 41.4641 40.6392 40.6537C41.4521 39.8408 42.7713 39.8471 43.585 40.6537ZM10.7893 5.0304C12.3811 6.6222 12.3811 9.20813 10.7922 10.7975C9.1634 12.412 6.58588 12.3646 5.01783 10.7975C3.42896 9.20814 3.42896 6.6222 5.01783 5.03333C6.6211 3.42908 9.20295 3.45606 10.7893 5.0304ZM9.37818 6.44739C8.5644 5.64063 7.24476 5.63446 6.43189 6.44739C5.62281 7.25696 5.62281 8.57385 6.43189 9.38343C7.21607 10.1666 8.58912 10.1666 9.38111 9.3805C10.1873 8.57386 10.1873 7.25696 9.37818 6.44739Z" fill="url(#paint0_linear_655_2)"/>
<defs>
<linearGradient id="paint0_linear_655_2" x1="50.0187" y1="-0.000457869" x2="-0.0895959" y2="0.0893949" gradientUnits="userSpaceOnUse">
<stop stop-color="#003FBC"/>
<stop offset="1" stop-color="#EE396F"/>
</linearGradient>
</defs>
</svg>
