<svg width="57" height="57" viewBox="0 0 57 57" fill="none" xmlns="http://www.w3.org/2000/svg">
<path fill-rule="evenodd" clip-rule="evenodd" d="M42.9083 7.95483C42.9857 7.97554 43.0634 7.98546 43.14 7.98546C43.5343 7.98546 43.8952 7.72228 44.0021 7.32327L45.6631 1.12444C45.7907 0.648017 45.508 0.158295 45.0315 0.0306309C44.5553 -0.0968147 44.0654 0.185768 43.9377 0.66219L42.2768 6.86102C42.1491 7.33744 42.4318 7.82716 42.9083 7.95483ZM47.939 13.0303C48.0905 13.0303 48.2441 12.9917 48.3847 12.9105L53.9424 9.70191C54.3696 9.4552 54.516 8.909 54.2693 8.48186C54.0228 8.05472 53.4765 7.90841 53.0493 8.15501L47.4916 11.3636C47.0645 11.6103 46.9181 12.1565 47.1647 12.5837C47.3302 12.8702 47.6303 13.0303 47.939 13.0303ZM50.1401 17.9515L56.339 19.6126C56.8154 19.7402 57.0981 20.23 56.9705 20.7064C56.8635 21.1054 56.5027 21.3686 56.1083 21.3686C56.0318 21.3686 55.9541 21.3587 55.8766 21.3379L49.6778 19.6769C49.2014 19.5492 48.9186 19.0595 49.0463 18.5831C49.174 18.1067 49.6637 17.8241 50.1401 17.9515ZM55.2656 39.2603C54.9503 38.8624 54.7883 38.3641 54.8096 37.8568L54.8655 36.5261C54.9419 34.7049 53.7689 33.0915 52.013 32.6024L50.7318 32.2456C50.2413 32.109 49.8163 31.8001 49.5351 31.3758L48.8026 30.2706C48.1858 29.3398 47.2358 28.7485 46.1998 28.5748L44.3549 25.3793C44.8862 24.4998 45.2979 23.541 45.5712 22.5208C46.3347 19.6713 45.9429 16.6949 44.4678 14.1401C42.9928 11.5852 40.6112 9.7577 37.7616 8.99422C36.7411 8.72077 35.7044 8.59627 34.6766 8.61598L30.882 2.04348C29.8636 0.279737 27.6003 -0.327074 25.8366 0.691619L24.2198 1.62506C22.9808 2.3404 22.314 3.67024 22.3793 5.00967C22.312 5.14145 22.2766 5.29089 22.2821 5.44668C22.4065 9.012 21.7439 11.9644 20.2565 14.4725C18.9695 16.6426 17.0518 18.4828 14.394 20.0977L4.90401 25.5767C3.26521 26.5228 2.62647 28.5436 3.36089 30.2401L3.30396 30.273C0.147254 32.0955 -0.938159 36.1464 0.884346 39.3031C2.1074 41.4214 4.33393 42.6069 6.62043 42.6069C7.74106 42.6069 8.87619 42.3222 9.9145 41.7227L9.9722 41.6894C10.684 42.6481 11.7985 43.1793 12.9411 43.1793C13.5673 43.1792 14.2015 43.0201 14.7816 42.6851L14.8166 42.6649L20.0874 51.7944C20.5807 52.6488 21.3771 53.2599 22.3301 53.5153C22.6483 53.6005 22.9712 53.6427 23.2921 53.6427C23.932 53.6427 24.5637 53.4748 25.1328 53.1463L25.9412 52.6795C26.7956 52.1863 27.4067 51.3898 27.6621 50.4368C27.9174 49.4839 27.7864 48.4886 27.2931 47.6342L22.0222 38.5047L24.2715 37.2061C25.9848 36.2681 27.7855 35.6742 29.6468 35.4259C29.5607 35.7782 29.5219 36.1475 29.5378 36.526L29.5936 37.8568C29.6149 38.3641 29.453 38.8626 29.1377 39.2604L28.3096 40.3052C27.1784 41.7325 27.1784 43.7264 28.3096 45.1537L29.1377 46.1985C29.453 46.5963 29.6149 47.0949 29.5936 47.6022L29.5378 48.9328C29.4614 50.754 30.6343 52.3674 32.3902 52.8563L33.6716 53.2134C34.1619 53.3499 34.5869 53.6587 34.8681 54.0831L35.6006 55.1884C36.6094 56.7103 38.5086 57.3271 40.2193 56.6886L41.4612 56.225C41.9388 56.0466 42.4646 56.0466 42.9421 56.225L44.184 56.6885C44.6358 56.8573 45.1006 56.9384 45.5588 56.9384C46.8356 56.9384 48.0603 56.3085 48.8026 55.1884L49.5351 54.0831C49.8164 53.6587 50.2413 53.3499 50.7318 53.2134L52.0129 52.8564C53.7689 52.3674 54.9419 50.754 54.8655 48.9329L54.8096 47.6022C54.7883 47.0949 54.9503 46.5963 55.2656 46.1985L56.0936 45.1537C57.2248 43.7264 57.2248 41.7325 56.0936 40.3052L55.2656 39.2603ZM25.9367 49.9746C25.8049 50.4667 25.4893 50.8779 25.0481 51.1327L24.2397 51.5994C23.7985 51.8541 23.2846 51.9219 22.7924 51.7899C22.3003 51.6581 21.889 51.3425 21.6343 50.9013L16.3635 41.7718L20.4753 39.3979L25.7462 48.5273C26.0009 48.9685 26.0686 49.4825 25.9367 49.9746ZM37.2993 10.7195C39.688 11.3595 41.6845 12.8915 42.9209 15.0332C44.1574 17.1748 44.4859 19.6698 43.8458 22.0585C43.7066 22.5781 43.5238 23.0784 43.3027 23.5568L35.7302 10.4408C36.2551 10.4885 36.7797 10.5803 37.2993 10.7195ZM25.1129 3.17185L26.7297 2.23852C27.0293 2.0655 27.3567 1.9833 27.6801 1.9833C28.3397 1.9833 28.9822 2.32541 29.3351 2.93658L44.239 28.751L44.2161 28.7589C44.2054 28.7626 44.1946 28.7662 44.184 28.7702L42.942 29.234C42.4646 29.4124 41.9387 29.4122 41.4612 29.2339L40.2192 28.7703C39.3664 28.4518 38.4667 28.4455 37.6538 28.7079L31.3462 17.7829L24.4147 5.77723C23.889 4.86647 24.2022 3.69774 25.1129 3.17185ZM21.7928 15.3836C22.9853 13.3729 23.7054 11.1268 23.9688 8.57733L36.1258 29.6337C35.9323 29.8238 35.7558 30.0363 35.6006 30.2706L34.8681 31.3758C34.5869 31.8001 34.1619 32.109 33.6715 32.2456L32.3903 32.6024C31.753 32.7799 31.1931 33.106 30.7412 33.5359C28.4619 33.6542 26.2725 34.2243 24.1819 35.2445L16.0513 21.162C18.5917 19.4997 20.4762 17.6038 21.7928 15.3836ZM2.43125 38.41C1.10119 36.1062 1.89334 33.1499 4.19706 31.8199L4.23201 31.7997L9.05634 40.1556L9.0214 40.1758C6.71768 41.506 3.76136 40.7137 2.43125 38.41ZM11.2832 40.4401L5.09899 29.7289C4.57318 28.8182 4.88634 27.6494 5.79711 27.1236L14.5223 22.086L22.6137 36.1008L13.8885 41.1382C12.9778 41.6641 11.809 41.3509 11.2832 40.4401ZM54.6937 44.0443L53.8657 45.0891C53.2843 45.8226 52.9858 46.7418 53.025 47.677L53.0808 49.0078C53.1223 49.9954 52.4861 50.8705 51.5337 51.1358L50.2526 51.4926C49.3484 51.7443 48.5649 52.3138 48.0462 53.0963L47.3137 54.2015C46.7667 55.0272 45.7365 55.3615 44.8088 55.0152L43.5668 54.5515C43.1266 54.3872 42.6642 54.305 42.2016 54.305C41.7392 54.305 41.2766 54.3872 40.8364 54.5515L39.5945 55.0152C38.6668 55.3621 37.6367 55.0271 37.0895 54.2015L36.357 53.0963C35.8384 52.3138 35.0549 51.7443 34.1508 51.4927L32.8695 51.1357C31.9171 50.8705 31.281 49.9954 31.3225 49.0077L31.3783 47.677C31.4175 46.7418 31.1189 45.8226 30.5375 45.0891L29.7095 44.0443C29.0959 43.2701 29.0959 42.1887 29.7095 41.4147L30.5375 40.3698C31.1189 39.6363 31.4175 38.7172 31.3783 37.782L31.3225 36.4511C31.281 35.4634 31.9171 34.5883 32.8695 34.3232L34.1508 33.9664C35.055 33.7144 35.8385 33.1449 36.357 32.3627L37.0895 31.2573C37.6365 30.4318 38.6665 30.0972 39.5945 30.4437L40.8364 30.9072C41.7167 31.2359 42.6865 31.2358 43.5668 30.9073L44.8088 30.4436C45.7365 30.0973 46.7667 30.4318 47.3137 31.2574L48.0462 32.3627C48.5648 33.1449 49.3482 33.7144 50.2525 33.9664L51.5338 34.3232C52.4861 34.5883 53.1223 35.4634 53.0808 36.4512L53.025 37.782C52.9858 38.7172 53.2843 39.6362 53.8657 40.3697L54.6937 41.4146C55.3073 42.1887 55.3073 43.2701 54.6937 44.0443ZM39.6857 40.2139L39.6857 40.214C39.1098 40.7898 38.3442 41.107 37.5298 41.107C36.7155 41.107 35.9498 40.7898 35.374 40.2139C34.1852 39.0252 34.1852 37.091 35.374 35.9022C36.5628 34.7137 38.4969 34.7137 39.6857 35.9022C40.2616 36.4781 40.5787 37.2437 40.5787 38.0581C40.5787 38.8725 40.2615 39.638 39.6857 40.2139ZM37.5298 36.7961C37.2065 36.7961 36.8832 36.9192 36.637 37.1653C36.1447 37.6576 36.1447 38.4586 36.637 38.9509C36.8756 39.1894 37.1926 39.3208 37.5298 39.3208C37.8671 39.3208 38.1841 39.1894 38.4226 38.951L38.4227 38.9509C38.6612 38.7124 38.7925 38.3953 38.7925 38.0581C38.7925 37.7209 38.6612 37.4038 38.4227 37.1653C38.1765 36.9192 37.8531 36.7961 37.5298 36.7961ZM44.7173 45.2451C44.1414 45.821 43.8242 46.5867 43.8242 47.401C43.8242 48.2154 44.1414 48.9811 44.7173 49.5569C45.3117 50.1512 46.0924 50.4484 46.8731 50.4484C47.6539 50.4484 48.4346 50.1512 49.0289 49.5569C50.2177 48.3682 50.2177 46.4339 49.0289 45.2451C47.8402 44.0564 45.9059 44.0564 44.7173 45.2451ZM47.7659 48.2938C47.2737 48.7862 46.4727 48.7863 45.9803 48.2938C45.7418 48.0554 45.6104 47.7382 45.6104 47.401C45.6104 47.0638 45.7418 46.7467 45.9803 46.5083C46.2265 46.2621 46.5498 46.139 46.8731 46.139C47.1965 46.139 47.5198 46.2621 47.7659 46.5083C48.2582 47.0005 48.2582 47.8016 47.7659 48.2938ZM46.045 37.6229C46.3938 37.2742 46.9593 37.2742 47.308 37.6229C47.6569 37.9717 47.6569 38.5371 47.308 38.886L38.3586 47.8354C38.1842 48.0097 37.9557 48.097 37.7271 48.097C37.4985 48.097 37.27 48.0097 37.0956 47.8354C36.7468 47.4865 36.7468 46.9212 37.0956 46.5723L46.045 37.6229Z" fill="url(#paint0_linear_655_3)"/>
<defs>
<linearGradient id="paint0_linear_655_3" x1="108.574" y1="-39.4566" x2="-2.68493" y2="-49.2728" gradientUnits="userSpaceOnUse">
<stop stop-color="#003FBC"/>
<stop offset="1" stop-color="#EE396F"/>
</linearGradient>
</defs>
</svg>
