<svg width="22" height="22" viewBox="0 0 22 22" fill="none" xmlns="http://www.w3.org/2000/svg">
<path d="M10.8333 0C4.8596 0 0 4.8596 0 10.8333C0 16.8071 4.8596 21.6667 10.8333 21.6667C16.8071 21.6667 21.6667 16.8071 21.6667 10.8333C21.6667 4.8596 16.8071 0 10.8333 0ZM14.8228 13.5461C15.1757 13.8992 15.1757 14.4697 14.8228 14.8228C14.6467 14.9988 14.4156 15.0873 14.1844 15.0873C13.9533 15.0873 13.7222 14.9988 13.5461 14.8228L10.8333 12.1098L8.12054 14.8228C7.9445 14.9988 7.7134 15.0873 7.48231 15.0873C7.25105 15.0873 7.01995 14.9988 6.8439 14.8228C6.49098 14.4697 6.49098 13.8992 6.8439 13.5461L9.55687 10.8333L6.8439 8.12054C6.49098 7.76746 6.49098 7.19699 6.8439 6.8439C7.19699 6.49098 7.76746 6.49098 8.12054 6.8439L10.8333 9.55687L13.5461 6.8439C13.8992 6.49098 14.4697 6.49098 14.8228 6.8439C15.1757 7.19699 15.1757 7.76746 14.8228 8.12054L12.1098 10.8333L14.8228 13.5461Z" fill="#CB3223"/>
</svg>
