<svg width="56" height="56" viewBox="0 0 56 56" fill="none" xmlns="http://www.w3.org/2000/svg">
<path d="M55 53.9433H47V31.9433C47 31.4129 46.7893 30.9042 46.4142 30.5291C46.0391 30.154 45.5304 29.9433 45 29.9433H44.1C42.147 28.4153 38.188 27.1283 35.41 26.3613C37.3167 26.1983 39.168 25.6369 40.844 24.7133C41.0963 24.5758 41.3118 24.3796 41.4723 24.1414C41.6328 23.9031 41.7336 23.6297 41.7663 23.3443C41.7989 23.0588 41.7624 22.7697 41.6599 22.5013C41.5573 22.233 41.3917 21.9932 41.177 21.8023C38.891 19.7613 39.182 17.8643 39.365 16.0963C40.048 9.54929 37.883 1.0893 32.411 1.7963C28.119 -2.0417 17.184 -0.232704 17.541 12.1573C17.5844 13.0528 17.5673 13.9501 17.49 14.8433C16.974 19.9283 15.941 20.6113 14.768 21.7433C14.5816 21.9254 14.4367 22.1456 14.3433 22.3888C14.25 22.6321 14.2103 22.8927 14.227 23.1527C14.2437 23.4128 14.3164 23.6661 14.4402 23.8954C14.5639 24.1247 14.7358 24.3246 14.944 24.4813C16.4252 25.5992 18.1784 26.3005 20.022 26.5123C17.47 27.2953 14.1 28.5253 12.4 29.9433H11C10.4696 29.9433 9.96086 30.154 9.58579 30.5291C9.21071 30.9042 9 31.4129 9 31.9433V53.9433H1C0.734784 53.9433 0.48043 54.0486 0.292893 54.2362C0.105357 54.4237 0 54.6781 0 54.9433C0 55.2085 0.105357 55.4629 0.292893 55.6504C0.48043 55.8379 0.734784 55.9433 1 55.9433H55C55.2652 55.9433 55.5196 55.8379 55.7071 55.6504C55.8946 55.4629 56 55.2085 56 54.9433C56 54.6781 55.8946 54.4237 55.7071 54.2362C55.5196 54.0486 55.2652 53.9433 55 53.9433ZM26.91 29.9433L24.455 26.3033C24.661 25.7813 24.762 25.4713 24.861 25.1393C25.7368 25.949 26.8647 26.4325 28.055 26.5083C29.123 26.447 30.1368 26.0176 30.924 25.2933C31.026 25.6213 31.1397 25.9453 31.265 26.2653L28.614 29.9433H26.91ZM30.327 23.1763C28.649 24.6873 27.889 25.0763 25.956 23.4573C24.0998 21.905 22.9041 19.7043 22.612 17.3023C22.5907 17.1655 22.5412 17.0345 22.4667 16.9178C22.3921 16.8011 22.2942 16.7012 22.179 16.6243C21.479 16.1563 20.498 14.6433 21.406 14.2503C23.4081 13.3717 24.9969 11.7585 25.845 9.7433C29.969 13.3543 32.945 12.6433 34.639 12.8433C35.508 12.9433 35.608 15.3213 34.007 16.6233C33.8109 16.7857 33.6823 17.0153 33.646 17.2673C33.1317 19.5155 31.9793 21.5673 30.327 23.1763ZM32.681 27.7223C35.1241 28.304 37.5263 29.0459 39.872 29.9433H31.08L32.681 27.7223ZM31.127 3.3303C31.3282 3.51155 31.5671 3.64607 31.8264 3.72421C32.0857 3.80236 32.3591 3.82219 32.627 3.7823C36.407 3.2493 37.91 10.7583 37.378 15.8903C37.184 17.7663 36.798 20.3983 39.631 23.0963C37.5143 24.2369 35.073 24.6247 32.707 24.1963C32.664 24.0343 32.625 23.8723 32.588 23.7083C34.0064 22.0325 35.0208 20.0533 35.553 17.9233C36.2481 17.2586 36.7535 16.4207 37.0171 15.4959C37.2808 14.571 37.2932 13.5926 37.053 12.6613C37.121 11.0123 35.038 10.8323 33.648 10.7953C32.589 10.7683 29.54 10.9303 26.227 7.3123C26.0931 7.16581 25.9216 7.05897 25.7311 7.00344C25.5406 6.94791 25.3384 6.94585 25.1468 6.99746C24.9552 7.04908 24.7815 7.1524 24.6447 7.29611C24.5078 7.43982 24.4132 7.61839 24.371 7.8123C23.523 11.7453 20.44 12.0963 19.571 13.2243C19.571 12.8373 19.561 12.4593 19.55 12.0913C19.232 1.5433 28.091 0.551295 31.127 3.3303ZM16.327 23.0153C17.419 21.9583 18.715 20.8953 19.354 16.1073C19.6476 16.8384 20.1102 17.4895 20.704 18.0073C21.0481 20.0234 21.9045 21.9173 23.191 23.5073C23.122 23.8363 23.053 24.1663 22.959 24.4883C20.6413 24.8766 18.2624 24.3483 16.327 23.0153ZM23.012 27.7433L24.5 29.9433H16.405C18.5548 29.0607 20.7622 28.3257 23.012 27.7433ZM11 53.9433V31.9433H45V53.9433H11Z" fill="black"/>
<path d="M28 46.9434C27.2089 46.9434 26.4355 46.7088 25.7777 46.2692C25.1199 45.8297 24.6072 45.205 24.3045 44.4741C24.0017 43.7432 23.9225 42.9389 24.0769 42.163C24.2312 41.3871 24.6122 40.6743 25.1716 40.1149C25.731 39.5555 26.4437 39.1746 27.2196 39.0202C27.9956 38.8659 28.7998 38.9451 29.5307 39.2478C30.2616 39.5506 30.8864 40.0633 31.3259 40.7211C31.7654 41.3789 32 42.1522 32 42.9434C32 44.0042 31.5786 45.0216 30.8284 45.7718C30.0783 46.5219 29.0609 46.9434 28 46.9434ZM28 40.9434C27.6044 40.9434 27.2178 41.0607 26.8889 41.2804C26.56 41.5002 26.3036 41.8125 26.1522 42.178C26.0009 42.5434 25.9613 42.9456 26.0384 43.3335C26.1156 43.7215 26.3061 44.0779 26.5858 44.3576C26.8655 44.6373 27.2219 44.8278 27.6098 44.9049C27.9978 44.9821 28.3999 44.9425 28.7654 44.7911C29.1308 44.6397 29.4432 44.3834 29.6629 44.0545C29.8827 43.7256 30 43.3389 30 42.9434C30 42.4129 29.7893 41.9042 29.4142 41.5291C29.0391 41.1541 28.5304 40.9434 28 40.9434Z" fill="black"/>
</svg>
