<svg width="19" height="19" viewBox="0 0 19 19" fill="none"
    xmlns="http://www.w3.org/2000/svg">
    <path d="M18.5419 16.132L16.3505 18.3235C14.3955 20.2785 8.12808 17.7085 4.70983 14.2902C1.29126 10.8715 -1.27856 4.60441 0.676655 2.64912L2.86809 0.45761C3.52247 -0.196788 4.55871 -0.141936 5.14503 0.57473L8.05166 4.1275C8.60649 4.80567 8.55707 5.83269 7.93825 6.45153L6.55373 7.83609C6.37904 8.01079 6.33125 8.37299 6.45411 8.57785C6.4917 8.6493 6.51995 8.70285 6.56605 8.78364C6.64664 8.92488 6.7464 9.08598 6.86593 9.26318C7.21151 9.77551 7.64386 10.3083 8.16769 10.8322C8.69149 11.356 9.22494 11.7888 9.73833 12.135C9.91593 12.2548 10.0775 12.3549 10.2191 12.4357C10.3002 12.482 10.354 12.5104 10.3767 12.5215C10.6282 12.6659 10.9912 12.6186 11.1637 12.4462L12.5482 11.0616C13.1668 10.443 14.1945 10.3938 14.8721 10.9482L18.4248 13.8549C19.1421 14.4419 19.1969 15.4769 18.5419 16.132ZM5.63174 6.91407L7.01626 5.52951C7.16071 5.38505 7.17377 5.11365 7.04249 4.95318L4.13586 1.40041C4.03686 1.2794 3.89768 1.27203 3.79009 1.37963L1.59864 3.57115C0.37231 4.79752 2.67367 10.4099 5.63182 13.3681C8.58966 16.3261 14.2024 18.6276 15.4285 17.4015L17.6199 15.2099C17.7282 15.1017 17.7208 14.9637 17.5991 14.8641L14.0465 11.9574C13.8864 11.8265 13.6143 11.8395 13.4702 11.9837L12.0857 13.3682C11.5007 13.9532 10.5038 14.0881 9.78353 13.6828C9.61639 13.5993 9.34942 13.4455 9.00925 13.2161C8.42919 12.8248 7.83116 12.3397 7.2457 11.7542C6.66026 11.1687 6.17553 10.5714 5.78498 9.99236C5.55758 9.65525 5.40474 9.39025 5.32105 9.22323C4.90615 8.50299 5.04417 7.50166 5.63174 6.91407Z" fill="#FEBB24"/>
</svg>
    