<svg xmlns="http://www.w3.org/2000/svg" width="64" height="64" viewBox="0 0 64 64" fill="none">
<circle cx="32" cy="32" r="32" fill="#1A2449"/>
<path d="M37.6651 18C37.7297 18 37.7943 18 37.8626 18C38.0212 19.9586 37.2736 21.4221 36.365 22.4819C35.4735 23.5344 34.2527 24.5551 32.2783 24.4003C32.1466 22.4697 32.8954 21.1148 33.8027 20.0574C34.6442 19.072 36.187 18.1951 37.6651 18Z" fill="white"/>
<path d="M43.6423 38.3862C43.6423 38.4057 43.6423 38.4228 43.6423 38.4411C43.0875 40.1217 42.296 41.562 41.3301 42.8986C40.4483 44.1121 39.3678 45.745 37.4384 45.745C35.7713 45.745 34.6639 44.6731 32.9553 44.6438C31.148 44.6145 30.154 45.5402 28.5015 45.7731C28.3125 45.7731 28.1234 45.7731 27.9381 45.7731C26.7246 45.5975 25.7453 44.6365 25.0319 43.7706C22.9281 41.2119 21.3025 37.9069 21 33.6775C21 33.2628 21 32.8494 21 32.4348C21.1281 29.4078 22.5988 26.9467 24.5538 25.754C25.5855 25.1198 27.0039 24.5796 28.5832 24.8211C29.2601 24.9259 29.9516 25.1577 30.5577 25.3869C31.1321 25.6077 31.8504 25.9991 32.5309 25.9784C32.9919 25.965 33.4505 25.7247 33.9151 25.5552C35.2762 25.0637 36.6104 24.5003 38.369 24.765C40.4825 25.0845 41.9825 26.0235 42.9094 27.4724C41.1215 28.6102 39.708 30.3249 39.9495 33.2531C40.1642 35.913 41.7106 37.4691 43.6423 38.3862Z" fill="white"/>
</svg>