<svg width="97" height="97" viewBox="0 0 97 97" fill="none" xmlns="http://www.w3.org/2000/svg">
<g filter="url(#filter0_d_3013_3)">
<circle cx="48.5" cy="48.5" r="38.5" fill="#003FBC"/>
</g>
<path fill-rule="evenodd" clip-rule="evenodd" d="M27 45.0435C27 39.5 31.5242 35 37.0731 35C42.3059 35 46.8628 39.4674 47.2226 44.9674C47.2444 45.2934 47.2553 45.6196 47.2553 45.9457C47.2553 48.337 46.6993 50.8804 45.6964 53.0543C43.963 56.7935 40.5944 60.0761 36.201 62.2935C36.0921 62.3568 35.9378 62.4126 35.7697 62.4735C35.7359 62.4857 35.7015 62.4981 35.6668 62.5109C35.6204 62.5301 35.5617 62.5521 35.5008 62.575C35.39 62.6164 35.2723 62.6606 35.209 62.6956C35.0019 62.9021 34.7293 63 34.4568 63C34.1951 63 33.9444 62.913 33.7372 62.7391C33.2794 62.3369 33.2357 61.6522 33.6282 61.2065C35.318 59.2826 36.092 57.2065 35.9611 55.0217C30.9464 54.4674 27 50.1739 27 45.0435ZM50.8301 45.0435C50.8301 39.5 55.3543 35 60.9032 35C66.1469 35 70.6929 39.4674 71.0527 44.9674C71.0745 45.2934 71.0854 45.6196 71.0854 45.9457C71.0854 48.337 70.5294 50.8804 69.5265 53.0543C67.7931 56.7935 64.4245 60.0761 60.042 62.2935C59.9003 62.3696 59.715 62.4348 59.4969 62.5109C59.4544 62.5285 59.4016 62.5484 59.3466 62.5692C59.2324 62.6123 59.1088 62.6589 59.05 62.6956C58.8319 62.9021 58.5594 63 58.2869 63C58.0361 63 57.7744 62.913 57.5673 62.7391C57.1204 62.3369 57.0659 61.6522 57.4692 61.2065C59.1481 59.2826 59.9221 57.2065 59.8022 55.0217C54.7765 54.4674 50.8301 50.1739 50.8301 45.0435Z" fill="#FEBB24"/>
<defs>
<filter id="filter0_d_3013_3" x="0.909091" y="0.909091" width="95.1818" height="95.1818" filterUnits="userSpaceOnUse" color-interpolation-filters="sRGB">
<feFlood flood-opacity="0" result="BackgroundImageFix"/>
<feColorMatrix in="SourceAlpha" type="matrix" values="0 0 0 0 0 0 0 0 0 0 0 0 0 0 0 0 0 0 127 0" result="hardAlpha"/>
<feOffset/>
<feGaussianBlur stdDeviation="4.54545"/>
<feComposite in2="hardAlpha" operator="out"/>
<feColorMatrix type="matrix" values="0 0 0 0 0 0 0 0 0 0 0 0 0 0 0 0 0 0 0.05 0"/>
<feBlend mode="normal" in2="BackgroundImageFix" result="effect1_dropShadow_3013_3"/>
<feBlend mode="normal" in="SourceGraphic" in2="effect1_dropShadow_3013_3" result="shape"/>
</filter>
</defs>
</svg>
