<svg width="74" height="47" viewBox="0 0 74 47" fill="none" xmlns="http://www.w3.org/2000/svg">
<path fill-rule="evenodd" clip-rule="evenodd" d="M0 16.8587C0 7.55359 7.59422 0 16.9085 0C25.6921 0 33.3411 7.4988 33.945 16.7309C33.9817 17.2783 34 17.8257 34 18.3731C34 22.3871 33.0667 26.6564 31.3832 30.3055C28.4736 36.5819 22.8191 42.092 15.4446 45.814C15.2617 45.9204 15.0028 46.014 14.7205 46.1162C14.6638 46.1367 14.6061 46.1576 14.5479 46.1789C14.47 46.2113 14.3714 46.2483 14.2691 46.2865C14.0833 46.3562 13.8856 46.4302 13.7794 46.4891C13.4317 46.8357 12.9742 47 12.5167 47C12.0775 47 11.6566 46.854 11.3089 46.5621C10.5404 45.887 10.4671 44.7376 11.126 43.9895C13.9623 40.76 15.2616 37.2752 15.0419 33.6079C6.62432 32.6773 0 25.4704 0 16.8587ZM40 16.8587C40 7.55359 47.5942 0 56.9085 0C65.7104 0 73.3412 7.4988 73.945 16.7309C73.9817 17.2783 74 17.8257 74 18.3731C74 22.3871 73.0667 26.6564 71.3832 30.3055C68.4736 36.5819 62.8192 42.092 55.4629 45.814C55.225 45.9418 54.9139 46.0512 54.5479 46.1789C54.4766 46.2086 54.3879 46.242 54.2957 46.2768C54.1038 46.3492 53.8965 46.4275 53.7977 46.4891C53.4317 46.8357 52.9742 47 52.5167 47C52.0959 47 51.6566 46.854 51.3089 46.5621C50.5587 45.887 50.4672 44.7376 51.1443 43.9895C53.9623 40.76 55.2616 37.2752 55.0603 33.6079C46.6243 32.6773 40 25.4704 40 16.8587Z" fill="#003FBC"/>
</svg>
