<svg width="38" height="33" viewBox="0 0 38 33" fill="none" xmlns="http://www.w3.org/2000/svg">
<path d="M12.9962 25.9925C5.83026 25.9925 0 20.1622 0 12.9962C0 5.83026 5.83026 0 12.9962 0C20.1622 0 25.9925 5.83026 25.9925 12.9962C25.9925 20.1622 20.1622 25.9925 12.9962 25.9925ZM12.9962 1.56945C6.69545 1.56945 1.56945 6.69545 1.56945 12.9962C1.56945 19.297 6.69545 24.423 12.9962 24.423C19.297 24.423 24.423 19.297 24.423 12.9962C24.423 6.69545 19.297 1.56945 12.9962 1.56945Z" fill="#003FBC"/>
<path d="M12.9961 25.9925C9.64567 25.9925 7.83789 19.2963 7.83789 12.9962C7.83789 6.69622 9.64567 0 12.9961 0C16.3469 0 18.1546 6.69622 18.1546 12.9962C18.1546 19.2963 16.3469 25.9925 12.9961 25.9925ZM12.9961 1.56945C11.4975 1.56945 9.40734 5.91686 9.40734 12.9962C9.40734 20.0756 11.4975 24.423 12.9961 24.423C14.4946 24.423 16.5852 20.0756 16.5852 12.9962C16.5852 5.91686 14.4946 1.56945 12.9961 1.56945Z" fill="#003FBC"/>
<path d="M12.9982 18.156C6.69779 18.156 0.00195312 16.3482 0.00195312 12.9971C0.00195312 9.64665 6.69779 7.83887 12.9982 7.83887C19.2986 7.83887 25.9944 9.64665 25.9944 12.9971C25.9944 16.3482 19.2986 18.156 12.9982 18.156ZM12.9982 9.40832C5.91843 9.40832 1.5714 11.4989 1.5714 12.9971C1.5714 14.496 5.91843 16.5866 12.9982 16.5866C20.078 16.5866 24.425 14.496 24.425 12.9971C24.425 11.4989 20.078 9.40832 12.9982 9.40832Z" fill="#003FBC"/>
<path d="M33.8111 32.9289H31.9696C29.8427 32.9289 28.1123 31.1986 28.1123 29.072V21.9114C28.1123 19.7848 29.8427 18.0552 31.9696 18.0552H33.8111C35.9377 18.0552 37.6681 19.7848 37.6681 21.9114V29.072C37.6681 31.1986 35.9377 32.9289 33.8111 32.9289ZM31.9696 19.6246C30.7083 19.6246 29.6818 20.6507 29.6818 21.9114V29.072C29.6818 30.3334 30.7083 31.3595 31.9696 31.3595H33.8111C35.0725 31.3595 36.0986 30.3334 36.0986 29.072V21.9114C36.0986 20.6507 35.0725 19.6246 33.8111 19.6246H31.9696Z" fill="#003FBC"/>
<path d="M19.9155 30.1743H17.1801C14.4408 30.1743 12.2119 27.9458 12.2119 25.2061C12.2119 24.7724 12.5633 24.4214 12.9966 24.4214C13.43 24.4214 13.7814 24.7724 13.7814 25.2061C13.7814 27.0798 15.306 28.6048 17.1801 28.6048H19.9155C22.2444 28.6048 24.2483 27.0231 24.7894 24.7578L27.724 12.4689C28.0493 11.1056 29.2559 10.1538 30.6579 10.1538C32.3213 10.1538 33.6742 11.5072 33.6742 13.1701V21.8174C33.6742 22.2511 33.3229 22.6021 32.8895 22.6021C32.4561 22.6021 32.1048 22.2511 32.1048 21.8174V13.1701C32.1048 12.3723 31.4557 11.7233 30.6579 11.7233C29.9855 11.7233 29.4065 12.18 29.2506 12.8337L26.3159 25.1226C25.6055 28.0967 22.9735 30.1743 19.9155 30.1743Z" fill="#003FBC"/>
</svg>
