<svg width="57" height="57" viewBox="0 0 57 57" fill="none" xmlns="http://www.w3.org/2000/svg">
<path d="M47.939 13.0303C48.0905 13.0303 48.2441 12.9917 48.3847 12.9105L53.9424 9.70186C54.3696 9.45514 54.5159 8.90895 54.2693 8.4818C54.0228 8.05466 53.4765 7.90835 53.0493 8.15496L47.4916 11.3636C47.0645 11.6103 46.9181 12.1565 47.1647 12.5836C47.3302 12.8701 47.6303 13.0303 47.939 13.0303Z" fill="#020842"/>
<path d="M42.9083 7.95477C42.9857 7.97548 43.0634 7.9854 43.14 7.9854C43.5343 7.9854 43.8952 7.72223 44.0021 7.32321L45.663 1.12438C45.7907 0.647962 45.508 0.158239 45.0315 0.0305755C44.5553 -0.0968701 44.0654 0.185712 43.9377 0.662134L42.2767 6.86096C42.1491 7.33738 42.4318 7.82711 42.9083 7.95477Z" fill="#020842"/>
<path d="M56.338 19.6125L50.1392 17.9515C49.6627 17.824 49.173 18.1066 49.0453 18.583C48.9176 19.0595 49.2004 19.5492 49.6768 19.6768L55.8756 21.3379C55.9531 21.3586 56.0308 21.3685 56.1074 21.3685C56.5017 21.3685 56.8625 21.1053 56.9695 20.7063C57.0972 20.2299 56.8144 19.7402 56.338 19.6125Z" fill="#020842"/>
<path d="M55.2656 39.2603C54.9503 38.8623 54.7883 38.364 54.8096 37.8567L54.8654 36.526C54.9419 34.7048 53.7689 33.0914 52.013 32.6023L50.7318 32.2455C50.2413 32.1089 49.8163 31.8001 49.5351 31.3758L48.8026 30.2705C48.1858 29.3398 47.2358 28.7484 46.1997 28.5747L44.3549 25.3793C44.8862 24.4997 45.2978 23.5409 45.5712 22.5207C46.3347 19.6713 45.9429 16.6949 44.4678 14.1401C42.9928 11.5852 40.6112 9.75764 37.7616 8.99417C36.7411 8.72072 35.7044 8.59622 34.6766 8.61592L30.882 2.04342C29.8635 0.279682 27.6003 -0.327129 25.8366 0.691563L24.2197 1.625C22.9808 2.34034 22.314 3.67018 22.3793 5.00961C22.312 5.14139 22.2766 5.29083 22.2821 5.44662C22.4065 9.01194 21.7439 11.9643 20.2565 14.4725C18.9695 16.6425 17.0518 18.4827 14.394 20.0976L4.904 25.5766C3.2652 26.5227 2.62647 28.5436 3.36088 30.24L3.30395 30.2729C0.147246 32.0954 -0.938167 36.1463 0.884338 39.303C2.10739 41.4214 4.33393 42.6069 6.62043 42.6069C7.74105 42.6069 8.87618 42.3221 9.9145 41.7226L9.97219 41.6893C10.684 42.648 11.7985 43.1792 12.9411 43.1792C13.5672 43.1791 14.2015 43.0201 14.7816 42.6851L14.8165 42.6649L20.0874 51.7943C20.5807 52.6487 21.3771 53.2599 22.3301 53.5152C22.6483 53.6005 22.9712 53.6426 23.2921 53.6426C23.932 53.6426 24.5637 53.4748 25.1328 53.1463L25.9412 52.6794C26.7956 52.1862 27.4067 51.3897 27.6621 50.4368C27.9174 49.4838 27.7864 48.4886 27.2931 47.6342L22.0222 38.5047L24.2715 37.2061C25.9848 36.268 27.7855 35.6741 29.6468 35.4259C29.5607 35.7782 29.5219 36.1474 29.5378 36.5259L29.5936 37.8567C29.6149 38.364 29.453 38.8626 29.1377 39.2604L28.3096 40.3051C27.1784 41.7324 27.1784 43.7263 28.3096 45.1536L29.1377 46.1985C29.453 46.5963 29.6149 47.0948 29.5936 47.6021L29.5378 48.9327C29.4614 50.7539 30.6343 52.3673 32.3902 52.8563L33.6716 53.2133C34.1619 53.3498 34.5869 53.6587 34.8681 54.0831L35.6006 55.1883C36.6094 56.7103 38.5086 57.327 40.2193 56.6886L41.4612 56.2249C41.9388 56.0466 42.4646 56.0466 42.9421 56.2249L44.184 56.6885C44.6358 56.8572 45.1006 56.9384 45.5588 56.9384C46.8356 56.9384 48.0603 56.3084 48.8026 55.1883L49.5351 54.0831C49.8164 53.6587 50.2413 53.3498 50.7318 53.2133L52.0129 52.8564C53.7689 52.3673 54.9419 50.7539 54.8654 48.9328L54.8096 47.6021C54.7883 47.0948 54.9503 46.5963 55.2656 46.1985L56.0936 45.1536C57.2248 43.7263 57.2248 41.7324 56.0936 40.3051L55.2656 39.2603ZM25.9367 49.9745C25.8049 50.4666 25.4893 50.8779 25.0481 51.1327L24.2397 51.5994C23.7985 51.854 23.2846 51.9219 22.7924 51.7898C22.3003 51.658 21.889 51.3424 21.6343 50.9012L16.3635 41.7718L20.4753 39.3978L25.7462 48.5273C26.0009 48.9685 26.0686 49.4824 25.9367 49.9745ZM37.2993 10.7194C39.688 11.3595 41.6845 12.8915 42.9209 15.0332C44.1574 17.1748 44.4859 19.6697 43.8458 22.0585C43.7066 22.5781 43.5238 23.0783 43.3027 23.5567L35.7301 10.4407C36.2551 10.4884 36.7797 10.5802 37.2993 10.7194ZM25.1129 3.17179L26.7297 2.23846C27.0293 2.06545 27.3567 1.98324 27.6801 1.98324C28.3397 1.98324 28.9822 2.32535 29.3351 2.93652L44.239 28.7509C44.2206 28.7575 44.2022 28.7633 44.1839 28.7701L42.942 29.2339C42.4646 29.4124 41.9387 29.4122 41.4612 29.2338L40.2192 28.7703C39.3664 28.4517 38.4667 28.4455 37.6538 28.7079L31.3462 17.7828L24.4147 5.77718C23.889 4.86641 24.2022 3.69768 25.1129 3.17179ZM21.7928 15.3836C22.9853 13.3729 23.7054 11.1267 23.9688 8.57727L36.1258 29.6336C35.9323 29.8237 35.7558 30.0363 35.6006 30.2705L34.8681 31.3758C34.5869 31.8001 34.1619 32.1089 33.6715 32.2455L32.3903 32.6023C31.753 32.7798 31.1931 33.106 30.7412 33.5358C28.4619 33.6541 26.2725 34.2243 24.1819 35.2445L16.0513 21.1619C18.5916 19.4996 20.4762 17.6038 21.7928 15.3836ZM2.43124 38.4099C1.10118 36.1062 1.89333 33.1499 4.19705 31.8198L4.232 31.7996L9.05633 40.1555L9.0214 40.1757C6.71767 41.506 3.76135 40.7136 2.43124 38.4099ZM11.2831 40.4401L5.09898 29.7289C4.57317 28.8181 4.88634 27.6493 5.7971 27.1235L14.5223 22.086L22.6137 36.1007L13.8885 41.1381C12.9778 41.6641 11.809 41.3508 11.2831 40.4401ZM54.6937 44.0442L53.8657 45.0891C53.2843 45.8226 52.9858 46.7417 53.025 47.6769L53.0808 49.0077C53.1223 49.9953 52.4861 50.8705 51.5337 51.1357L50.2526 51.4925C49.3484 51.7443 48.5648 52.3138 48.0462 53.0962L47.3137 54.2015C46.7667 55.0271 45.7365 55.3615 44.8088 55.0151L43.5668 54.5514C43.1266 54.3871 42.6641 54.3049 42.2016 54.3049C41.7392 54.3049 41.2766 54.3871 40.8364 54.5514L39.5945 55.0151C38.6668 55.362 37.6367 55.027 37.0895 54.2015L36.357 53.0962C35.8384 52.3138 35.0549 51.7443 34.1508 51.4926L32.8695 51.1356C31.9171 50.8705 31.281 49.9953 31.3225 49.0076L31.3783 47.6769C31.4175 46.7417 31.1189 45.8226 30.5375 45.0891L29.7095 44.0442C29.0959 43.2701 29.0959 42.1887 29.7094 41.4146L30.5375 40.3698C31.1189 39.6363 31.4175 38.7171 31.3783 37.7819L31.3225 36.451C31.281 35.4634 31.9171 34.5883 32.8695 34.3231L34.1508 33.9663C35.055 33.7144 35.8385 33.1448 36.357 32.3626L37.0895 31.2572C37.6365 30.4317 38.6665 30.0972 39.5945 30.4436L40.8363 30.9072C41.7167 31.2359 42.6865 31.2358 43.5668 30.9073L44.8088 30.4435C45.7365 30.0973 46.7667 30.4317 47.3137 31.2574L48.0462 32.3626C48.5647 33.1448 49.3482 33.7144 50.2525 33.9663L51.5338 34.3231C52.4861 34.5883 53.1223 35.4634 53.0808 36.4511L53.025 37.7819C52.9858 38.7171 53.2843 39.6362 53.8657 40.3697L54.6937 41.4145C55.3073 42.1887 55.3073 43.2701 54.6937 44.0442Z" fill="#020842"/>
<path d="M39.6857 40.2139L39.6857 40.2138C40.2615 39.638 40.5787 38.8724 40.5787 38.058C40.5787 37.2437 40.2616 36.478 39.6857 35.9022C38.4969 34.7136 36.5628 34.7136 35.374 35.9022C34.1852 37.0909 34.1852 39.0252 35.3739 40.2138C35.9498 40.7898 36.7155 41.1069 37.5298 41.1069C38.3442 41.1069 39.1098 40.7898 39.6857 40.2139ZM36.637 37.1653C36.8832 36.9191 37.2065 36.796 37.5298 36.796C37.8531 36.796 38.1765 36.9191 38.4227 37.1653C38.6612 37.4037 38.7925 37.7208 38.7925 38.058C38.7925 38.3952 38.6612 38.7124 38.4227 38.9508L38.4226 38.9509C38.1841 39.1894 37.8671 39.3207 37.5298 39.3207C37.1926 39.3207 36.8755 39.1894 36.637 38.9508C36.1447 38.4586 36.1447 37.6575 36.637 37.1653Z" fill="#020842"/>
<path d="M44.7173 45.2451C44.1414 45.8209 43.8242 46.5866 43.8242 47.401C43.8242 48.2154 44.1414 48.981 44.7173 49.5569C45.3116 50.1511 46.0923 50.4483 46.8731 50.4483C47.6539 50.4483 48.4346 50.1511 49.0289 49.5569C50.2177 48.3681 50.2177 46.4339 49.0289 45.2451C47.8402 44.0563 45.9059 44.0563 44.7173 45.2451ZM47.7659 48.2938C47.2737 48.7861 46.4727 48.7862 45.9803 48.2938C45.7418 48.0553 45.6104 47.7382 45.6104 47.401C45.6104 47.0638 45.7418 46.7466 45.9803 46.5082C46.2264 46.262 46.5497 46.139 46.8731 46.139C47.1965 46.139 47.5198 46.262 47.7659 46.5082C48.2582 47.0004 48.2582 47.8015 47.7659 48.2938Z" fill="#020842"/>
<path d="M47.308 37.6228C46.9593 37.2742 46.3938 37.2742 46.045 37.6228L37.0956 46.5722C36.7468 46.9211 36.7468 47.4865 37.0956 47.8354C37.27 48.0097 37.4985 48.0969 37.7271 48.0969C37.9557 48.0969 38.1842 48.0097 38.3586 47.8354L47.308 38.8859C47.6568 38.5371 47.6568 37.9717 47.308 37.6228Z" fill="#020842"/>
</svg>
