<svg width="28" height="35" viewBox="0 0 28 35" fill="none" xmlns="http://www.w3.org/2000/svg">
<path d="M27.4826 3.02811C27.2952 2.88033 27.0498 2.82705 26.818 2.88422C25.7423 3.14633 24.641 3.28361 23.5513 3.29217H23.4296C20.1839 3.29217 17.0483 2.20871 14.3618 0.159251C14.0833 -0.0530838 13.6968 -0.0530838 13.4183 0.159251C10.7319 2.20871 7.59623 3.29217 4.35054 3.29217H4.23504C3.13914 3.28361 2.0378 3.14633 0.96212 2.88422C0.73034 2.82705 0.485338 2.88033 0.297503 3.02811C0.109668 3.1755 0 3.40106 0 3.63984V15.6111C0 24.894 5.63038 32.8565 13.6921 34.9748C13.7571 34.9919 13.8236 35.0005 13.8901 35.0005C13.9566 35.0005 14.0231 34.9919 14.0876 34.9748C22.1494 32.8565 27.7797 24.894 27.7797 15.6111V3.63984C27.7801 3.40106 27.6705 3.1755 27.4826 3.02811ZM26.2246 15.6111C26.2246 24.1104 21.1627 31.3998 13.8901 33.4169C6.61739 31.3994 1.55557 24.1104 1.55557 15.6111V4.59885C2.43874 4.75713 3.33358 4.84074 4.22882 4.84774H4.35054C7.75101 4.84774 11.0372 3.77673 13.8901 1.74399C16.743 3.77673 20.0291 4.84774 23.4296 4.84774H23.5572C24.4481 4.84074 25.3414 4.75713 26.2242 4.59885L26.2246 15.6111Z" fill="#003FBC"/>
<path d="M19.2462 13.6339L16.2802 12.7597L14.5321 10.2086C14.387 9.997 14.1471 9.87061 13.8904 9.87061C13.6338 9.87061 13.3938 9.997 13.2487 10.2086L11.5007 12.7597L8.5346 13.6339C8.28843 13.7066 8.09398 13.8956 8.01465 14.1395C7.93531 14.3833 7.98159 14.6509 8.13793 14.8543L10.0237 17.3051L9.93889 20.3964C9.9315 20.653 10.0517 20.8965 10.2589 21.047C10.4666 21.1979 10.7361 21.2364 10.9768 21.1504L13.8904 20.1144L16.804 21.1504C16.8888 21.1808 16.9767 21.1955 17.0646 21.1955C17.0669 21.1955 17.0696 21.1951 17.0723 21.1955C17.5017 21.1955 17.8501 20.8471 17.8501 20.4178C17.8501 20.3726 17.8462 20.3287 17.8388 20.2859L17.7572 17.3051L19.6429 14.8543C19.7992 14.6509 19.8455 14.3837 19.7662 14.1395C19.6869 13.8953 19.4924 13.7062 19.2462 13.6339ZM16.3556 16.5755C16.2463 16.7174 16.1896 16.8924 16.1946 17.0713L16.2561 19.3044L14.151 18.5561C14.0666 18.5262 13.9787 18.511 13.8904 18.511C13.8021 18.511 13.7143 18.5262 13.6299 18.5561L11.5248 19.3044L11.5862 17.0713C11.5913 16.8924 11.5345 16.7174 11.4252 16.5755L10.0629 14.8049L12.2057 14.1733C12.3772 14.1228 12.5262 14.0146 12.6273 13.8669L13.8904 12.0239L15.1535 13.8669C15.2547 14.0143 15.4036 14.1228 15.5751 14.1733L17.7179 14.8049L16.3556 16.5755Z" fill="#003FBC"/>
</svg>
