<svg width="35" height="35" viewBox="0 0 35 35" fill="none" xmlns="http://www.w3.org/2000/svg">
<path d="M17.5 8.75C12.6752 8.75 8.75 12.6752 8.75 17.5C8.75 22.3247 12.6752 26.25 17.5 26.25C22.3247 26.25 26.25 22.3247 26.25 17.5C26.25 12.6752 22.3247 8.75 17.5 8.75ZM17.5 24.7917C13.4794 24.7917 10.2083 21.5207 10.2083 17.5C10.2083 13.4794 13.4794 10.2083 17.5 10.2083C21.5207 10.2083 24.7917 13.4794 24.7917 17.5C24.7917 21.5207 21.5207 24.7917 17.5 24.7917Z" fill="#003FBC"/>
<path d="M34.3369 14.5863L29.4346 14.1407C29.1699 13.1984 28.7944 12.2926 28.3137 11.4373L31.4658 7.65486C31.7073 7.36517 31.6879 6.93911 31.4213 6.67246L28.3278 3.5789C28.061 3.31217 27.6351 3.29284 27.3453 3.53434L23.5627 6.68646C22.7075 6.20572 21.8017 5.83012 20.8595 5.56551L20.4138 0.66325C20.3796 0.287583 20.0646 0 19.6875 0H15.3125C14.9354 0 14.6205 0.287583 14.5863 0.663177L14.1407 5.56544C13.1984 5.83005 12.2927 6.20557 11.4373 6.68639L7.65479 3.53427C7.36509 3.29284 6.93912 3.31217 6.67239 3.57882L3.57875 6.67239C3.31217 6.93904 3.29277 7.36509 3.53427 7.65479L6.68639 11.4373C6.20557 12.2927 5.83005 13.1983 5.56544 14.1406L0.663177 14.5862C0.287583 14.6204 0 14.9354 0 15.3125V19.6875C0 20.0646 0.287583 20.3795 0.663177 20.4137L5.56544 20.8593C5.83005 21.8016 6.20565 22.7073 6.68639 23.5626L3.53434 27.3452C3.29284 27.6349 3.31224 28.0609 3.57882 28.3276L6.67246 31.4212C6.93919 31.6879 7.36517 31.7072 7.65487 31.4658L11.4373 28.3137C12.2926 28.7944 13.1984 29.1699 14.1407 29.4346L14.5863 34.3369C14.6205 34.7125 14.9354 35 15.3125 35H19.6875C20.0646 35 20.3796 34.7125 20.4137 34.3368L20.8594 29.4346C21.8018 29.1699 22.7074 28.7944 23.5627 28.3136L27.3452 31.4657C27.635 31.7072 28.0609 31.6879 28.3277 31.4212L31.4213 28.3275C31.6878 28.0609 31.7072 27.6348 31.4657 27.3451L28.3136 23.5626C28.7944 22.7073 29.1699 21.8018 29.4346 20.8593L34.3368 20.4137C34.7123 20.3795 34.9999 20.0646 34.9999 19.6875V15.3125C35 14.9354 34.7125 14.6204 34.3369 14.5863ZM33.5417 19.0216L28.791 19.4535C28.4784 19.4819 28.219 19.7072 28.1473 20.0128C27.878 21.1579 27.4264 22.2473 26.8048 23.2506C26.6394 23.5175 26.6634 23.8603 26.8644 24.1014L29.9192 27.7672L27.7673 29.9191L24.1016 26.8643C23.8602 26.6632 23.5176 26.6393 23.2508 26.8046C22.2473 27.4262 21.158 27.8779 20.0129 28.1471C19.7074 28.219 19.4821 28.4783 19.4536 28.7909L19.0216 33.5417H15.9784L15.5465 28.791C15.5181 28.4784 15.2928 28.219 14.9872 28.1472C13.8422 27.878 12.7528 27.4263 11.7493 26.8047C11.4824 26.6392 11.1398 26.6634 10.8985 26.8643L7.23282 29.9192L5.08091 27.7673L8.13575 24.1015C8.33671 23.8604 8.36077 23.5176 8.1954 23.2507C7.57371 22.2472 7.12199 21.1579 6.85293 20.0129C6.7811 19.7073 6.52174 19.482 6.20915 19.4536L1.45833 19.0216V15.9784L6.20907 15.5465C6.52167 15.5181 6.78103 15.2927 6.85285 14.9871C7.12192 13.8423 7.57364 12.7529 8.19532 11.7493C8.3607 11.4824 8.33664 11.1397 8.13568 10.8985L5.08083 7.23282L7.23275 5.08091L10.8984 8.13568C11.1396 8.33663 11.4823 8.3607 11.7492 8.1954C12.7529 7.57371 13.8422 7.12199 14.9871 6.85293C15.2927 6.7811 15.518 6.52174 15.5464 6.20907L15.9784 1.45833H19.0216L19.4535 6.20907C19.482 6.52174 19.7073 6.78103 20.0129 6.85293C21.1578 7.12199 22.2472 7.57371 23.2507 8.1954C23.5176 8.36077 23.8603 8.33663 24.1015 8.13568L27.7673 5.08091L29.9192 7.23282L26.8643 10.8985C26.6634 11.1397 26.6393 11.4824 26.8047 11.7493C27.4263 12.7528 27.878 13.8422 28.1472 14.9872C28.219 15.2928 28.4783 15.5181 28.7909 15.5465L33.5417 15.9784V19.0216Z" fill="#003FBC"/>
<path d="M19.1283 15.2598L18.194 12.3837C18.0962 12.0833 17.8163 11.8799 17.5004 11.8799C17.1845 11.8799 16.9045 12.0833 16.8069 12.3837L15.8724 15.2598H12.8484C12.5325 15.2598 12.2525 15.4632 12.1549 15.7636C12.0573 16.0641 12.1642 16.3932 12.4198 16.5789L14.8663 18.3563L13.9318 21.2324C13.8343 21.5328 13.9412 21.862 14.1967 22.0476C14.4523 22.2333 14.7984 22.2333 15.0539 22.0476L17.5004 20.27L19.9469 22.0475C20.2024 22.2332 20.5485 22.2332 20.8042 22.0475C21.0597 21.8619 21.1666 21.5327 21.0691 21.2323L20.1346 18.3563L22.5811 16.5789C22.8366 16.3931 22.9436 16.064 22.846 15.7636C22.7483 15.4632 22.4683 15.2597 22.1525 15.2597L19.1283 15.2598ZM18.5838 18.3031L18.9885 19.5487L17.9291 18.7789C17.6735 18.5932 17.3274 18.5931 17.0718 18.7789L16.0123 19.5487L16.417 18.3031C16.5146 18.0027 16.4076 17.6735 16.1521 17.4879L15.0926 16.718H16.4022C16.7181 16.718 16.9981 16.5146 17.0958 16.2142L17.5004 14.9686L17.9052 16.2142C18.0028 16.5146 18.2828 16.718 18.5986 16.718H19.9084L18.8489 17.4879C18.5931 17.6735 18.4863 18.0027 18.5838 18.3031Z" fill="#003FBC"/>
</svg>
