<svg width="27" height="32" viewBox="0 0 27 32" fill="none" xmlns="http://www.w3.org/2000/svg">
<path d="M20.9778 0C18.0449 0 15.6444 2.40045 15.6444 5.33333C15.6444 5.85146 15.7271 6.34763 15.8667 6.82222L8.63332 11.8222C7.72359 11.1014 6.57696 10.6667 5.33333 10.6667C2.40046 10.6667 0 13.0671 0 16C0 18.9329 2.40046 21.3333 5.33333 21.3333C6.58251 21.3333 7.73276 20.8932 8.64444 20.1666L15.8667 25.1667C15.7252 25.6443 15.6444 26.1448 15.6444 26.6667C15.6444 29.5995 18.0449 32 20.9778 32C23.9107 32 26.3111 29.5995 26.3111 26.6667C26.3111 23.7338 23.9107 21.3333 20.9778 21.3333C19.328 21.3333 17.847 22.0912 16.8667 23.2778L10.0334 18.5222C10.4408 17.7698 10.6667 16.9113 10.6667 16C10.6667 15.087 10.4311 14.2312 10.0222 13.4778C12.5204 11.8867 14.349 10.3032 16.8667 8.72222C17.847 9.90879 19.328 10.6667 20.9778 10.6667C23.9107 10.6667 26.3111 8.26622 26.3111 5.33333C26.3111 2.40045 23.9107 0 20.9778 0ZM20.9778 2.13333C22.7577 2.13333 24.1778 3.55339 24.1778 5.33333C24.1778 7.11328 22.7577 8.53333 20.9778 8.53333C19.1978 8.53333 17.7778 7.11328 17.7778 5.33333C17.7778 3.55339 19.1978 2.13333 20.9778 2.13333ZM5.33333 12.8C7.11328 12.8 8.53333 14.22 8.53333 16C8.53333 17.7799 7.11328 19.2 5.33333 19.2C3.55339 19.2 2.13333 17.7799 2.13333 16C2.13333 14.22 3.55339 12.8 5.33333 12.8ZM20.9778 23.4667C22.7577 23.4667 24.1778 24.8867 24.1778 26.6667C24.1778 28.4466 22.7577 29.8667 20.9778 29.8667C19.1978 29.8667 17.7778 28.4466 17.7778 26.6667C17.7778 24.8867 19.1978 23.4667 20.9778 23.4667Z" fill="#FEBB24"/>
</svg>
