<svg width="52" height="52" viewBox="0 0 52 52" fill="none" xmlns="http://www.w3.org/2000/svg">
<path d="M17.4846 24.4615C16.9715 24.7909 16.2877 24.6419 15.9582 24.1287C15.6287 23.6156 15.7778 22.9318 16.2909 22.6023L17.8827 21.5806C17.7742 21.5132 17.6552 21.4655 17.5317 21.4387C17.2676 21.3812 16.9826 21.4171 16.7374 21.5596L14.5933 22.9344C12.8694 24.0418 11.6176 25.6865 10.8175 27.5757C9.91796 29.6996 9.58196 32.1366 9.77349 34.4893C9.80749 34.928 9.5813 35.3267 9.22438 35.5333L8.28304 36.1373L14.1448 45.2683L15.13 44.6355C15.3705 44.4832 15.6693 44.4211 15.9687 44.4884C17.5206 44.8414 19.1921 45.1578 20.7669 45.1709C22.2501 45.1833 23.67 44.9297 24.8427 44.1772L35.2752 37.4794C35.5302 37.3159 35.6962 37.061 35.7564 36.7838C35.8165 36.504 35.7727 36.2014 35.6093 35.9471L34.9242 34.8802C34.7614 34.6266 34.5065 34.4606 34.2293 34.4004C33.9659 34.3429 33.6802 34.3788 33.4351 34.5207L31.2909 35.8961C30.7777 36.2256 30.094 36.0765 29.7645 35.5634C29.435 35.0502 29.5841 34.3664 30.0972 34.0369L32.2414 32.6596C32.4722 32.4955 32.6232 32.2536 32.68 31.9922C32.7408 31.713 32.697 31.4104 32.5336 31.1561L31.8492 30.0899C31.6857 29.8349 31.4308 29.6689 31.1536 29.6087C30.8738 29.5486 30.5718 29.5924 30.3169 29.7558L28.2152 31.1051C27.7021 31.4345 27.0183 31.2855 26.6888 30.7723C26.3593 30.2592 26.5084 29.5754 27.0215 29.2459L29.1232 27.8967C29.3775 27.7333 29.5436 27.4783 29.6037 27.2011C29.6645 26.9214 29.6207 26.6187 29.4573 26.3644L28.7728 25.2982C28.6094 25.0439 28.3545 24.8779 28.0773 24.8177C27.808 24.7589 27.5164 24.7975 27.268 24.9472L25.1389 26.3141C24.6257 26.6435 23.9419 26.4945 23.6125 25.9813C23.283 25.4682 23.432 24.7844 23.9452 24.4549L34.6647 17.5727C34.9183 17.4099 35.085 17.1543 35.1452 16.8765C35.206 16.5974 35.1622 16.2947 34.9987 16.0404L34.3136 14.9736C34.1509 14.7199 33.8959 14.5539 33.6188 14.4937C33.3435 14.4336 33.0435 14.4761 32.7912 14.6343C27.8975 18.0224 22.5561 21.2053 17.4846 24.4615ZM33.2324 21.1177L33.0853 22.2689L38.6013 19.6789C38.9099 19.5345 39.2518 19.5462 39.5387 19.6809L45.0031 22.2604L44.2441 16.2195C44.1997 15.8554 44.3382 15.5109 44.5873 15.2775L48.6854 10.9271L42.7079 9.78247C42.3477 9.71383 42.062 9.47719 41.9163 9.16864L39.0432 3.92264L36.1055 9.25493C35.9375 9.56086 35.6452 9.75567 35.3262 9.81123L29.401 10.9317L31.3059 12.9634L31.6616 12.7353C32.414 12.2796 33.2841 12.158 34.0855 12.3326C34.8902 12.5071 35.6328 12.9811 36.127 13.7106L36.8579 14.8467C37.3514 15.6161 37.4867 16.5163 37.3063 17.3432C37.1252 18.1748 36.6271 18.9383 35.8584 19.4318L33.2324 21.1177ZM29.4161 14.1767L26.4214 10.982C26.2789 10.8323 26.1763 10.6414 26.1358 10.4238C26.024 9.82496 26.4188 9.24708 27.0176 9.1353L34.4209 7.73506L38.077 1.09928C38.1771 0.921473 38.3254 0.767198 38.5176 0.662605C39.0517 0.371706 39.7224 0.569125 40.0133 1.1032L43.6316 7.70956L51.0753 9.1353C51.2747 9.17452 51.4656 9.26735 51.6245 9.41639C52.0683 9.83346 52.0892 10.5329 51.6722 10.9768L46.5046 16.4614L47.4499 23.9856C47.4728 24.1862 47.4427 24.3954 47.3505 24.5909C47.0903 25.142 46.4314 25.3786 45.8803 25.1184L39.0641 21.8976L32.2041 25.1184C32.0218 25.2041 31.8132 25.2407 31.5988 25.2132C31.489 25.1995 31.3844 25.1694 31.2883 25.1263L31.3164 25.1707C31.7753 25.8859 31.9243 26.7141 31.7982 27.4914C32.5591 27.7019 33.2494 28.1824 33.7083 28.8962L34.3927 29.9624C34.8523 30.6776 35.0007 31.5051 34.8745 32.2831C35.6099 32.4857 36.28 32.942 36.7376 33.6173L37.4684 34.7534C37.9613 35.5222 38.0966 36.423 37.9175 37.2506C37.7365 38.0814 37.2377 38.8443 36.4689 39.3385L26.0364 46.0364C24.4584 47.0496 22.6286 47.3909 20.7499 47.3752C19.1228 47.3615 17.4755 47.0791 15.9373 46.743L15.3385 47.1274L15.4666 47.3275C15.7961 47.8406 15.647 48.5244 15.1339 48.8539L10.6573 51.7282C10.1441 52.0577 9.46037 51.9086 9.1309 51.3955L0.175117 37.4467C-0.154351 36.9335 -0.0053058 36.2497 0.507854 35.9203L4.98509 33.0453C5.49825 32.7158 6.18203 32.8649 6.5115 33.378L7.08937 34.2782L7.52801 33.9971C7.42015 31.5215 7.82872 28.9792 8.78574 26.7194C9.75388 24.434 11.2809 22.4356 13.3996 21.0753L15.5026 19.7253C16.2726 19.2325 17.1715 19.0971 17.9984 19.2776C18.6835 19.426 19.3235 19.792 19.8033 20.347L29.4161 14.1767ZM30.6346 24.1091C30.6352 24.0666 30.6385 24.0241 30.6437 23.981L30.8111 22.6723L29.8724 23.275C30.1633 23.5005 30.4221 23.7777 30.632 24.1045L30.6346 24.1091ZM13.0106 47.5916L5.24919 35.5013L2.63109 37.1826L10.3932 49.2722L13.0106 47.5916Z" fill="black"/>
</svg>
