<svg width="141" height="24" viewBox="0 0 141 24" fill="none" xmlns="http://www.w3.org/2000/svg">
<path d="M14.0189 7.37883C13.7689 5.07692 12.3067 3.95997 9.31086 3.95997C6.52843 3.95997 5.06632 4.90764 5.06632 6.60043C5.06632 8.02267 6.10153 8.83434 8.74065 9.44345C11.4164 10.0526 14.0204 10.6617 15.7676 11.4068C17.8365 12.2865 19.477 13.6754 19.477 16.857C19.477 21.7994 15.5527 24 10.0244 24C4.17289 24 0.106723 21.5288 0 16.4852H4.77969C4.85134 18.7871 6.88366 20.2093 10.0594 20.2093C12.9852 20.2093 14.6608 19.0244 14.6608 17.0277C14.6608 15.7082 13.9472 14.7938 10.9864 14.1847C8.06067 13.5756 6.17167 13.169 4.49458 12.4586C1.96219 11.3735 0.535142 9.74873 0.535142 6.90571C0.535142 2.87774 3.4243 0 9.20261 0C14.9809 0 18.5485 3.0803 18.7269 7.37883H14.0189ZM30.747 12.2532H35.0632V16.9916C35.0632 20.5117 32.9227 23.66 27.9646 23.66C23.0065 23.66 20.7943 20.5464 20.7943 16.9568V2.06463H25.3605V6.56716H41.581V9.68073H25.3605V16.5184C25.3605 18.6178 26.1457 19.836 28.0363 19.836C29.9268 19.836 30.747 18.6511 30.747 16.5864V12.2532ZM48.3671 23.2202V20.885C47.155 22.7803 45.3346 23.6614 42.9089 23.6614C39.413 23.6614 36.9522 21.1903 36.9522 17.5341V12.2995H41.5901V16.857C41.5901 18.9564 42.5888 19.9706 44.5509 19.9706C46.905 19.9706 48.1536 18.3791 48.1536 16.1799V6.56716H52.7549V23.2216H48.3671V23.2202ZM66.9507 23.2202L66.9156 21.1888C65.8103 22.8816 64.1682 23.66 62.0292 23.66C57.6063 23.66 54.432 20.3424 54.432 14.7229C54.432 9.67929 57.1077 6.12443 61.6374 6.12443C63.813 6.12443 65.5252 6.97082 66.8455 8.73161V0.47456H71.4117V23.2216H66.9522L66.9507 23.2202ZM67.0223 15.2988C67.0223 11.6774 65.702 9.88329 63.1346 9.88329C60.4238 9.88329 59.14 11.6094 59.14 15.0282C59.14 18.0072 60.7805 20.0719 63.0995 20.0719C65.4184 20.0719 67.0239 18.1085 67.0239 15.2988H67.0223ZM77.6871 16.0439C77.8304 18.5483 79.3275 20.1731 81.6114 20.1731C83.1101 20.1731 84.4289 19.4627 84.7506 18.3111H89.5303C88.46 21.7299 85.5709 23.66 81.8249 23.66C75.9749 23.66 73.0492 20.613 73.0492 14.5884C73.0492 9.44345 76.1518 6.12587 81.5383 6.12587C86.9247 6.12587 89.7788 9.44345 89.7788 16.0439H77.6871ZM84.9991 13.2674C84.9275 10.7962 83.2153 9.61129 81.3965 9.61129C79.5776 9.61129 78.0072 10.9655 77.8289 13.2674H84.9991ZM102.619 23.2202V13.1329C102.619 10.5604 101.834 9.85001 99.6233 9.85001C97.1976 9.85001 96.0206 11.1362 96.0206 13.6754V23.2216H91.3827V6.56716H95.8057V9.00506C96.8759 7.14299 98.6598 6.12732 101.477 6.12732C104.83 6.12732 107.292 8.05739 107.292 11.6788V23.2216H102.619V23.2202ZM119.277 12.2532H123.593V16.9916C123.593 20.5117 121.453 23.66 116.495 23.66C111.537 23.66 109.324 20.5464 109.324 16.9568V2.06463H113.891V6.56716H123.593V9.68073H113.891V16.5184C113.891 18.6178 114.676 19.836 116.566 19.836C118.457 19.836 119.277 18.6511 119.277 16.5864V12.2532ZM136.042 11.6094C135.792 9.98457 134.865 9.40873 132.761 9.40873C131.014 9.40873 130.014 9.81529 130.014 10.7962C130.014 11.7772 130.977 12.1837 132.868 12.6916C134.865 13.2327 136.755 13.606 138.111 14.1138C139.966 14.8242 141 15.9759 141 18.1418C141 21.5939 138.324 23.66 133.331 23.66C127.945 23.66 124.949 21.2568 124.877 17.8712H129.657C129.657 19.428 131.047 20.3424 133.295 20.3424C134.935 20.3424 136.397 19.8679 136.397 18.6163C136.397 17.4314 135.077 17.0596 133.58 16.721C130.619 16.0439 128.978 15.5708 127.73 14.8257C126.089 13.8447 125.519 12.557 125.519 11.0682C125.519 8.2585 127.553 6.12587 132.903 6.12587C137.968 6.12587 140.251 8.02122 140.5 11.6094H136.04H136.042Z" fill="white"/>
</svg>
