<svg width="44" height="29" viewBox="0 0 44 29" fill="none" xmlns="http://www.w3.org/2000/svg">
<path fill-rule="evenodd" clip-rule="evenodd" d="M21.9994 0C18.3043 0 15.3037 3.00061 15.3037 6.69565C15.3037 10.3907 18.3043 13.3913 21.9994 13.3913C25.6944 13.3913 28.695 10.3907 28.695 6.69565C28.695 3.00061 25.6944 0 21.9994 0ZM21.9994 1.91304C24.6394 1.91304 26.782 4.05565 26.782 6.69565C26.782 9.33565 24.6394 11.4783 21.9994 11.4783C19.3594 11.4783 17.2168 9.33565 17.2168 6.69565C17.2168 4.05565 19.3594 1.91304 21.9994 1.91304Z" fill="#020842"/>
<path fill-rule="evenodd" clip-rule="evenodd" d="M8.60878 7.65186C5.96878 7.65186 3.82617 9.79446 3.82617 12.4345C3.82617 15.0745 5.96878 17.2171 8.60878 17.2171C11.2488 17.2171 13.3914 15.0745 13.3914 12.4345C13.3914 9.79446 11.2488 7.65186 8.60878 7.65186ZM8.60878 9.5649C10.1928 9.5649 11.4783 10.8505 11.4783 12.4345C11.4783 14.0185 10.1928 15.304 8.60878 15.304C7.02478 15.304 5.73922 14.0185 5.73922 12.4345C5.73922 10.8505 7.02478 9.5649 8.60878 9.5649Z" fill="#020842"/>
<path fill-rule="evenodd" clip-rule="evenodd" d="M35.392 7.65186C32.752 7.65186 30.6094 9.79446 30.6094 12.4345C30.6094 15.0745 32.752 17.2171 35.392 17.2171C38.032 17.2171 40.1746 15.0745 40.1746 12.4345C40.1746 9.79446 38.032 7.65186 35.392 7.65186ZM35.392 9.5649C36.976 9.5649 38.2615 10.8505 38.2615 12.4345C38.2615 14.0185 36.976 15.304 35.392 15.304C33.808 15.304 32.5224 14.0185 32.5224 12.4345C32.5224 10.8505 33.808 9.5649 35.392 9.5649Z" fill="#020842"/>
<path fill-rule="evenodd" clip-rule="evenodd" d="M11.5443 19.5072C10.6805 19.2747 9.70391 19.1303 8.6087 19.1303C4.08722 19.1303 1.58401 21.5589 0.627484 22.7373C0.623658 22.7412 0.620787 22.745 0.616961 22.7498C0.22383 23.251 0.00861232 23.8689 0.00669927 24.5059C3.61944e-06 24.8675 0 25.3467 0 25.8259C0 27.4109 1.28461 28.6955 2.86957 28.6955C2.86957 28.6955 38.1901 28.6955 41.1304 28.6955C42.7154 28.6955 44 27.4109 44 25.8259C44 25.3505 44 24.8752 44 24.5174C44 23.8756 43.7848 23.251 43.3888 22.7459C43.384 22.7402 43.3802 22.7345 43.3754 22.7287C42.4131 21.556 39.9099 19.1303 35.3913 19.1303C34.3822 19.1303 33.4744 19.2527 32.6623 19.4545C30.8631 17.6572 27.4742 15.3042 22 15.3042C17.0883 15.3042 13.5176 17.7156 11.5443 19.5072ZM10.0138 21.1418C9.57382 21.0787 9.10609 21.0433 8.6087 21.0433C4.94522 21.0433 2.89922 22.9765 2.11487 23.9397C1.98765 24.1052 1.91974 24.3079 1.91974 24.5174C1.91974 24.5232 1.91974 24.5289 1.91878 24.5337C1.91304 24.8876 1.91304 25.3563 1.91304 25.8259C1.91304 26.3539 2.34157 26.7825 2.86957 26.7825H9.72974C9.62165 26.4783 9.56522 26.155 9.56522 25.8259C9.56522 24.7374 9.56522 23.4404 9.56904 22.6742C9.56904 22.129 9.72495 21.5981 10.0138 21.1418ZM31.5652 26.7825H12.4348C12.1813 26.7825 11.9374 26.682 11.7585 26.5022C11.5787 26.3233 11.4783 26.0794 11.4783 25.8259C11.4783 24.7403 11.4783 23.449 11.4821 22.6799C11.4821 22.678 11.4821 22.6761 11.4821 22.6742C11.4821 22.4542 11.5586 22.2418 11.6973 22.0716C12.8844 20.7162 16.4713 17.2172 22 17.2172C28.2576 17.2172 31.3997 20.7095 32.361 22.0266C32.4672 22.1883 32.5217 22.371 32.5217 22.5575V25.8259C32.5217 26.0794 32.4213 26.3233 32.2415 26.5022C32.0626 26.682 31.8187 26.7825 31.5652 26.7825ZM34.2703 26.7825H41.1304C41.6584 26.7825 42.087 26.3539 42.087 25.8259V24.5165C42.087 24.3051 42.0171 24.1004 41.889 23.933C41.1008 22.9765 39.0538 21.0433 35.3913 21.0433C34.9197 21.0433 34.475 21.0749 34.056 21.1323C34.3037 21.5656 34.4348 22.0572 34.4348 22.5594V25.8259C34.4348 26.155 34.3783 26.4783 34.2703 26.7825Z" fill="#020842"/>
</svg>
