<svg width="35" height="31" viewBox="0 0 35 31" fill="none" xmlns="http://www.w3.org/2000/svg">
<path d="M10.1573 7.25439C8.15163 7.25439 6.4873 8.87604 6.4873 10.9244C6.4873 12.9728 8.10895 14.5945 10.1573 14.5945C12.2057 14.5945 13.8274 12.9728 13.8274 10.9244C13.8274 8.87604 12.1631 7.25439 10.1573 7.25439ZM10.1573 12.8448C9.09048 12.8448 8.1943 11.9913 8.1943 10.8818C8.1943 9.77222 9.0478 8.91872 10.1573 8.91872C11.2669 8.91872 12.1204 9.77222 12.1204 10.8818C12.1204 11.9913 11.2242 12.8448 10.1573 12.8448Z" fill="black"/>
<path d="M31.9635 0H2.7312C1.23757 0 0 1.23757 0 2.7312V24.7088C0 26.2024 1.23757 27.44 2.7312 27.44H6.01717V27.9094C6.01717 29.1043 6.99869 30.0858 8.19359 30.0858H12.077C13.2719 30.0858 14.2534 29.1043 14.2534 27.9094V27.3973H31.9209C33.4145 27.3973 34.6521 26.1597 34.6521 24.6661V2.7312C34.6947 1.1949 33.4998 0 31.9635 0ZM12.5891 27.8667C12.5891 28.1228 12.3757 28.3362 12.1197 28.3362H8.23626C7.98021 28.3362 7.76684 28.1228 7.76684 27.8667V26.5865V17.7101C7.76684 17.4541 7.98021 17.2407 8.23626 17.2407H12.1197C12.3757 17.2407 12.5891 17.4541 12.5891 17.7101V18.0088C12.5891 18.3929 12.8452 18.7343 13.1866 18.8197L15.8751 19.6305C16.1738 19.7158 16.5152 19.6305 16.7286 19.4171L17.9662 18.1369C18.1795 17.9235 18.5209 17.8808 18.777 18.0515C18.9904 18.1795 19.033 18.3929 19.0757 18.5209C19.0757 18.649 19.0757 18.8197 18.905 19.033L17.198 20.9961C16.9846 21.2521 16.6006 21.3801 16.2592 21.3375L13.5706 20.8254C13.3146 20.7827 13.0585 20.8254 12.8452 20.9961C12.6318 21.1668 12.5464 21.3801 12.5464 21.6362V27.8667H12.5891ZM32.9877 24.7088C32.9877 25.2636 32.5183 25.733 31.9635 25.733H14.2961V22.7031L15.9604 23.0445C16.1311 23.0871 16.3018 23.0871 16.4725 23.0871C17.2407 23.0871 18.0088 22.7457 18.5209 22.1483L20.2279 20.1852C20.6547 19.6732 20.868 18.9904 20.7827 18.3502C20.74 17.9662 20.612 17.6248 20.3986 17.326L25.0075 10.9248C25.2636 10.5407 25.1782 10.0286 24.8368 9.72989C24.4527 9.47384 23.9406 9.55919 23.6419 9.90059L18.9904 16.3018C18.8197 16.2592 18.649 16.2165 18.4783 16.2165C17.8381 16.2165 17.2407 16.4725 16.8139 16.942L15.9178 17.8381L14.2961 17.326C14.1254 16.3018 13.2292 15.491 12.1197 15.491H8.23626C7.04137 15.491 6.05984 16.4725 6.05984 17.6674V25.6903H2.77387C2.2191 25.6903 1.74967 25.2209 1.74967 24.6661V2.7312C1.74967 2.17642 2.2191 1.707 2.77387 1.707H32.0062C32.561 1.707 33.0304 2.17642 33.0304 2.7312V24.7088H32.9877Z" fill="black"/>
</svg>
