<svg width="20" height="16" viewBox="0 0 20 16" fill="none" xmlns="http://www.w3.org/2000/svg">
<path d="M19.8135 1.85145C19.1182 2.15931 18.3699 2.36697 17.5848 2.45991C18.3865 1.98186 19.0011 1.22463 19.291 0.321303C18.5412 0.764551 17.7111 1.08618 16.827 1.25981C16.1194 0.508699 15.1108 0.0390625 13.9948 0.0390625C11.8521 0.0390625 10.1149 1.7696 10.1149 3.90438C10.1149 4.20689 10.149 4.50176 10.2155 4.78514C6.99053 4.62375 4.13109 3.0852 2.21724 0.746576C1.88323 1.31718 1.69204 1.98109 1.69204 2.69014C1.69204 4.03097 2.37695 5.21424 3.41814 5.90722C2.78237 5.88695 2.18384 5.71294 1.66055 5.42344C1.66017 5.4395 1.66017 5.45594 1.66017 5.47239C1.66017 7.34481 2.99775 8.9067 4.773 9.26237C4.44744 9.35033 4.1046 9.39775 3.75062 9.39775C3.5003 9.39775 3.25728 9.37366 3.0204 9.32815C3.51451 10.8636 4.9473 11.9815 6.645 12.0125C5.31702 13.0493 3.64427 13.6673 1.82602 13.6673C1.51313 13.6673 1.20407 13.649 0.900391 13.613C2.61805 14.7102 4.65744 15.3497 6.84848 15.3497C13.986 15.3497 17.8885 9.46009 17.8885 4.35222C17.8885 4.18471 17.8851 4.01759 17.8778 3.85161C18.6356 3.30778 19.2937 2.62665 19.8135 1.85145Z" fill="white"/>
</svg>
