<svg width="56" height="50" viewBox="0 0 56 50" fill="none" xmlns="http://www.w3.org/2000/svg">
<path fill-rule="evenodd" clip-rule="evenodd" d="M52 0H4C2.93946 0.00105895 1.92266 0.422826 1.17274 1.17274C0.422826 1.92266 0.00105895 2.93946 0 4V45.6191C0.00105895 46.6797 0.422826 47.6965 1.17274 48.4464C1.92266 49.1963 2.93946 49.6181 4 49.6191H52C53.0605 49.6181 54.0773 49.1963 54.8273 48.4464C55.5772 47.6965 55.9989 46.6797 56 45.6191V4C55.9989 2.93946 55.5772 1.92266 54.8273 1.17274C54.0773 0.422826 53.0605 0.00105895 52 0ZM4 2H52C52.5302 2.00069 53.0385 2.21162 53.4135 2.58655C53.7884 2.96147 53.9993 3.46978 54 4V9.75879H2V4C2.00069 3.46978 2.21162 2.96147 2.58655 2.58655C2.96147 2.21162 3.46978 2.00069 4 2ZM52 47.6191H4C3.46978 47.6185 2.96147 47.4075 2.58655 47.0326C2.21162 46.6577 2.00069 46.1494 2 45.6191V11.7588H54V45.6191C53.9993 46.1494 53.7884 46.6577 53.4135 47.0326C53.0385 47.4075 52.5302 47.6185 52 47.6191ZM8.67701 6.87988C8.93886 6.87477 9.18825 6.76716 9.37161 6.58018C9.55498 6.39319 9.65769 6.14174 9.65768 5.87985C9.65767 5.61796 9.55495 5.36652 9.37157 5.17955C9.18819 4.99257 8.9388 4.88498 8.67695 4.87988C8.41511 4.88499 8.16572 4.9926 7.98236 5.17959C7.79899 5.36658 7.69628 5.61802 7.69629 5.87991C7.6963 6.1418 7.79902 6.39324 7.9824 6.58022C8.16578 6.76719 8.41517 6.87479 8.67701 6.87988ZM13.8755 6.58018C13.6922 6.76716 13.4428 6.87477 13.1809 6.87988C12.9191 6.87479 12.6697 6.76719 12.4863 6.58022C12.3029 6.39324 12.2002 6.1418 12.2002 5.87991C12.2002 5.61802 12.3029 5.36658 12.4863 5.17959C12.6696 4.9926 12.919 4.88499 13.1809 4.87988C13.4427 4.88498 13.6921 4.99257 13.8755 5.17955C14.0589 5.36652 14.1616 5.61796 14.1616 5.87985C14.1616 6.14174 14.0589 6.39319 13.8755 6.58018ZM17.6839 6.87988C17.9457 6.87477 18.1951 6.76716 18.3785 6.58017C18.5618 6.39319 18.6645 6.14174 18.6645 5.87985C18.6645 5.61796 18.5618 5.36652 18.3784 5.17954C18.195 4.99257 17.9456 4.88498 17.6838 4.87988C17.4219 4.885 17.1726 4.99261 16.9892 5.17959C16.8058 5.36658 16.7031 5.61803 16.7031 5.87992C16.7031 6.14181 16.8059 6.39325 16.9892 6.58022C17.1726 6.7672 17.422 6.87479 17.6839 6.87988ZM48.323 6.87988H28.5261C28.2643 6.87465 28.0151 6.76699 27.8318 6.58002C27.6486 6.39306 27.5459 6.14169 27.5459 5.87988C27.5459 5.61808 27.6486 5.36671 27.8318 5.17974C28.0151 4.99278 28.2643 4.88512 28.5261 4.87988H48.3229C48.5847 4.88498 48.8341 4.99257 49.0175 5.17954C49.2009 5.36652 49.3036 5.61796 49.3036 5.87985C49.3036 6.14174 49.2009 6.39319 49.0176 6.58017C48.8342 6.76716 48.5848 6.87477 48.323 6.87988ZM40.15 18.1193H15.8492C14.3003 18.1214 12.8155 18.7381 11.721 19.8341C10.6265 20.9301 10.0117 22.4157 10.0117 23.9646C10.0117 25.5135 10.6265 26.9991 11.7211 28.095C12.8156 29.191 14.3004 29.8077 15.8493 29.8097L31.7994 29.8097C32.0613 29.8048 32.3108 29.6972 32.4943 29.5102C32.6778 29.3232 32.7805 29.0717 32.7805 28.8097C32.7805 28.5477 32.6777 28.2962 32.4943 28.1092C32.3108 27.9222 32.0612 27.8147 31.7993 27.8097H15.8492C10.7907 27.6803 10.7821 20.255 15.8493 20.1193H40.15C40.9112 20.1202 41.655 20.347 42.2872 20.7711C42.9194 21.1952 43.4114 21.7974 43.7009 22.5015C43.9904 23.2055 44.0644 23.9796 43.9135 24.7258C43.7625 25.4719 43.3935 26.1564 42.8531 26.6926C42.6843 26.8794 42.4497 27.0354 42.2158 27.1909C41.6517 27.5659 41.0916 27.9382 41.4693 28.7346C42.1875 29.9719 43.6075 28.7592 44.2769 28.0968C47.957 24.5707 45.2472 18.0186 40.15 18.1193ZM36.2537 24.6573C36.5666 24.7457 36.8473 24.9224 37.0623 25.1663L42.0398 30.9768C42.3586 31.3567 42.5789 31.8093 42.6813 32.2946C42.7837 32.7799 42.765 33.2829 42.6269 33.7593C42.4888 34.2356 42.2354 34.6706 41.8893 35.0259C41.5432 35.3811 41.115 35.6456 40.6424 35.7961L40.2767 35.9085L41.4539 38.882C41.5456 39.1273 41.5375 39.3988 41.4312 39.6382C41.3249 39.8776 41.1289 40.0657 40.8854 40.1622C40.6419 40.2586 40.3702 40.2557 40.1289 40.154C39.8875 40.0523 39.6956 39.86 39.5945 39.6184L38.3592 36.4981L37.1297 36.8761C36.6542 37.0169 36.1514 37.0384 35.6656 36.9388C35.1799 36.8393 34.7261 36.6217 34.3443 36.3052C33.9625 35.9888 33.6645 35.5832 33.4765 35.1244C33.2885 34.6655 33.2164 34.1674 33.2664 33.6741L34.118 26.0706C34.159 25.7481 34.2922 25.4443 34.5015 25.1955C34.7109 24.9468 34.9875 24.7637 35.2983 24.6682C35.6091 24.5728 35.9408 24.569 36.2537 24.6573ZM40.4753 33.631C40.5919 33.5125 40.6766 33.3664 40.7215 33.2063C40.7692 33.0471 40.7758 32.8784 40.7406 32.716C40.7054 32.5536 40.6296 32.4027 40.5203 32.2776L36.0233 27.0276L35.2547 33.8967C35.2373 34.0613 35.2609 34.2276 35.3233 34.3808C35.3857 34.5341 35.485 34.6695 35.6124 34.7752C35.7397 34.8808 35.8912 34.9533 36.0534 34.9863C36.2155 35.0192 36.3833 35.0116 36.5418 34.9641L40.0545 33.884C40.2139 33.8366 40.3587 33.7496 40.4753 33.631Z" fill="#020842"/>
</svg>
