<svg width="45" height="44" viewBox="0 0 45 44" fill="none" xmlns="http://www.w3.org/2000/svg">
<path d="M38.0863 44.0003H6.9196C6.41332 44.0003 6.00293 43.5898 6.00293 43.0837V39.417C6.00293 31.8352 12.1712 25.667 19.7529 25.667H25.2529C32.8347 25.667 39.0029 31.8352 39.0029 39.417V43.0837C39.0029 43.5898 38.5924 44.0003 38.0863 44.0003ZM7.83626 42.167H37.1696V39.417C37.1696 32.8461 31.8239 27.5003 25.2529 27.5003H19.7529C13.1821 27.5003 7.83626 32.8461 7.83626 39.417V42.167Z" fill="#020842"/>
<path d="M43.5718 22.3665H30.4462C30.135 22.3665 29.8452 22.2086 29.6763 21.9473C29.5075 21.6859 29.4827 21.3569 29.6106 21.0731C30.0647 20.0655 30.295 18.9895 30.295 17.8748C30.295 16.1859 29.7637 14.5793 28.7584 13.2286C28.6015 13.0177 28.5427 12.7494 28.5968 12.4922C28.6511 12.235 28.8132 12.0134 29.0419 11.8837C30.5888 11.0072 32.351 10.5439 34.1374 10.5439C39.845 10.5439 44.4883 15.1873 44.4883 20.8949V21.4498C44.4884 21.956 44.078 22.3665 43.5718 22.3665ZM31.757 20.5331H42.6475C42.4573 16.0037 38.7129 12.3773 34.1375 12.3773C32.9984 12.3773 31.8717 12.6059 30.8306 13.044C31.6824 14.5056 32.1283 16.1561 32.1283 17.8748C32.1283 18.7849 32.0038 19.6745 31.757 20.5331Z" fill="#020842"/>
<path d="M34.137 12.3775C30.7245 12.3775 27.9482 9.60126 27.9482 6.18878C27.9482 2.77631 30.7245 0 34.137 0C37.5496 0 40.3258 2.77631 40.3258 6.18878C40.3258 9.60126 37.5495 12.3775 34.137 12.3775ZM34.137 1.83333C31.7355 1.83333 29.7816 3.78712 29.7816 6.18878C29.7816 8.59036 31.7354 10.5441 34.137 10.5441C36.5387 10.5441 38.4925 8.59036 38.4925 6.18878C38.4925 3.78712 36.5386 1.83333 34.137 1.83333Z" fill="#020842"/>
<path d="M14.5605 22.3665H1.78678C1.28051 22.3665 0.870117 21.956 0.870117 21.4498V20.8949C0.870117 15.1873 5.51349 10.5439 11.221 10.5439C12.8994 10.5439 14.567 10.9558 16.044 11.7349C16.2835 11.8612 16.4549 12.0871 16.5122 12.3518C16.5695 12.6165 16.5067 12.893 16.3408 13.1071C15.2752 14.4824 14.7118 16.131 14.7118 17.8748C14.7118 18.9897 14.9421 20.0656 15.3962 21.0731C15.5241 21.3568 15.4993 21.6859 15.3304 21.9473C15.1616 22.2086 14.8717 22.3665 14.5605 22.3665ZM2.71106 20.5331H13.2497C13.0029 19.6746 12.8785 18.785 12.8785 17.8748C12.8785 16.1072 13.3472 14.4185 14.2432 12.9304C13.2824 12.5668 12.2544 12.3773 11.221 12.3773C6.64567 12.3773 2.90136 16.0037 2.71106 20.5331Z" fill="#020842"/>
<path d="M22.5029 27.5C18.7237 27.5 15.2779 25.2731 13.7243 21.8267C13.1626 20.5809 12.8779 19.2514 12.8779 17.875C12.8779 15.7208 13.5741 13.6839 14.8912 11.9843C16.7302 9.61116 19.5046 8.25 22.5029 8.25C25.5308 8.25 28.419 9.70209 30.2289 12.1343C31.4712 13.8037 32.1279 15.7889 32.1279 17.875C32.1279 19.2512 31.8432 20.5807 31.2817 21.8267C29.7279 25.2731 26.2822 27.5 22.5029 27.5ZM22.5029 10.0833C20.0757 10.0833 17.8296 11.1855 16.3403 13.1073C15.2746 14.4826 14.7113 16.1312 14.7113 17.875C14.7113 18.9899 14.9415 20.0658 15.3956 21.0732C16.6535 23.8637 19.4433 25.6667 22.5029 25.6667C25.5626 25.6667 28.3524 23.8637 29.6102 21.0732C30.0643 20.0657 30.2946 18.9897 30.2946 17.875C30.2946 16.1861 29.7633 14.5795 28.7581 13.2288C27.2706 11.2298 24.9907 10.0833 22.5029 10.0833Z" fill="#020842"/>
<path d="M11.221 12.3775C7.80854 12.3775 5.03223 9.60126 5.03223 6.18878C5.03223 2.77631 7.80854 0 11.221 0C14.6335 0 17.4098 2.77631 17.4098 6.18878C17.4098 9.60126 14.6335 12.3775 11.221 12.3775ZM11.221 1.83333C8.81944 1.83333 6.86556 3.78712 6.86556 6.18878C6.86556 8.59036 8.81934 10.5441 11.221 10.5441C13.6227 10.5441 15.5765 8.59036 15.5765 6.18878C15.5765 3.78712 13.6226 1.83333 11.221 1.83333Z" fill="#020842"/>
</svg>
