<svg width="42" height="57" viewBox="0 0 42 57" fill="none" xmlns="http://www.w3.org/2000/svg">
<path fill-rule="evenodd" clip-rule="evenodd" d="M19.3356 24.5008V7.22749C19.3356 6.9233 19.3947 6.62317 19.5095 6.34283L21.4512 1.62173C21.8394 0.632955 22.7807 -0.010911 23.822 0.000140042C24.8638 0.0106094 25.792 0.674251 26.1603 1.67175L27.9798 6.39052C28.0826 6.65691 28.1355 6.94074 28.1355 7.22749V24.5008H29.6713V2.28013C29.6713 1.0209 30.6688 0.000140042 31.8994 0.000140042H36.8672C38.0978 0.000140042 39.0953 1.0209 39.0953 2.28013V24.5008H39.7717C40.4293 24.5008 41.0534 24.798 41.4763 25.3127C41.8998 25.8275 42.0794 26.5074 41.9674 27.1705C41.32 30.9906 39.8422 34.6194 37.6402 37.7841C37.539 37.9289 37.4021 38.1092 37.2349 38.3145C34.5066 42.0486 33.0317 46.5859 33.0317 51.275C33.0101 53.231 33.0101 54.72 33.0101 54.72C33.0101 55.9787 32.0125 57 30.782 57H12.0539C10.8233 57 9.8258 55.9787 9.8258 54.72V50.1036L8.9931 50.2827C7.79436 50.5392 6.54616 50.2281 5.59751 49.4353C4.64886 48.642 4.10149 47.4525 4.10831 46.1991L4.14867 38.7885L2.96754 38.6902C1.82962 38.5954 0.825263 37.8928 0.325644 36.8418C-0.173975 35.7914 -0.0943999 34.549 0.534813 33.5742L5.73165 25.5239C6.14431 24.8852 6.84286 24.5008 7.59087 24.5008H8.10584C8.10811 20.8888 8.44915 17.6422 8.94024 15.3622C7.60167 14.2978 6.73941 12.6349 6.73941 10.7679C6.73941 9.79016 7.08557 8.4082 7.64203 6.97099C8.71686 4.19719 10.5062 1.11455 10.5062 1.11455C10.908 0.423568 11.6356 0.000140042 12.4211 0.000140042C13.2066 0.000140042 13.9342 0.423568 14.336 1.11455C14.336 1.11455 16.1253 4.19719 17.2002 6.97099C17.7566 8.4082 18.1028 9.79016 18.1028 10.7679C18.1028 12.6349 17.2405 14.2978 15.9019 15.3622C16.393 17.6416 16.7341 20.8883 16.7363 24.5008H19.3356ZM39.7717 26.7808C39.1817 30.2653 37.8335 33.5754 35.8253 36.4614C35.7412 36.5824 35.623 36.7348 35.478 36.9105C32.4439 41.0464 30.8036 46.0775 30.8036 51.2488C30.782 53.22 30.782 54.72 30.782 54.72H12.0539V47.2966C12.0539 47.2966 10.1492 47.7049 8.53611 48.051C7.99614 48.1668 7.43399 48.0266 7.00656 47.6695C6.5797 47.3123 6.33301 46.7767 6.33642 46.2119C6.35518 42.7669 6.38871 36.6883 6.38871 36.6883C6.38871 36.6883 4.57553 36.537 3.14886 36.4178C2.79589 36.3881 2.48384 36.1706 2.32924 35.8443C2.17407 35.5186 2.19907 35.133 2.39403 34.8305L7.59087 26.7808H39.7717ZM13.8745 16.3893C13.4107 16.515 12.9236 16.5819 12.4211 16.5819C11.9186 16.5819 11.4315 16.515 10.9677 16.3893C10.5784 18.446 10.3357 21.3204 10.3339 24.5008H14.5082C14.5065 21.3204 14.2638 18.4454 13.8745 16.3893ZM21.5637 24.5008H25.9074V8.49312H21.5637V24.5008ZM36.8672 5.6821V2.28013H31.8994V24.5008H36.8672V21.5013H35.6537C35.0392 21.5013 34.5396 20.9906 34.5396 20.3613C34.5396 19.732 35.0392 19.2213 35.6537 19.2213H36.8672V14.7317H35.6537C35.0392 14.7317 34.5396 14.221 34.5396 13.5917C34.5396 12.9624 35.0392 12.4517 35.6537 12.4517H36.8672V7.96209H35.6537C35.0392 7.96209 34.5396 7.45142 34.5396 6.82209C34.5396 6.19277 35.0392 5.6821 35.6537 5.6821H36.8672ZM12.4211 2.28013C12.4211 2.28013 8.96752 8.2215 8.96752 10.7679C8.96752 12.7181 10.5153 14.3019 12.4211 14.3019C14.3275 14.3019 15.8747 12.7181 15.8747 10.7679C15.8747 8.2215 12.4211 2.28013 12.4211 2.28013ZM25.5163 6.21312L24.0806 2.48952C24.0397 2.36505 23.9265 2.2813 23.7992 2.28013C23.6719 2.27839 23.5577 2.3604 23.5139 2.48371L21.9804 6.21312H25.5163Z" fill="#020842"/>
</svg>
