<svg width="22" height="22" viewBox="0 0 22 22" fill="none" xmlns="http://www.w3.org/2000/svg">
<path d="M11 0C4.9345 0 0 4.9345 0 11C0 17.0655 4.9345 22 11 22C17.0655 22 22 17.0655 22 11C22 4.9345 17.0655 0 11 0ZM16.3017 7.59358L10.0159 14.6652C9.87207 14.8267 9.66797 14.9286 9.45159 14.9286C9.44392 14.9286 9.43624 14.9286 9.42857 14.9286C9.22063 14.9286 9.02037 14.8461 8.87305 14.6984L5.73019 11.5555C5.42327 11.2486 5.42327 10.7514 5.73019 10.4445C6.03711 10.1376 6.53432 10.1376 6.84124 10.4445L9.39481 12.998L15.1269 6.54928C15.415 6.2251 15.9115 6.19517 16.2364 6.48406C16.5606 6.77257 16.5898 7.26901 16.3017 7.59358Z" fill="url(#paint0_linear_962_442)"/>
<defs>
<linearGradient id="paint0_linear_962_442" x1="4.53968" y1="0" x2="4.53968" y2="22" gradientUnits="userSpaceOnUse">
<stop stop-color="#0B8140"/>
<stop offset="1" stop-color="#0A5129"/>
</linearGradient>
</defs>
</svg>
